<svg id="Layer_1" data-name="Layer 1" xmlns="http://www.w3.org/2000/svg" viewBox="0 0 260 180"><title>Flat Web Illustrations Pack - Scene 1</title><path d="M93,34.8c-6.08,0-11,10.5-11,23.45s4.93,23.46,11,23.46h68.38V34.8Z" fill="#e2eaf2"/><path d="M147.27,60.8l4.64-2.13s.74,15.63,8.72,20.57v2.47h-17Z" fill="#0a0d16"/><polygon points="82 55.69 82 130.32 82 132.31 86.84 132.31 86.84 130.32 90.83 130.32 90.83 132.31 94.67 132.31 94.67 130.32 98.66 130.32 98.66 132.31 102.51 132.31 102.51 130.32 106.5 130.32 106.5 132.31 110.34 132.31 110.34 130.32 114.33 130.32 114.33 132.31 118.18 132.31 118.18 130.32 122.17 130.32 122.17 132.31 126.01 132.31 126.01 130.32 130 130.32 130 132.31 133.85 132.31 133.85 130.32 137.83 130.32 137.83 132.31 141.68 132.31 141.68 130.32 145.67 130.32 145.67 132.31 150.37 132.31 150.37 130.32 150.37 55.69 82 55.69" fill="#e2eaf2"/><ellipse cx="161.39" cy="58.25" rx="11.02" ry="23.46" fill="#a365c9"/><ellipse cx="161.39" cy="58.25" rx="6.04" ry="12.86" fill="#0a0d16"/><rect x="86.84" y="87.59" width="3.99" height="3.99" fill="#fafafa"/><rect x="94.67" y="87.59" width="3.99" height="3.99" fill="#fafafa"/><rect x="102.51" y="87.59" width="3.99" height="3.99" fill="#fafafa"/><rect x="110.34" y="87.59" width="3.99" height="3.99" fill="#fafafa"/><rect x="118.18" y="87.59" width="3.99" height="3.99" fill="#fafafa"/><rect x="126.01" y="87.59" width="3.99" height="3.99" fill="#fafafa"/><rect x="133.85" y="87.59" width="3.99" height="3.99" fill="#fafafa"/><rect x="141.68" y="87.59" width="3.99" height="3.99" fill="#fafafa"/><path d="M163.28,138.51V59.32a2.14,2.14,0,1,0-4.27,0v79.19a2.14,2.14,0,1,0,4.27,0Z" fill="#0a0d16"/><path d="M75,138.36h72.58a0,0,0,0,1,0,0v6.85a0,0,0,0,1,0,0H75a3.42,3.42,0,0,1-3.42-3.42v0A3.42,3.42,0,0,1,75,138.36Z" fill="#e2eaf2"/><path d="M185,138.36H145.22a3.42,3.42,0,1,0,0,6.84H185a3.42,3.42,0,0,0,0-6.84Z" fill="#a365c9"/><ellipse cx="164.05" cy="58.25" rx="2.66" ry="5.67" fill="#e2eaf2"/><polygon points="104.58 110.93 101.72 110.93 101.72 117.3 95.89 117.3 102.74 102.33 99.72 102.33 92.7 117.47 92.7 120.02 101.72 120.02 101.72 123.24 104.58 123.24 104.58 120.02 106.15 120.02 106.15 117.3 104.58 117.3 104.58 110.93" fill="#fafafa"/><path d="M115.72,102.05a5.38,5.38,0,0,0-6,5.94v9.51a6.06,6.06,0,0,0,1.51,4.38,7.11,7.11,0,0,0,8.9,0,6,6,0,0,0,1.53-4.39V108a5.38,5.38,0,0,0-6-5.94Zm3,15.45a3.37,3.37,0,0,1-.74,2.34,3.66,3.66,0,0,1-4.59,0,3.37,3.37,0,0,1-.74-2.34V108a3.36,3.36,0,0,1,.73-2.33,3.65,3.65,0,0,1,4.61,0,3.36,3.36,0,0,1,.73,2.33Z" fill="#fafafa"/><polygon points="137.6 110.93 134.74 110.93 134.74 117.3 128.91 117.3 135.76 102.33 132.74 102.33 125.72 117.47 125.72 120.02 134.74 120.02 134.74 123.24 137.6 123.24 137.6 120.02 139.17 120.02 139.17 117.3 137.6 117.3 137.6 110.93" fill="#fafafa"/><polygon points="104.58 62.5 101.72 62.5 101.72 68.87 95.89 68.87 102.74 53.9 99.72 53.9 92.7 69.04 92.7 71.59 101.72 71.59 101.72 74.81 104.58 74.81 104.58 71.59 106.15 71.59 106.15 68.87 104.58 68.87 104.58 62.5" fill="#fafafa"/><path d="M115.72,53.62a5.38,5.38,0,0,0-6,5.94v9.51a6.06,6.06,0,0,0,1.51,4.38,6,6,0,0,0,10.43-4.38V59.56a5.38,5.38,0,0,0-6-5.94Zm3,15.45a3.37,3.37,0,0,1-.74,2.34,3.66,3.66,0,0,1-4.59,0,3.37,3.37,0,0,1-.74-2.34V59.56a3.4,3.4,0,0,1,.73-2.34,3.68,3.68,0,0,1,4.61,0,3.4,3.4,0,0,1,.73,2.34Z" fill="#fafafa"/><polygon points="137.6 68.87 137.6 62.5 134.74 62.5 134.74 68.87 128.91 68.87 135.76 53.9 132.74 53.9 125.72 69.04 125.72 71.59 134.74 71.59 134.74 74.81 137.6 74.81 137.6 71.59 139.17 71.59 139.17 68.87 137.6 68.87" fill="#fafafa"/></svg>