<svg id="Layer_1" data-name="Layer 1" xmlns="http://www.w3.org/2000/svg" viewBox="0 0 260 180"><title>Flat Web Illustrations Pack - Scene 2</title><path d="M101.94,85.65c-.8,0-1.6,0-2.39-.11l.4-4.41a21.59,21.59,0,0,0,4,0l.41,4.41C103.58,85.61,102.76,85.65,101.94,85.65Zm-7.14-1a26.09,26.09,0,0,1-4.52-1.75l2-4A21.45,21.45,0,0,0,96,80.41Zm14.33,0-1.22-4.25a21.9,21.9,0,0,0,3.75-1.46l2,4A25.89,25.89,0,0,1,109.13,84.65Zm-23-4.27a26.13,26.13,0,0,1-3.57-3.25l3.26-3a22.5,22.5,0,0,0,3,2.71Zm31.57,0-2.67-3.53a22.34,22.34,0,0,0,3-2.71l3.28,3A26.87,26.87,0,0,1,117.74,80.35ZM79.68,73.28A26.85,26.85,0,0,1,77.51,69l4.13-1.61a20.77,20.77,0,0,0,1.8,3.59Zm44.54,0-3.76-2.34a22.26,22.26,0,0,0,1.79-3.59l4.13,1.6A26.9,26.9,0,0,1,124.22,73.24Zm-48-8.93a27.5,27.5,0,0,1-.45-4.81h4.43a22.3,22.3,0,0,0,.37,4Zm51.52,0-4.36-.81a21.34,21.34,0,0,0,.37-4l4.43-.1v.1A26.56,26.56,0,0,1,127.7,64.26ZM80.52,55.49l-4.36-.8A27.68,27.68,0,0,1,77.47,50l4.14,1.59A21.73,21.73,0,0,0,80.52,55.49Zm42.81-.13a22.41,22.41,0,0,0-1.11-3.86l4.12-1.61a27.39,27.39,0,0,1,1.34,4.64ZM83.39,48l-3.77-2.32a26,26,0,0,1,2.91-3.86l3.27,3A22.06,22.06,0,0,0,83.39,48Zm37-.11a22.17,22.17,0,0,0-2.44-3.2l3.26-3a25.82,25.82,0,0,1,2.93,3.84ZM88.77,42.1l-2.68-3.52A26.3,26.3,0,0,1,90.19,36l2,4A21.71,21.71,0,0,0,88.77,42.1ZM115,42a21.78,21.78,0,0,0-3.42-2.1l2-4a26.69,26.69,0,0,1,4.11,2.53Zm-19.08-3.5-1.22-4.26a26.19,26.19,0,0,1,4.75-.89l.42,4.4A21.86,21.86,0,0,0,95.91,38.52Zm11.92,0a22.13,22.13,0,0,0-4-.72l.39-4.41a25.62,25.62,0,0,1,4.75.87Z" fill="#e2eaf2"/><path d="M196,58.65H149.8a11.15,11.15,0,0,1-2.32-10.58c1.8-6.46,10.32-9.62,12.9-2,0,0,3.41-4.23,11.13-3.19s7.71,7.23,7.71,7.23S191.35,46.78,196,58.65Z" fill="#e2eaf2"/><path d="M57,112.65h49.28a11.9,11.9,0,0,0,2.48-11.29c-1.92-6.88-11-10.26-13.76-2.1,0,0-3.65-4.51-11.88-3.41s-8.23,7.72-8.23,7.72S62,100,57,112.65Z" fill="#e2eaf2"/><path d="M189.68,144.65c6.6-7.5,8.85-14.17,5.85-16.27s-7.51,3.6-9.61,0,5.1-6.21,10.81-10.61,8.4-11.4,4.2-15.7-9.61.5-12.91,5.3-3.9,7.2-7.8,6.3,1.2-4.8,1.2-8.25-5.7-8-9.3-2-3.9,9.15-5.71,8,.28-5.18-2.1-7.53c-4.35-4.32-7.35,3.78-17.25,14.39-2.14,2.29-3.8,4.63-6.94,5.46a5.37,5.37,0,0,1-4-.33c-3.7-2.12.9-5.67-1.54-8.25-.9-.94-2.56-.47-3.48.46-3.53,3.6-5.65,8.62-8.92,12.49-7.23,8.58-9.63,6.87-7.23,2.07s-2.11-8-8.41,0-10.75,14.39-10.75,14.39h93.89Z" fill="#0d1019"/><path d="M190.94,146.65H67.21a1,1,0,0,1,0-2H190.94a1,1,0,0,1,0,2Z" fill="#e2eaf2"/><path d="M101.78,53.2h0a1.11,1.11,0,0,1-.72,1,8.44,8.44,0,0,0-4.88,4.88,1.11,1.11,0,0,1-1,.72h0a1.12,1.12,0,0,1-1-.72,8.4,8.4,0,0,0-4.87-4.88,1.11,1.11,0,0,1-.72-1h0a1.13,1.13,0,0,1,.72-1,8.38,8.38,0,0,0,4.87-4.87,1.12,1.12,0,0,1,1-.72h0a1.11,1.11,0,0,1,1,.72,8.43,8.43,0,0,0,4.88,4.87A1.13,1.13,0,0,1,101.78,53.2Z" fill="#0a0d16"/><path d="M108.44,67.44h0a.84.84,0,0,1-.55.78,6.39,6.39,0,0,0-3.68,3.68.82.82,0,0,1-.77.54h0a.83.83,0,0,1-.77-.54A6.36,6.36,0,0,0,99,68.22a.85.85,0,0,1-.54-.78h0a.83.83,0,0,1,.54-.77A6.36,6.36,0,0,0,102.67,63a.83.83,0,0,1,.77-.54h0a.82.82,0,0,1,.77.54,6.39,6.39,0,0,0,3.68,3.68A.83.83,0,0,1,108.44,67.44Z" fill="#0a0d16"/><path d="M114.08,56.48h0a.84.84,0,0,1-.55.78A6.43,6.43,0,0,0,109.82,61a.85.85,0,0,1-.78.55h0a.85.85,0,0,1-.78-.55,6.4,6.4,0,0,0-3.71-3.71.85.85,0,0,1-.54-.78h0a.85.85,0,0,1,.54-.78A6.43,6.43,0,0,0,108.26,52a.85.85,0,0,1,.78-.55h0a.85.85,0,0,1,.78.55,6.46,6.46,0,0,0,3.71,3.71A.84.84,0,0,1,114.08,56.48Z" fill="#0a0d16"/><path d="M121.38,47.74l-34.61,60A8.88,8.88,0,0,0,94.46,121h69.23a8.88,8.88,0,0,0,7.69-13.33L136.77,47.74A8.89,8.89,0,0,0,121.38,47.74Z" fill="#a365c9"/><path d="M158.84,117.75H99.3A8.42,8.42,0,0,1,92,105.13l29.77-51.56h0a8.41,8.41,0,0,1,14.57,0l29.77,51.56a8.42,8.42,0,0,1-7.29,12.62ZM123.13,54.34,93.36,105.91A6.86,6.86,0,0,0,99.3,116.2h59.54a6.86,6.86,0,0,0,5.95-10.29L135,54.34a6.87,6.87,0,0,0-11.89,0Z" fill="#fff"/><path d="M124.1,106.24a4.87,4.87,0,1,1,9.73,0,4.87,4.87,0,0,1-9.73,0Zm9.33-42c.15,2-.44,7.84-1.18,18.68l-.88,12.52a2.38,2.38,0,0,1-2.4,2.19h0a2.39,2.39,0,0,1-2.41-2.19l-.87-12.52c-.75-10.84-1.34-16.67-1.19-18.68.15-2.19,1.84-3.06,4.47-3.06S133.28,62.07,133.43,64.26Z" fill="#fff"/><path d="M199.07,85.65H167a7.75,7.75,0,0,1-1.61-7.36c1.25-4.48,7.17-6.68,9-1.37,0,0,2.37-2.94,7.74-2.22s5.36,5,5.36,5S195.84,77.39,199.07,85.65Z" fill="#e2eaf2"/></svg>