<svg id="Layer_1" data-name="Layer 1" xmlns="http://www.w3.org/2000/svg" viewBox="0 0 260 180"><title>Flat Web Illustrations Pack - Scene 3</title><path d="M136.18,87.78,133.06,86a8.52,8.52,0,0,1-3.14-11.61L144,49.85a8.51,8.51,0,0,1,11.61-3.14l3.12,1.79L157.3,51l-3.12-1.79a5.63,5.63,0,0,0-7.67,2.07L132.43,75.82a5.61,5.61,0,0,0,2.07,7.67l3.12,1.79Z" fill="#e2eaf2"/><path d="M172.71,108.76,169.59,107l1.44-2.51,3.12,1.8a5.63,5.63,0,0,0,7.67-2.08l14.09-24.54A5.63,5.63,0,0,0,193.83,72l-3.12-1.79,1.44-2.5,3.12,1.79a8.52,8.52,0,0,1,3.14,11.61l-14.09,24.54A8.52,8.52,0,0,1,172.71,108.76Z" fill="#e2eaf2"/><rect x="141.46" y="63.74" width="45.41" height="27.99" rx="2.45" transform="translate(60.5 -71.42) rotate(29.86)" fill="#e2eaf2"/><path d="M146,77.94l27.17,15.68a62.66,62.66,0,0,0,0-12.14c-.66-6.35-.86-8.14-5.71-6.5a50.37,50.37,0,0,0-7.92,3.37,36.54,36.54,0,0,0-1.39-4.72C157.29,71.51,146,77.94,146,77.94Z" fill="#fafafa"/><circle cx="159.72" cy="68.01" r="3.1" fill="#fafafa"/><path d="M89.77,71.32l-2.72.73a6.64,6.64,0,0,1-8.14-4.68L73.14,46a6.65,6.65,0,0,1,4.68-8.14l2.72-.74.58,2.18-2.71.73a4.39,4.39,0,0,0-3.09,5.38l5.76,21.34a4.4,4.4,0,0,0,5.38,3.1l2.72-.74Z" fill="#e2eaf2"/><path d="M121.53,62.74l-2.71.73-.59-2.18,2.71-.73a4.39,4.39,0,0,0,3.1-5.38l-5.77-21.34a4.39,4.39,0,0,0-5.38-3.09l-2.71.73-.59-2.17,2.71-.74a6.66,6.66,0,0,1,8.15,4.68l5.76,21.34A6.65,6.65,0,0,1,121.53,62.74Z" fill="#e2eaf2"/><rect x="81.94" y="39.38" width="35.48" height="21.87" rx="1.92" transform="translate(-9.67 27.74) rotate(-15.12)" fill="#e2eaf2"/><path d="M89.73,60.48l23.67-6.34a48.5,48.5,0,0,0-6.69-6.71c-3.87-3.15-5-4-6.75-.44a39,39,0,0,0-2.51,6.23,27.71,27.71,0,0,0-3.38-1.83C92.44,50.67,89.73,60.48,89.73,60.48Z" fill="#fafafa"/><circle cx="91.85" cy="47.4" r="2.42" fill="#fafafa"/><rect x="69.83" y="90.45" width="7.33" height="17.59" rx="1.44" fill="#e2eaf2"/><rect x="65.15" y="105.12" width="7.33" height="16.7" rx="1.41" transform="translate(-44.66 182.29) rotate(-90)" fill="#e2eaf2"/><rect x="76.63" y="108.55" width="7.33" height="28.07" rx="1.41" transform="translate(-42.29 202.87) rotate(-90)" fill="#e2eaf2"/><rect x="60.46" y="97.97" width="7.33" height="10.07" rx="1.44" fill="#e2eaf2"/><rect x="83.72" y="128.02" width="7.33" height="10.07" rx="1.44" fill="#e2eaf2"/><path d="M159.86,151.66H83.18a.72.72,0,1,1,0-1.44h76.68a.72.72,0,0,1,0,1.44Z" fill="#e2eaf2"/><path d="M80.12,66h0a1.11,1.11,0,0,1-.72,1,8.42,8.42,0,0,0-4.88,4.88,1.13,1.13,0,0,1-1,.72h0a1.12,1.12,0,0,1-1-.72A8.4,8.4,0,0,0,67.6,67a1.11,1.11,0,0,1-.72-1h0a1.11,1.11,0,0,1,.72-1,8.41,8.41,0,0,0,4.87-4.87,1.12,1.12,0,0,1,1-.72h0a1.13,1.13,0,0,1,1,.72A8.43,8.43,0,0,0,79.4,65,1.11,1.11,0,0,1,80.12,66Z" fill="#0a0d16"/><path d="M84.78,83.24h0a.85.85,0,0,1-.54.78,6.36,6.36,0,0,0-3.68,3.68.85.85,0,0,1-.78.54h0A.84.84,0,0,1,79,87.7,6.37,6.37,0,0,0,75.34,84a.84.84,0,0,1-.55-.78h0a.84.84,0,0,1,.55-.77A6.38,6.38,0,0,0,79,78.8a.84.84,0,0,1,.77-.55h0a.84.84,0,0,1,.78.55,6.37,6.37,0,0,0,3.68,3.67A.84.84,0,0,1,84.78,83.24Z" fill="#0a0d16"/><path d="M92.42,72.28h0a.85.85,0,0,1-.54.78,6.45,6.45,0,0,0-3.72,3.71.84.84,0,0,1-.78.55h0a.84.84,0,0,1-.78-.55,6.41,6.41,0,0,0-3.7-3.71.84.84,0,0,1-.55-.78h0a.84.84,0,0,1,.55-.78,6.39,6.39,0,0,0,3.7-3.71.85.85,0,0,1,.78-.54h0a.85.85,0,0,1,.78.54,6.42,6.42,0,0,0,3.72,3.71A.85.85,0,0,1,92.42,72.28Z" fill="#0a0d16"/><path d="M134,77.45H107.78a26.67,26.67,0,0,0-26.66,26.67h0a26.67,26.67,0,0,0,26.66,26.66h22.14c.33.67.69,1.33,1.07,1.95a17.36,17.36,0,0,0,4.39,4.78,14,14,0,0,0,5.39,2.49,15.79,15.79,0,0,0,2.68.36c.87,0,1.73-.06,2.54-.1a.37.37,0,0,0,.27-.13.38.38,0,0,0,0-.53l0,0c-.62-.53-1.24-1-1.76-1.54a11.2,11.2,0,0,1-1.36-1.71,7.77,7.77,0,0,1-1.31-3.57,8,8,0,0,1,.3-3.19,26.68,26.68,0,0,0,18.65-25.43h0A26.67,26.67,0,0,0,134,77.45Z" fill="#a365c9"/><path d="M141,101a10.61,10.61,0,0,1-3.08,7.47,11.4,11.4,0,0,1-1,.85L120.91,122l-16.07-12.66c-.34-.27-.67-.56-1-.85a10.58,10.58,0,0,1,14.06-15.77l3,2.34,3-2.34A10.58,10.58,0,0,1,141,101Z" fill="#fafafa"/></svg>