<svg id="Layer_1" data-name="Layer 1" xmlns="http://www.w3.org/2000/svg" viewBox="0 0 260 180"><title>Flat Web Illustrations Pack - Scene 4</title><path d="M114.43,76.33c-5.51,19.28-20.8,24.7-11.74,31.72s19.79-9.86,23.15-13.5,17.15-6.42,16.26,6.09-20.62,29.18-14.75,36.58,15.93-1.05,21-12.56,11.23-23,19-18.31.34,14.67-2.93,23.82,3.35,17,12.08,9.83S197,105,197.3,92.6s-7.72-18.12-15.1-7-15.77,4.2-10.4-5.62,3.77-15.18-.34-17.19-10.56,2.47-14.34,12.14S138.25,84,145,73.71s5-17.68.34-19.52-10.74,7.54-13.42,15.26-10,11.67-9.4.67c.67-11.41-.67-18.12-6.1-16.17C106.57,57.46,116.78,68.11,114.43,76.33Z" fill="#e2eaf2"/><path d="M111.68,146h0a2.28,2.28,0,0,1-1.37-2.93l21.14-57.74A2.28,2.28,0,0,1,134.38,84h0a2.29,2.29,0,0,1,1.38,2.93l-21.14,57.74A2.3,2.3,0,0,1,111.68,146Z" fill="#eaa88e"/><path d="M154.26,146h0a2.29,2.29,0,0,0,1.38-2.93L134.5,85.32A2.3,2.3,0,0,0,131.56,84h0a2.28,2.28,0,0,0-1.37,2.93l21.14,57.74A2.29,2.29,0,0,0,154.26,146Z" fill="#eaa88e"/><rect x="130.42" y="34.34" width="4.58" height="111.83" rx="2.29" fill="#eaa88e"/><rect x="113.8" y="114.97" width="39" height="3.1" fill="#eaa88e"/><path d="M93.82,39.42c-4.53,6-9.29,18.29-5.65,27s10.18,10.65,13.7,0S109.92,51.35,120,45s2.76-12.86-6.54-12.5-18,6.16-18,6.16l-2.13-3.78-2,1.85Z" fill="#e2eaf2"/><rect x="104.28" y="48.54" width="56.86" height="66.43" rx="1.47" fill="#0d1019"/><path d="M121.14,61.12h0a8.81,8.81,0,0,1,8.81,8.81V99a0,0,0,0,1,0,0h-8.81a8.81,8.81,0,0,1-8.81-8.81V69.93A8.81,8.81,0,0,1,121.14,61.12Z" fill="#a365c9"/><path d="M150.91,90.15V99H142.1a8.81,8.81,0,1,1,8.81-8.8Z" fill="#eaa88e"/><circle cx="142.11" cy="69.34" r="8.81" fill="#e2eaf2"/><path d="M98.1,145.26H66.39s-6-6.54-3.69-14.92,7.89-2.52,7.22,1.51,3.85,6.2,3.69-1.35S70.08,111.8,77.8,110s7.55,7.59,4.87,15.14,1.34,8.55,3.18,5.2,3-8.39,9.56-7S103.47,135.37,98.1,145.26Z" fill="#a365c9"/><path d="M56.79,103.54c-.33,2.7,2.27,4.1,5.79,4.41s4.53.06,5.53-2.21,1.51-5,.63-7.17-3.14-1-3.65,1.3-1.25,2-1.25.59-1.14-2.78-2.9-1.89-2,2.55-.25,3.67.63,1.44-1,.65S56.92,102.51,56.79,103.54Z" fill="#a365c9"/><path d="M81,90.48c-2.76,1.29-2.52,4.58-.72,8.09s2.63,4.31,5.37,3.92,5.66-1.57,7.15-3.68-.88-3.59-3.4-2.67-2.61,0-1.3-.84,1.94-2.72.06-3.85-3.61-.39-3.61,1.94-1,1.45-1.21-.56S82.05,90,81,90.48Z" fill="#a365c9"/><path d="M67.16,78.15c-.52,2.38,1.68,3.83,4.78,4.4s4,.43,5.1-1.5,1.76-4.35,1.15-6.32-2.71-1.2-3.35.85-1.28,1.65-1.16.42-.78-2.56-2.42-1.92-2,2.1-.53,3.24.44,1.33-.94.49S67.36,77.25,67.16,78.15Z" fill="#a365c9"/><path d="M206.7,147.5H53.3a1,1,0,0,1,0-2H206.7a1,1,0,0,1,0,2Z" fill="#e2eaf2"/></svg>