<svg id="Layer_1" data-name="Layer 1" xmlns="http://www.w3.org/2000/svg" viewBox="0 0 260 180"><title>Flat Web Illustrations Pack - Scene 5</title><path d="M89,56.22c-.4,0-.8,0-1.19,0L88,54a11.13,11.13,0,0,0,2,0l.2,2.19A12.1,12.1,0,0,1,89,56.22Zm-3.56-.49a13.08,13.08,0,0,1-2.25-.87l1-2a12.45,12.45,0,0,0,1.87.72Zm7.14,0L92,53.6a10.26,10.26,0,0,0,1.86-.73l1,2A13.08,13.08,0,0,1,92.55,55.72ZM81.11,53.59A12.4,12.4,0,0,1,79.33,52L81,50.48a10.49,10.49,0,0,0,1.48,1.35Zm15.73,0-1.33-1.76A11.13,11.13,0,0,0,97,50.47L98.62,52A13.09,13.09,0,0,1,96.84,53.58Zm-19-3.53A13.05,13.05,0,0,1,76.8,47.9l2-.8a10.34,10.34,0,0,0,.9,1.79Zm22.2,0L98.2,48.87a11.05,11.05,0,0,0,.89-1.79l2.06.8A12.72,12.72,0,0,1,100.07,50ZM76.13,45.58a13.62,13.62,0,0,1-.22-2.39h2.2a12.2,12.2,0,0,0,.19,2Zm25.68,0-2.17-.41a11,11,0,0,0,.18-2l2.21,0v0A13.73,13.73,0,0,1,101.81,45.56ZM78.29,41.19l-2.17-.4a13.35,13.35,0,0,1,.66-2.32l2.06.79A10.88,10.88,0,0,0,78.29,41.19Zm21.34-.07a10.81,10.81,0,0,0-.56-1.92l2.06-.81a13.38,13.38,0,0,1,.67,2.32ZM79.72,37.47l-1.87-1.16a12.83,12.83,0,0,1,1.44-1.92l1.64,1.48A11,11,0,0,0,79.72,37.47Zm18.45-.06A10.93,10.93,0,0,0,97,35.82l1.63-1.49A12.81,12.81,0,0,1,100,36.24ZM82.4,34.52l-1.33-1.76a13.15,13.15,0,0,1,2-1.28l1,2A10.45,10.45,0,0,0,82.4,34.52Zm13.08,0a10.07,10.07,0,0,0-1.71-1l1-2a12.67,12.67,0,0,1,2,1.26ZM86,32.73l-.6-2.12a13.47,13.47,0,0,1,2.36-.45l.21,2.2A10.21,10.21,0,0,0,86,32.73Zm5.94,0a10.85,10.85,0,0,0-2-.36l.2-2.2a12.69,12.69,0,0,1,2.37.44Z" fill="#e2eaf2"/><path d="M146.55,112.31H115.74a5.48,5.48,0,0,1-4.74-2.73L95.59,82.89a5.5,5.5,0,0,1,0-5.47L111,50.73A5.49,5.49,0,0,1,115.74,48h30.81a5.5,5.5,0,0,1,4.75,2.74l15.4,26.69a5.46,5.46,0,0,1,0,5.47l-15.4,26.69A5.49,5.49,0,0,1,146.55,112.31ZM115.74,50a3.5,3.5,0,0,0-3,1.74L97.33,78.42a3.47,3.47,0,0,0,0,3.47l15.4,26.69a3.49,3.49,0,0,0,3,1.73h30.81a3.5,3.5,0,0,0,3-1.73L165,81.89a3.47,3.47,0,0,0,0-3.47l-15.4-26.69a3.51,3.51,0,0,0-3-1.74Z" fill="#e2eaf2"/><path d="M75.87,122.43H68.15a1.11,1.11,0,0,0-1,.56l-3.86,6.68a1.12,1.12,0,0,0,0,1.12l3.86,6.69a1.13,1.13,0,0,0,1,.56h7.72a1.13,1.13,0,0,0,1-.56l3.86-6.69a1.12,1.12,0,0,0,0-1.12L76.84,123A1.11,1.11,0,0,0,75.87,122.43Z" fill="#e2eaf2"/><path d="M96.68,92.93h-15A2.18,2.18,0,0,0,79.8,94l-7.5,13a2.18,2.18,0,0,0,0,2.18l7.5,13a2.19,2.19,0,0,0,1.89,1.09h15a2.16,2.16,0,0,0,1.88-1.09l7.5-13a2.18,2.18,0,0,0,0-2.18l-7.5-13A2.15,2.15,0,0,0,96.68,92.93Z" fill="#e2eaf2"/><path d="M176.77,52.11h-9.42a1.37,1.37,0,0,0-1.18.68L161.46,61a1.39,1.39,0,0,0,0,1.37l4.71,8.16a1.37,1.37,0,0,0,1.18.68h9.42a1.37,1.37,0,0,0,1.19-.68l4.71-8.16a1.39,1.39,0,0,0,0-1.37L178,52.79A1.37,1.37,0,0,0,176.77,52.11Z" fill="#e2eaf2"/><path d="M192.58,64.51H186a1,1,0,0,0-.83.48l-3.29,5.69a1,1,0,0,0,0,1l3.29,5.69a1,1,0,0,0,.83.48h6.57a1,1,0,0,0,.83-.48l3.29-5.69a1,1,0,0,0,0-1L193.41,65A1,1,0,0,0,192.58,64.51Z" fill="#e2eaf2"/><circle cx="88.97" cy="43.31" r="5.89" fill="#e2eaf2"/><path d="M134.53,66.73a.83.83,0,0,1-.34-.07.9.9,0,0,1-.5-1.17c1.32-3.28,2.8-6.55,5.16-7.48a4,4,0,0,1,3.22.18,3.25,3.25,0,0,1,2,2.72,2.83,2.83,0,0,1-1.19,2.59,3,3,0,0,1-3.12,0,.91.91,0,0,1-.39-1.22.89.89,0,0,1,1.21-.39,1.32,1.32,0,0,0,1.3.11,1,1,0,0,0,.39-.94,1.48,1.48,0,0,0-.91-1.22,2.18,2.18,0,0,0-1.8-.14c-1.69.67-3,3.69-4.14,6.47A.89.89,0,0,1,134.53,66.73Z" fill="#0d1019"/><path d="M127.2,66.73a.89.89,0,0,1-.84-.57c-1.12-2.78-2.45-5.81-4.14-6.47a2.18,2.18,0,0,0-1.8.14,1.48,1.48,0,0,0-.91,1.22,1,1,0,0,0,.39.94,1.32,1.32,0,0,0,1.3-.11.89.89,0,0,1,1.21.39.91.91,0,0,1-.39,1.22,3,3,0,0,1-3.12,0,2.83,2.83,0,0,1-1.19-2.59,3.25,3.25,0,0,1,2-2.72,4,4,0,0,1,3.22-.18c2.36.93,3.84,4.2,5.16,7.48a.9.9,0,0,1-.5,1.17A.83.83,0,0,1,127.2,66.73Z" fill="#0d1019"/><path d="M142.13,86.45c3.55,11.7-.26,28.47-11.22,28.47s-14.77-16.77-11.23-28.47c2.18-7.17,6.91-11.22,11.23-11.22S140,79.28,142.13,86.45Z" fill="#a365c9"/><path d="M118.6,99.11h24.62a28.34,28.34,0,0,1-.91,4.77H119.5A29.36,29.36,0,0,1,118.6,99.11Z" fill="#0a0d16"/><path d="M143.39,94.37h-25a34.06,34.06,0,0,1,.51-4.8h23.94A34.06,34.06,0,0,1,143.39,94.37Z" fill="#0a0d16"/><polygon points="135.84 108.73 130.91 121.11 125.98 108.73 135.84 108.73" fill="#a365c9"/><path d="M143.22,99.11a28.34,28.34,0,0,1-.91,4.77H119.5a29.36,29.36,0,0,1-.9-4.77Z" fill="#0d1019"/><path d="M143.38,94.37a31.59,31.59,0,0,0-1.25-7.92c-2.17-7.17-6.9-11.22-11.22-11.22s-9,4-11.23,11.22a31.14,31.14,0,0,0-1.24,7.92Z" fill="#0d1019"/><circle cx="130.91" cy="72.12" r="9.81" fill="#0d1019"/><path d="M122.42,78.84a5.61,5.61,0,0,1,1.9,2.06,3.84,3.84,0,0,1,.3,2.46c-.33,1.49-2.91,5-6.77,6.6-4.94,2.81-15.67,3.8-20.61,2.75-3.62-.78-5.83-2.53-6.42-4.23s.15-4,2.65-6.06c3.31-2.72,12.45-6.08,18.35-5.9A20.86,20.86,0,0,1,122.42,78.84Z" fill="#0d1019"/><path d="M104.13,83.44a15.58,15.58,0,0,0,8.24-.74h0a.44.44,0,0,1,.13,0,13.23,13.23,0,0,1,2.43-.8,11.62,11.62,0,0,1-5-3.76c.53,0,1,0,1.5,0l.68,0a9,9,0,0,0,3.27,2.25,12.67,12.67,0,0,0,5.45.37,3.33,3.33,0,0,1,.65.92,2.57,2.57,0,0,1,.23.66l-.14,0a5.61,5.61,0,0,0-3,1.68,5.3,5.3,0,0,0-1,4.22,9.42,9.42,0,0,1-1.34.69l-.49.24a7.88,7.88,0,0,1,.66-5.58,10.2,10.2,0,0,0-2.78.93h0l-.23.11s-.07,0-.11,0a6.1,6.1,0,0,0-1.48,1.11,6.59,6.59,0,0,0-1.72,5.08c-.84.16-1.7.27-2.53.37a8.81,8.81,0,0,1,1.19-5.38,15.59,15.59,0,0,1-5.17-.09A14.65,14.65,0,0,1,97,82.56a14,14,0,0,1,2.39-1.39A11.08,11.08,0,0,0,104.13,83.44Z" fill="#a365c9"/><path d="M139.88,78.84A5.53,5.53,0,0,0,138,80.9a3.77,3.77,0,0,0-.3,2.46c.33,1.49,2.91,5,6.77,6.6,4.94,2.81,15.67,3.8,20.6,2.75,3.63-.78,5.84-2.53,6.43-4.23s-.15-4-2.65-6.06c-3.31-2.72-12.45-6.08-18.35-5.9A20.86,20.86,0,0,0,139.88,78.84Z" fill="#0d1019"/><path d="M158.17,83.44a15.58,15.58,0,0,1-8.24-.74h-.05a.44.44,0,0,0-.13,0,13.23,13.23,0,0,0-2.43-.8,11.68,11.68,0,0,0,5-3.76c-.53,0-1,0-1.5,0l-.68,0a9,9,0,0,1-3.27,2.25,12.67,12.67,0,0,1-5.45.37,3.33,3.33,0,0,0-.65.92,2.57,2.57,0,0,0-.23.66l.14,0a5.61,5.61,0,0,1,3,1.68,5.3,5.3,0,0,1,1,4.22,9.42,9.42,0,0,0,1.34.69l.49.24a7.88,7.88,0,0,0-.66-5.58,10.2,10.2,0,0,1,2.78.93h0l.23.11s.07,0,.11,0a6.1,6.1,0,0,1,1.48,1.11,6.59,6.59,0,0,1,1.72,5.08c.84.16,1.7.27,2.53.37a8.81,8.81,0,0,0-1.19-5.38,15.59,15.59,0,0,0,5.17-.09,14.7,14.7,0,0,0,6.66-3.11,14.42,14.42,0,0,0-2.39-1.39A11.13,11.13,0,0,1,158.17,83.44Z" fill="#a365c9"/><path d="M163,147.38c-13.23,0-20.54-19.19-20.54-32.46a1,1,0,1,1,2,0c0,12.45,6.6,30.46,18.54,30.46a2.23,2.23,0,0,0,1.53-.62,1.76,1.76,0,0,0,.26-1.45,1.36,1.36,0,0,0-.74-1.15.77.77,0,0,0-.74.12.46.46,0,0,0-.11.52,1,1,0,0,1-1.95.46,2.44,2.44,0,0,1,.73-2.47,2.74,2.74,0,0,1,2.74-.51,3.26,3.26,0,0,1,2,2.72,3.64,3.64,0,0,1-.71,3.07A4.25,4.25,0,0,1,163,147.38Z" fill="#e2eaf2"/><path d="M143.93,149.85a4.86,4.86,0,0,1-2.05-.5l-.17-.12c-5.45-4.6-8.8-18.08-7.48-30a1,1,0,0,1,1.1-.89,1,1,0,0,1,.89,1.11c-1.23,11.12,1.83,24,6.68,28.22a2.24,2.24,0,0,0,1.57.13,1.77,1.77,0,0,0,.9-1.16,1.33,1.33,0,0,0-.11-1.36.75.75,0,0,0-.71-.25c-.11,0-.27.1-.35.41a1,1,0,0,1-1.93-.51,2.43,2.43,0,0,1,1.8-1.84,2.77,2.77,0,0,1,2.66.83,3.26,3.26,0,0,1,.53,3.36,3.64,3.64,0,0,1-2.06,2.38A3.51,3.51,0,0,1,143.93,149.85Z" fill="#e2eaf2"/><path d="M117.44,149.85a3.47,3.47,0,0,1-1.27-.24,3.65,3.65,0,0,1-2.07-2.38,3.29,3.29,0,0,1,.54-3.36,2.77,2.77,0,0,1,2.66-.83,2.45,2.45,0,0,1,1.8,1.84,1,1,0,1,1-1.93.51c-.08-.31-.24-.38-.35-.41a.75.75,0,0,0-.71.25,1.33,1.33,0,0,0-.11,1.36,1.77,1.77,0,0,0,.9,1.16,2.25,2.25,0,0,0,1.57-.13c4.85-4.23,7.91-17.1,6.68-28.22a1,1,0,0,1,.89-1.11,1,1,0,0,1,1.1.89c1.32,12-2,25.45-7.48,30l-.18.12A4.74,4.74,0,0,1,117.44,149.85Zm1.58-1.39h0Z" fill="#e2eaf2"/><path d="M99.32,147.38a4.26,4.26,0,0,1-3.06-1.31,3.64,3.64,0,0,1-.71-3.07,3.26,3.26,0,0,1,2-2.72,2.74,2.74,0,0,1,2.74.51,2.44,2.44,0,0,1,.73,2.47,1,1,0,0,1-1.2.74,1,1,0,0,1-.74-1.2.48.48,0,0,0-.12-.52.77.77,0,0,0-.74-.12,1.36,1.36,0,0,0-.74,1.15,1.79,1.79,0,0,0,.26,1.46,2.33,2.33,0,0,0,1.54.61c11.93,0,18.53-18,18.53-30.46a1,1,0,1,1,2,0C119.85,128.19,112.54,147.38,99.32,147.38Z" fill="#e2eaf2"/></svg>