<svg id="Layer_1" data-name="Layer 1" xmlns="http://www.w3.org/2000/svg" viewBox="0 0 260 180"><title>Flat Web Illustrations Pack - Scene 6</title><path d="M191.93,151.3H101.2a1,1,0,1,1,0-2h90.73a1,1,0,0,1,0,2Z" fill="#e2eaf2"/><path d="M148.24,50.5c9.39.25,20.08,3.54,26.33,16.46s5.48,20.51,13,35.2,14.07,22.25,14.07,22.25-7.88,9.94-18,14.48l-3.91-6.59s-.26,5.07,1.82,8.61c0,0-6,8.11-28.15,7.6H133.39a47.19,47.19,0,0,1-24-35.2C106,88,114.62,51.76,148.24,50.5Z" fill="#0a0d16"/><path d="M149.8,67.43c9.9,0,16.17,4.7,16.95,19s1,26.59-18.77,28.15v7.56s-7.3,4.17-16.16-1.3V97.94a7.74,7.74,0,0,1-5.73-7.36,5.19,5.19,0,0,1,1.27-4,3.06,3.06,0,0,1,4.2-.42S132.18,68.55,149.8,67.43Z" fill="#eaa88e"/><path d="M111.75,149.81h62.82s.52-22.94-26.59-27.63c0,0-5.73,2.61-16.16-1.3C131.82,120.88,113.31,123.23,111.75,149.81Z" fill="#e2eaf2"/><path d="M183.15,53.12a4.2,4.2,0,0,1,.16,2.66A4.63,4.63,0,0,1,180,59.1a3.23,3.23,0,0,1-2.74-.47c.48-1,.71-1.6,1-2.15a6,6,0,0,1,1-1.41A6.11,6.11,0,0,1,180.78,54,7.79,7.79,0,0,1,183.15,53.12Z" fill="#a365c9"/><path d="M123.21,98a4.33,4.33,0,0,1,.59,2.6,4.62,4.62,0,0,1-.8,2.21,4.48,4.48,0,0,1-1.91,1.59,3.21,3.21,0,0,1-2.79,0c.32-1,.45-1.69.65-2.27a6,6,0,0,1,.76-1.56A6.5,6.5,0,0,1,121,99.17,7.7,7.7,0,0,1,123.21,98Z" fill="#a365c9"/><path d="M114.35,120.6a4.33,4.33,0,0,1,.59,2.6,4.62,4.62,0,0,1-.8,2.22,4.48,4.48,0,0,1-1.91,1.59,3.21,3.21,0,0,1-2.79,0c.32-1,.45-1.69.65-2.28a5.89,5.89,0,0,1,.76-1.55,6.26,6.26,0,0,1,1.29-1.35A8.25,8.25,0,0,1,114.35,120.6Z" fill="#a365c9"/><path d="M98.38,118.22a4.27,4.27,0,0,1,.6,2.6,4.62,4.62,0,0,1-.8,2.22,4.48,4.48,0,0,1-1.91,1.59,3.21,3.21,0,0,1-2.79,0c.32-1,.45-1.69.65-2.28a5.8,5.8,0,0,1,.76-1.56,6.21,6.21,0,0,1,1.29-1.34A8,8,0,0,1,98.38,118.22Z" fill="#a365c9"/><path d="M87.09,119.7a4.33,4.33,0,0,1,2.6-.59,4.66,4.66,0,0,1,2.22.8,4.55,4.55,0,0,1,1.59,1.91,3.21,3.21,0,0,1,0,2.79c-1-.32-1.69-.45-2.28-.65a6.11,6.11,0,0,1-1.56-.76,6.22,6.22,0,0,1-1.34-1.29A7.69,7.69,0,0,1,87.09,119.7Z" fill="#a365c9"/><path d="M88.57,131a4.36,4.36,0,0,1-.59-2.6,4.62,4.62,0,0,1,.8-2.22,4.48,4.48,0,0,1,1.91-1.59,3.21,3.21,0,0,1,2.79,0c-.32,1-.45,1.69-.65,2.28a6,6,0,0,1-.76,1.55,6.5,6.5,0,0,1-1.29,1.35A8.25,8.25,0,0,1,88.57,131Z" fill="#a365c9"/><path d="M99.86,129.52a4.33,4.33,0,0,1-2.6.59,4.62,4.62,0,0,1-2.21-.8,4.57,4.57,0,0,1-1.6-1.91,3.25,3.25,0,0,1,0-2.79c1,.32,1.69.45,2.27.65a5.66,5.66,0,0,1,1.56.76,6.25,6.25,0,0,1,1.35,1.29A7.7,7.7,0,0,1,99.86,129.52Z" fill="#a365c9"/><path d="M91.8,131.86a7.34,7.34,0,0,1,1.66,1.63,5.64,5.64,0,0,1,.8,1.53,5.45,5.45,0,0,1,.28,1.58c0,.58,0,1.19,0,2.19a3,3,0,0,1-2.49-.69A4.26,4.26,0,0,1,90.62,134,3.9,3.9,0,0,1,91.8,131.86Z" fill="#a365c9"/><path d="M101.47,136.05a7.14,7.14,0,0,1-1.63,1.66,5.5,5.5,0,0,1-1.53.8,5.39,5.39,0,0,1-1.58.28c-.57,0-1.18,0-2.19,0a3,3,0,0,1,.69-2.48,4.24,4.24,0,0,1,4.08-1.44A3.84,3.84,0,0,1,101.47,136.05Z" fill="#a365c9"/><path d="M97.28,145.73a7.57,7.57,0,0,1-1.66-1.64,6.09,6.09,0,0,1-.8-1.53,5.39,5.39,0,0,1-.28-1.58c0-.57,0-1.18,0-2.19a3,3,0,0,1,2.49.69,4.2,4.2,0,0,1,1.29,1.9,4.37,4.37,0,0,1,.15,2.18A4,4,0,0,1,97.28,145.73Z" fill="#a365c9"/><path d="M87.61,141.53a7.56,7.56,0,0,1,1.63-1.66,6.26,6.26,0,0,1,1.53-.8,5.45,5.45,0,0,1,1.58-.28c.58,0,1.19,0,2.19,0a3,3,0,0,1-.69,2.49,4.15,4.15,0,0,1-1.9,1.29,4.24,4.24,0,0,1-2.18.15A4,4,0,0,1,87.61,141.53Z" fill="#a365c9"/><path d="M111.2,129.2a5.48,5.48,0,0,1-.13,1.62,4.16,4.16,0,0,1-.46,1.11,3.87,3.87,0,0,1-.72.86c-.3.27-.65.52-1.18,1a2.06,2.06,0,0,1-.74-1.64,2.92,2.92,0,0,1,.44-1.54,3,3,0,0,1,1.1-1.06A2.8,2.8,0,0,1,111.2,129.2Z" fill="#a365c9"/><path d="M113.28,136.25a4.88,4.88,0,0,1-1.62-.13,4.16,4.16,0,0,1-1.11-.46,3.39,3.39,0,0,1-.85-.72c-.28-.29-.52-.64-1-1.17a2.08,2.08,0,0,1,1.64-.74,2.89,2.89,0,0,1,1.55.44,3,3,0,0,1,1,1.09A2.69,2.69,0,0,1,113.28,136.25Z" fill="#a365c9"/><path d="M106.23,138.34a5.48,5.48,0,0,1,.13-1.62,4.16,4.16,0,0,1,.46-1.11,3.87,3.87,0,0,1,.72-.86c.3-.27.64-.52,1.17-1a2,2,0,0,1,.75,1.64A2.92,2.92,0,0,1,109,137a3,3,0,0,1-1.1,1.06A2.8,2.8,0,0,1,106.23,138.34Z" fill="#a365c9"/><path d="M104.15,131.29a4.88,4.88,0,0,1,1.62.13,4.16,4.16,0,0,1,1.11.46,3.62,3.62,0,0,1,.85.72c.28.29.52.64,1,1.17a2.06,2.06,0,0,1-1.63.74,2.94,2.94,0,0,1-2.6-1.53A2.69,2.69,0,0,1,104.15,131.29Z" fill="#a365c9"/><path d="M128.28,73.07a4.22,4.22,0,0,1-.73,2.56,4.62,4.62,0,0,1-4.2,2.05,3.24,3.24,0,0,1-2.44-1.36c.78-.76,1.2-1.27,1.66-1.69a5.91,5.91,0,0,1,1.42-1,6.24,6.24,0,0,1,1.77-.56A8.1,8.1,0,0,1,128.28,73.07Z" fill="#a365c9"/><path d="M102.15,114.8a4.23,4.23,0,0,1-1.17-2.39,4.54,4.54,0,0,1,.27-2.34,4.62,4.62,0,0,1,1.49-2,3.23,3.23,0,0,1,2.72-.62c-.07,1.09,0,1.75-.11,2.37a5.79,5.79,0,0,1-.38,1.69,6.59,6.59,0,0,1-.94,1.61A8.22,8.22,0,0,1,102.15,114.8Z" fill="#a365c9"/><path d="M137,52.28a4.25,4.25,0,0,1,1.26,2.35,4.58,4.58,0,0,1-.18,2.35,4.47,4.47,0,0,1-1.41,2,3.2,3.2,0,0,1-2.7.72c0-1.08,0-1.74,0-2.36a6,6,0,0,1,.32-1.71,6.59,6.59,0,0,1,.88-1.64A8,8,0,0,1,137,52.28Z" fill="#a365c9"/><path d="M190,66.93a4.24,4.24,0,0,1-.19,2.66,4.58,4.58,0,0,1-1.41,1.89,4.47,4.47,0,0,1-2.29,1,3.19,3.19,0,0,1-2.66-.83c.61-.9.92-1.48,1.28-2a6.24,6.24,0,0,1,1.18-1.27,6.58,6.58,0,0,1,1.62-.91A8.1,8.1,0,0,1,190,66.93Z" fill="#a365c9"/><path d="M180.79,84.08a2.85,2.85,0,0,1,.39,2.29A3,3,0,0,1,180.05,88a3,3,0,0,1-2,.6A2.72,2.72,0,0,1,176,87.5c.44-.89.72-1.37,1-1.8a2.81,2.81,0,0,1,.71-.87,3,3,0,0,1,1.09-.44A16.91,16.91,0,0,1,180.79,84.08Z" fill="#a365c9"/><path d="M168.82,107.49a2.87,2.87,0,0,1,1.3-1.92,3,3,0,0,1,2-.42,3,3,0,0,1,1.85.95,2.72,2.72,0,0,1,.69,2.23c-.94.34-1.47.5-1.94.65a2.88,2.88,0,0,1-1.11.13,3.18,3.18,0,0,1-1.09-.43A17.5,17.5,0,0,1,168.82,107.49Z" fill="#a365c9"/><path d="M99.1,61.56a5.45,5.45,0,1,1,5.45-5.44A5.45,5.45,0,0,1,99.1,61.56Zm0-9.12a3.68,3.68,0,1,0,3.68,3.68A3.68,3.68,0,0,0,99.1,52.44Z" fill="#e2eaf2"/><path d="M105.25,68.55a5.45,5.45,0,1,1,5.45-5.44A5.45,5.45,0,0,1,105.25,68.55Zm0-9.12a3.68,3.68,0,1,0,3.68,3.68A3.68,3.68,0,0,0,105.25,59.43Z" fill="#e2eaf2"/><path d="M107.56,59.43a4.78,4.78,0,1,1,4.78-4.78A4.79,4.79,0,0,1,107.56,59.43Zm0-7.79a3,3,0,1,0,3,3A3,3,0,0,0,107.56,51.64Z" fill="#e2eaf2"/><path d="M113.71,65.31a4.78,4.78,0,1,1,4.78-4.78A4.78,4.78,0,0,1,113.71,65.31Zm0-7.79a3,3,0,1,0,3,3A3,3,0,0,0,113.71,57.52Z" fill="#e2eaf2"/><path d="M96.8,69.2a4.78,4.78,0,1,1,4.77-4.78A4.78,4.78,0,0,1,96.8,69.2Zm0-7.78a3,3,0,1,0,3,3A3,3,0,0,0,96.8,61.42Z" fill="#e2eaf2"/><path d="M168.81,39.6a5.45,5.45,0,1,1,4.85-3A5.44,5.44,0,0,1,168.81,39.6Zm0-9.13a3.68,3.68,0,1,0,3.26,5.37h0a3.69,3.69,0,0,0-3.26-5.37Z" fill="#e2eaf2"/><path d="M171.07,48.63a5.45,5.45,0,1,1,4.85-3h0A5.45,5.45,0,0,1,171.07,48.63Zm0-9.12a3.65,3.65,0,0,0-3.27,2,3.68,3.68,0,0,0,4.39,5.19,3.72,3.72,0,0,0,2.15-1.82h0a3.67,3.67,0,0,0-1.59-4.95A3.54,3.54,0,0,0,171.08,39.51Zm4,5.77h0Z" fill="#e2eaf2"/><path d="M177,41.51a4.79,4.79,0,0,1-4.55-3.33,4.8,4.8,0,0,1,.31-3.64,4.79,4.79,0,0,1,6.44-2.06,4.8,4.8,0,0,1,2.06,6.44h0A4.79,4.79,0,0,1,177,41.51Zm0-7.79a3.26,3.26,0,0,0-.92.14,3,3,0,1,0,3.59,4.25h0a3,3,0,0,0-1.29-4A2.91,2.91,0,0,0,177,33.72Zm3.46,4.8h0Z" fill="#e2eaf2"/><path d="M151.48,46.65a3.42,3.42,0,0,1-1.58-.39,3.46,3.46,0,1,1,4.66-1.49h0a3.42,3.42,0,0,1-2,1.71A3.51,3.51,0,0,1,151.48,46.65Zm0-5.15a1.67,1.67,0,0,0-1.5.91,1.7,1.7,0,0,0,.72,2.28,1.75,1.75,0,0,0,1.29.11,1.71,1.71,0,0,0,1-.84h0a1.69,1.69,0,0,0-.73-2.28A1.77,1.77,0,0,0,151.49,41.5Z" fill="#e2eaf2"/><path d="M179.77,49.56A4.78,4.78,0,1,1,184,47h0A4.79,4.79,0,0,1,179.77,49.56Zm0-7.79a3,3,0,1,0,1.37.33A3.07,3.07,0,0,0,179.78,41.77Zm3.45,4.79h0Z" fill="#e2eaf2"/><path d="M163,45.26a4.71,4.71,0,0,1-2.18-.53,4.78,4.78,0,1,1,6.44-2.06h0A4.81,4.81,0,0,1,163,45.26Zm0-7.79a3,3,0,1,0,1.38.33A3.08,3.08,0,0,0,163,37.47Zm3.46,4.79h0Z" fill="#e2eaf2"/><path d="M93.46,101.59a9.15,9.15,0,0,1-5.53-1.69,8.21,8.21,0,0,1-3-6.14c-.78-8.81,7.72-10.11,7.81-10.12a.83.83,0,0,1,.66.17.88.88,0,0,1,.34.59l2,16.09a.88.88,0,0,1-.73,1A9.36,9.36,0,0,1,93.46,101.59Zm-1.36-16a7.16,7.16,0,0,0-5.42,8A6.58,6.58,0,0,0,89,98.49a7.78,7.78,0,0,0,4.89,1.32Z" fill="#e2eaf2"/><path d="M70.25,107.87c-6.84,0-10.14-3.24-10.3-3.41a.89.89,0,0,1-.25-.48l-1.37-8.7a.93.93,0,0,1,.11-.59c6.54-11,16.28-10.58,23-9.34a40.84,40.84,0,0,0,6.47.77.89.89,0,0,1,0,1.78h0a46.75,46.75,0,0,1-6.75-.81c-6.71-1.23-15.13-1.39-21,8.23l1.27,8.07c1,.81,5.26,3.92,13.56,2.19a33,33,0,0,0,11.27-4.35,27,27,0,0,1,3.67-1.89.88.88,0,0,1,.66,1.64,27.58,27.58,0,0,0-3.45,1.78,34.71,34.71,0,0,1-11.79,4.56A24.83,24.83,0,0,1,70.25,107.87Z" fill="#e2eaf2"/><path d="M79.11,131a6.38,6.38,0,0,1-1.65-.21,1,1,0,0,1-.38-.23c-5.49-5.72-7.24-18.31-7.74-23.46a.88.88,0,1,1,1.76-.17c1,10.32,3.58,18.39,7.09,22.21a4.29,4.29,0,0,0,3.18-.56l.08,0a4.56,4.56,0,0,0,1.23-1.34,26.43,26.43,0,0,0-1.18-8.6,9.52,9.52,0,0,0-.6-1.44,17.39,17.39,0,0,0-1.09-1.75c-1.38-2-2.8-4.12-1.75-10a.89.89,0,0,1,1.75.31c-.93,5.2.18,6.84,1.47,8.72a18.07,18.07,0,0,1,1.19,1.94,12,12,0,0,1,.72,1.7,27.55,27.55,0,0,1,1.24,9.48,1,1,0,0,1-.11.37,6.07,6.07,0,0,1-2,2.16l-.08,0A5.81,5.81,0,0,1,79.11,131Z" fill="#e2eaf2"/><path d="M81.87,130.17a.85.85,0,0,1-.23,0c-2.77-.71-4-5.17-5-9.11l-.24-.86c-.35-1.28-.69-3.1.39-4.16s3.28-.71,5.2-.14a.88.88,0,1,1-.5,1.69c-2.6-.77-3.28-.46-3.46-.29s-.42.6.08,2.42l.24.88c.8,2.94,2,7.38,3.76,7.85a.89.89,0,0,1-.19,1.75Z" fill="#e2eaf2"/><path d="M98.59,89.23A7.52,7.52,0,0,1,96,88.75l-.16,0A.88.88,0,0,1,96.41,87l.17,0a5.62,5.62,0,0,0,3.15.29,5.69,5.69,0,0,0,2.87-1.28,7.33,7.33,0,0,1,3.63-1.61,7.72,7.72,0,0,1,2.28-.07.88.88,0,1,1-.23,1.75,6.23,6.23,0,0,0-1.75.07,5.61,5.61,0,0,0-2.87,1.28A7.46,7.46,0,0,1,100,89.1,8.7,8.7,0,0,1,98.59,89.23Z" fill="#e2eaf2"/><path d="M99.45,94.36a7.52,7.52,0,0,1-2.56-.48l-.16,0a.89.89,0,0,1,.54-1.69l.17.06a6.3,6.3,0,0,0,6-1,7.33,7.33,0,0,1,3.63-1.61,7.74,7.74,0,0,1,2.28-.08.89.89,0,0,1-.23,1.76,6.51,6.51,0,0,0-4.62,1.34,7.37,7.37,0,0,1-3.64,1.61A8.7,8.7,0,0,1,99.45,94.36Z" fill="#e2eaf2"/><path d="M100.31,99.49A7.75,7.75,0,0,1,97.75,99L97.59,99a.88.88,0,1,1,.55-1.68l.16,0a5.62,5.62,0,0,0,3.15.29,5.69,5.69,0,0,0,2.87-1.28A7.41,7.41,0,0,1,108,94.73a7.72,7.72,0,0,1,2.28-.07.89.89,0,0,1,.77,1,.9.9,0,0,1-1,.77,5.85,5.85,0,0,0-1.75.06,5.69,5.69,0,0,0-2.87,1.28,7.46,7.46,0,0,1-3.64,1.61A8.6,8.6,0,0,1,100.31,99.49Z" fill="#e2eaf2"/><path d="M146.56,73s-.82,7.57,3.24,10.66h12a18.69,18.69,0,0,1,0-4.4s1.82,3.36,3.3,4.4h3.67s1.62-15.08-10.64-18.44c-13.2-3.63-21.79-.21-25.49,6.62s-1.13,14.4-1.13,14.4l13.26-2.58A14.62,14.62,0,0,1,146.56,73Z" fill="#0a0d16"/></svg>