<svg id="Layer_1" data-name="Layer 1" xmlns="http://www.w3.org/2000/svg" viewBox="0 0 260 180"><title>Flat Web Illustrations Pack - Scene 7</title><path d="M178.11,54a24.16,24.16,0,0,0-42.63-12.11,35.16,35.16,0,0,0-46,52.49v.32A14,14,0,0,0,112,105.93a13,13,0,0,0,1.25-1.09c.44.44.91.86,1.39,1.26,0,0,0,0,0,0a22.2,22.2,0,0,0,29.87-1.48h0A30.59,30.59,0,1,0,178.11,54Z" fill="#0d1019"/><circle cx="148.44" cy="82.17" r="7.01" fill="#a365c9"/><path d="M140.31,84.69a18.65,18.65,0,0,0-2.53,4.53,1.56,1.56,0,0,0-.06.91c.06.11.13.1.42.13a6.16,6.16,0,0,0,2.18-.53,29.68,29.68,0,0,0,4.53-2.37c1.47-.9,2.92-1.87,4.31-2.92s2.78-2.09,4.1-3.22A43.65,43.65,0,0,0,157,77.67a16.85,16.85,0,0,0,1.57-2,5.38,5.38,0,0,0,.53-1,1,1,0,0,0,0-.67c0-.14-.4-.29-.78-.31a6.7,6.7,0,0,0-1.25.06,20.72,20.72,0,0,0-2.59.56A13.75,13.75,0,0,1,157,73.12a5.68,5.68,0,0,1,1.39-.36,2.13,2.13,0,0,1,1.7.43,2.1,2.1,0,0,1,.45,1.86A6,6,0,0,1,160,76.5a15,15,0,0,1-1.49,2.41,38.91,38.91,0,0,1-7.89,7.55,33.53,33.53,0,0,1-9.71,5.12,7,7,0,0,1-3.05.29,1.58,1.58,0,0,1-.46-.14,1.73,1.73,0,0,1-.47-.27,1.57,1.57,0,0,1-.61-1,2.72,2.72,0,0,1,.3-1.7A13.55,13.55,0,0,1,140.31,84.69Z" fill="#eaa88e"/><circle cx="104.97" cy="54.21" r="4.11" fill="#a365c9"/><circle cx="111.54" cy="46.81" r="2.05" fill="#e2eaf2"/><circle cx="92.85" cy="82.34" r="2.05" fill="#e2eaf2"/><circle cx="113.6" cy="100.86" r="2.05" fill="#e2eaf2"/><circle cx="112.29" cy="74.98" r="0.75" fill="#e2eaf2"/><circle cx="86.93" cy="74.24" r="0.75" fill="#e2eaf2"/><circle cx="149.12" cy="55.71" r="1.5" fill="#e2eaf2"/><circle cx="170.71" cy="91.94" r="0.75" fill="#e2eaf2"/><circle cx="179.36" cy="96.19" r="1.5" fill="#e2eaf2"/><polygon points="179.36 78.44 180.11 80.54 182.12 79.58 181.17 81.6 183.26 82.34 181.17 83.09 182.12 85.1 180.11 84.15 179.36 86.25 178.62 84.15 176.6 85.1 177.56 83.09 175.46 82.34 177.56 81.6 176.6 79.58 178.62 80.54 179.36 78.44" fill="#a365c9"/><path d="M132.28,69.9h0a.44.44,0,0,1-.28.41,3.38,3.38,0,0,0-2,2,.44.44,0,0,1-.41.28h0a.44.44,0,0,1-.41-.28,3.39,3.39,0,0,0-2-2,.45.45,0,0,1-.29-.41h0a.45.45,0,0,1,.29-.41,3.4,3.4,0,0,0,2-1.95.45.45,0,0,1,.41-.29h0a.45.45,0,0,1,.41.29,3.39,3.39,0,0,0,2,1.95A.44.44,0,0,1,132.28,69.9Z" fill="#e2eaf2"/><circle cx="163.26" cy="58.45" r="3.79" fill="#e2eaf2"/><path d="M197.72,146.91H67.05a4.76,4.76,0,0,1-4.77-4.76V130.48a4.76,4.76,0,0,1,4.77-4.76H197.72v2.78h-6.67v15.58h6.67Z" fill="#a365c9"/><path d="M141.68,127.56h49.39a0,0,0,0,1,0,0v17.51a0,0,0,0,1,0,0H141.68a3.84,3.84,0,0,1-3.84-3.84V131.4a3.84,3.84,0,0,1,3.84-3.84Z" fill="#e2eaf2"/><path d="M81.36,146.91H74.89a4.76,4.76,0,0,1-4.76-4.76V130.48a4.76,4.76,0,0,1,4.76-4.76h6.47a4.76,4.76,0,0,0-4.76,4.76v11.67A4.76,4.76,0,0,0,81.36,146.91Z" fill="#0a0d16"/><path d="M128.77,146.91H122.3a4.76,4.76,0,0,1-4.76-4.76V130.48a4.76,4.76,0,0,1,4.76-4.76h6.47a4.76,4.76,0,0,0-4.76,4.76v11.67A4.76,4.76,0,0,0,128.77,146.91Z" fill="#0a0d16"/><path d="M191.05,125.72H88.46a12.41,12.41,0,0,1-12.41-12.41h0A12.41,12.41,0,0,1,88.46,100.9H191.05v3.26h-7.76v18.25h7.76Z" fill="#a365c9"/><path d="M108.46,125.72H99.34a12.41,12.41,0,0,1,0-24.82h9.12a12.41,12.41,0,0,0,0,24.82Z" fill="#0a0d16"/><path d="M131.19,103.06h52.08a0,0,0,0,1,0,0v20.51a0,0,0,0,1,0,0H131.19a10.26,10.26,0,0,1-10.26-10.26v0a10.26,10.26,0,0,1,10.26-10.26Z" fill="#e2eaf2"/><path d="M93.74,114.53h0a.25.25,0,0,0-.14.33h0a.71.71,0,0,1-.14.79h0a.69.69,0,0,1-.78.14h0a.24.24,0,0,0-.33.13v0a.7.7,0,0,1-.65.46h0A.7.7,0,0,1,91,116v0a.23.23,0,0,0-.32-.13h0a.7.7,0,0,1-.79-.14l0,0a.67.67,0,0,1-.13-.78h0a.25.25,0,0,0-.14-.33h0a.69.69,0,0,1-.46-.65v0a.69.69,0,0,1,.46-.66h0a.24.24,0,0,0,.14-.32h0a.68.68,0,0,1,.13-.79l0,0a.7.7,0,0,1,.79-.13h0a.23.23,0,0,0,.32-.14v0a.69.69,0,0,1,.65-.46h0a.69.69,0,0,1,.65.46v0a.24.24,0,0,0,.33.14h0a.68.68,0,0,1,.78.13l0,0a.7.7,0,0,1,.14.79h0a.23.23,0,0,0,.13.32h0a.69.69,0,0,1,.46.66v0A.69.69,0,0,1,93.74,114.53Z" fill="#a365c9"/><polygon points="141.43 120.31 137.49 116.5 133.55 120.31 133.55 107.52 141.43 107.52 141.43 120.31" fill="#a365c9"/></svg>