<svg id="Layer_1" data-name="Layer 1" xmlns="http://www.w3.org/2000/svg" viewBox="0 0 260 180"><title>Flat Web Illustrations Pack - Scene 8</title><path d="M213.33,46.5l-6.21-6.22L200.9,46.5a.83.83,0,0,0,.59,1.41H205v5.45h4.3V47.91h3.48A.82.82,0,0,0,213.33,46.5Z" fill="#a365c9"/><path d="M213.33,76.52l-6.21-6.22-6.22,6.22a.83.83,0,0,0,.59,1.41H205v5.45h4.3V77.93h3.48A.82.82,0,0,0,213.33,76.52Z" fill="#a365c9"/><path d="M197.92,59.89l-6.22-6.21-6.21,6.21a.83.83,0,0,0,.58,1.41h3.48v5.45h4.3V61.3h3.48A.83.83,0,0,0,197.92,59.89Z" fill="#a365c9"/><path d="M43.2,79.48c4.65-4.77,10.44.54,14,5.76s4.25,7.83,8.49,6.85-1.31-5.22-1.31-9S70.6,74.47,74.51,81s4.24,10,6.2,8.72,0-5.35,2.29-8.18S93.11,76,92.78,89.25s8.48,33.17-4.57,41.49-26.09,1.15-33.27-7-9.13-13.37-5.87-15.66,8.15,3.92,10.44,0S54,101.33,47.76,96.55,38.63,84.15,43.2,79.48Z" fill="#0d1019"/><path d="M169.12,85.78c8.9-10.21,15-15.66,18.26-11.69s1.63,6.25-4.56,11.15-3.27,5.71,1.63,3.67,10.79-.19,4.58,6.55-14.94,11.42-8.62,11.53,8.6.43,6.32,5-6.52,8.56-17.61,11.78S147.59,110.47,169.12,85.78Z" fill="#0d1019"/><rect x="85.28" y="68.53" width="91.34" height="71.19" fill="#e2eaf2"/><rect x="83" y="62.4" width="95.91" height="11.69" fill="#a365c9"/><path d="M92.78,52h6.85a0,0,0,0,1,0,0V61.4a6.85,6.85,0,0,1-6.85,6.85h0a0,0,0,0,1,0,0V52A0,0,0,0,1,92.78,52Z" fill="#e2eaf2"/><path d="M102.89,52h6.85a0,0,0,0,1,0,0V61.4a6.85,6.85,0,0,1-6.85,6.85h0a0,0,0,0,1,0,0V52A0,0,0,0,1,102.89,52Z" fill="#e2eaf2"/><path d="M152.15,52H159a0,0,0,0,1,0,0V61.4a6.85,6.85,0,0,1-6.85,6.85h0a0,0,0,0,1,0,0V52A0,0,0,0,1,152.15,52Z" fill="#e2eaf2"/><path d="M162.26,52h6.85a0,0,0,0,1,0,0V61.4a6.85,6.85,0,0,1-6.85,6.85h0a0,0,0,0,1,0,0V52A0,0,0,0,1,162.26,52Z" fill="#e2eaf2"/><rect x="102.89" y="79.76" width="7.88" height="7.88" fill="#fafafa"/><rect x="115.29" y="79.76" width="7.88" height="7.88" fill="#fafafa"/><rect x="127.69" y="79.76" width="7.88" height="7.88" fill="#fafafa"/><rect x="140.08" y="79.76" width="7.88" height="7.88" fill="#fafafa"/><rect x="152.48" y="79.76" width="7.88" height="7.88" fill="#fafafa"/><rect x="164.87" y="79.76" width="7.88" height="7.88" fill="#fafafa"/><rect x="90.5" y="91.8" width="7.88" height="7.88" fill="#fafafa"/><rect x="102.89" y="91.8" width="7.88" height="7.88" fill="#fafafa"/><rect x="115.29" y="91.8" width="7.88" height="7.88" fill="#a365c9"/><rect x="127.69" y="91.8" width="7.88" height="7.88" fill="#fafafa"/><rect x="140.08" y="91.8" width="7.88" height="7.88" fill="#fafafa"/><rect x="152.48" y="91.8" width="7.88" height="7.88" fill="#fafafa"/><rect x="164.87" y="91.8" width="7.88" height="7.88" fill="#fafafa"/><rect x="90.5" y="103.85" width="7.88" height="7.88" fill="#fafafa"/><rect x="102.89" y="103.85" width="7.88" height="7.88" fill="#fafafa"/><rect x="115.29" y="103.85" width="7.88" height="7.88" fill="#fafafa"/><rect x="127.69" y="103.85" width="7.88" height="7.88" fill="#fafafa"/><rect x="140.08" y="103.85" width="7.88" height="7.88" fill="#fafafa"/><rect x="152.48" y="103.85" width="7.88" height="7.88" fill="#fafafa"/><rect x="164.87" y="103.85" width="7.88" height="7.88" fill="#fafafa"/><rect x="90.5" y="115.89" width="7.88" height="7.88" fill="#fafafa"/><rect x="102.89" y="115.89" width="7.88" height="7.88" fill="#fafafa"/><rect x="115.29" y="115.89" width="7.88" height="7.88" fill="#fafafa"/><rect x="127.69" y="115.89" width="7.88" height="7.88" fill="#fafafa"/><rect x="140.08" y="115.89" width="7.88" height="7.88" fill="#fafafa"/><rect x="152.48" y="115.89" width="7.88" height="7.88" fill="#fafafa"/><rect x="164.87" y="115.89" width="7.88" height="7.88" fill="#fafafa"/><rect x="90.5" y="127.93" width="7.88" height="7.88" fill="#fafafa"/><rect x="102.89" y="127.93" width="7.88" height="7.88" fill="#fafafa"/><rect x="115.29" y="127.93" width="7.88" height="7.88" fill="#fafafa"/><rect x="127.69" y="127.93" width="7.88" height="7.88" fill="#fafafa"/><circle cx="204.35" cy="105.71" r="14.68" fill="#0d1019"/><circle cx="204.35" cy="105.71" r="10.38" fill="#fafafa"/><path d="M208.33,111.12a.68.68,0,0,1-.49-.22L203.49,106a.64.64,0,0,1-.17-.44V99.35a.66.66,0,0,1,1.32,0v5.93l4.19,4.74a.66.66,0,0,1-.06.93A.67.67,0,0,1,208.33,111.12Z" fill="#a365c9"/></svg>