<svg id="Layer_1" data-name="Layer 1" xmlns="http://www.w3.org/2000/svg" viewBox="0 0 260 180"><title>Flat Web Illustrations Pack - Scene 9</title><path d="M119.52,49.87a1.71,1.71,0,0,1-1.09-.39,10,10,0,0,0-2.44-1.4,9.1,9.1,0,0,0-5-.68,13.46,13.46,0,0,1-12-5l-.17-.21A1.73,1.73,0,0,1,101.52,40l.18.22a10,10,0,0,0,9,3.75,12.36,12.36,0,0,1,6.58.94,12.91,12.91,0,0,1,3.31,1.91,1.72,1.72,0,0,1,.24,2.43A1.69,1.69,0,0,1,119.52,49.87Z" fill="#e2eaf2"/><path d="M116.26,57.76a1.73,1.73,0,0,1-1.09-.39A9.41,9.41,0,0,0,112.74,56a9,9,0,0,0-5-.69,13.45,13.45,0,0,1-12-5l-.18-.21a1.73,1.73,0,0,1,2.64-2.23l.18.22a9,9,0,0,0,4,3.06,9.12,9.12,0,0,0,5,.69,12.39,12.39,0,0,1,6.59.94,12.91,12.91,0,0,1,3.31,1.91,1.73,1.73,0,0,1-1.1,3.06Z" fill="#e2eaf2"/><path d="M113,65.67a1.73,1.73,0,0,1-1.09-.39,9.42,9.42,0,0,0-2.43-1.4,9.14,9.14,0,0,0-5-.69,12.44,12.44,0,0,1-6.58-.93,12.3,12.3,0,0,1-5.37-4L92.36,58A1.72,1.72,0,1,1,95,55.79l.18.22a10,10,0,0,0,9,3.74,12.39,12.39,0,0,1,6.59.94,12.64,12.64,0,0,1,3.31,1.92,1.73,1.73,0,0,1,.24,2.43A1.75,1.75,0,0,1,113,65.67Z" fill="#e2eaf2"/><path d="M203.86,62.71l-20.46-.59a.69.69,0,0,1-.65-1.08l12.83-18.41a.69.69,0,0,1,1.24.23l7.64,19A.69.69,0,0,1,203.86,62.71Z" fill="#e2eaf2"/><path d="M199.08,61.91s-9.55-11.35-27.57-10.46S142.69,62.8,137.85,83.94l-5.73-13.73-14.3,8.39s8.29-27.15,34.77-35.27,46.49,13.24,46.49,13.24Z" fill="#e2eaf2"/><path d="M52.85,119.39l20.46.59a.7.7,0,0,1,.64,1.09l-12.82,18.4a.69.69,0,0,1-1.24-.23l-7.64-19A.7.7,0,0,1,52.85,119.39Z" fill="#e2eaf2"/><path d="M57.62,120.2s9.55,11.34,27.58,10.45S114,119.31,118.85,98.17l5.73,13.72,14.3-8.38s-8.29,27.15-34.77,35.27-46.49-13.24-46.49-13.24Z" fill="#e2eaf2"/><rect x="80.72" y="60.02" width="95.13" height="63.75" rx="3.45" fill="#a365c9"/><rect x="147.35" y="66.36" width="17.82" height="4.34" fill="#0d1019"/><rect x="150.59" y="89.72" width="14.57" height="4.34" fill="#fafafa"/><rect x="130.56" y="89.72" width="14.57" height="4.34" fill="#fafafa"/><rect x="110.54" y="89.72" width="14.57" height="4.34" fill="#fafafa"/><rect x="90.51" y="89.72" width="14.57" height="4.34" fill="#fafafa"/><rect x="89.73" y="113.09" width="9.57" height="4.34" fill="#0d1019"/><rect x="105.09" y="113.09" width="6.23" height="4.34" fill="#fafafa"/><rect x="90.29" y="66.36" width="51.4" height="4.34" fill="#0d1019"/><circle cx="156.71" cy="110.97" r="6.45" fill="#0d1019"/><circle cx="163.72" cy="110.97" r="5.34" fill="#fafafa"/><path d="M72.19,80.57h0a1.25,1.25,0,0,1-.81,1.16,9.5,9.5,0,0,0-5.51,5.51,1.26,1.26,0,0,1-1.16.81h0a1.25,1.25,0,0,1-1.16-.81A9.5,9.5,0,0,0,58,81.73a1.25,1.25,0,0,1-.81-1.16h0A1.25,1.25,0,0,1,58,79.41a9.49,9.49,0,0,0,5.51-5.5,1.26,1.26,0,0,1,1.16-.82h0a1.27,1.27,0,0,1,1.16.82,9.49,9.49,0,0,0,5.51,5.5A1.25,1.25,0,0,1,72.19,80.57Z" fill="#0d1019"/><path d="M63.52,67.5h0a.46.46,0,0,1-.29.42,3.44,3.44,0,0,0-2,2,.47.47,0,0,1-.42.29h0a.46.46,0,0,1-.42-.29,3.47,3.47,0,0,0-2-2,.45.45,0,0,1-.3-.42h0a.46.46,0,0,1,.3-.42,3.43,3.43,0,0,0,2-2,.46.46,0,0,1,.42-.29h0a.47.47,0,0,1,.42.29,3.4,3.4,0,0,0,2,2A.47.47,0,0,1,63.52,67.5Z" fill="#0d1019"/><path d="M75.81,69.48h0a.6.6,0,0,1-.4.56,4.59,4.59,0,0,0-2.66,2.66.61.61,0,0,1-.56.39h0a.61.61,0,0,1-.56-.39A4.59,4.59,0,0,0,69,70a.61.61,0,0,1-.39-.56h0a.61.61,0,0,1,.39-.56,4.59,4.59,0,0,0,2.66-2.66.61.61,0,0,1,.56-.39h0a.61.61,0,0,1,.56.39,4.59,4.59,0,0,0,2.66,2.66A.6.6,0,0,1,75.81,69.48Z" fill="#0d1019"/><path d="M207.77,81.24c0-.55,0-1.11,0-1.66a.61.61,0,0,0-.66-.57c-.43,0-.87,0-1.31,0a23.14,23.14,0,0,1-17-7.45h0a23.1,23.1,0,0,1-17,7.45c-.44,0-.87,0-1.31,0a.6.6,0,0,0-.65.57c0,.55,0,1.11,0,1.66a38.16,38.16,0,0,0,19,33h0A38.16,38.16,0,0,0,207.77,81.24Z" fill="#e2eaf2"/><path d="M199.06,99.12l-1.27-9.53a1.68,1.68,0,0,0-1.63-1.42h-1.42c-.59-4.58-3-8-6-8s-5.4,3.44-6,8h-1a1.68,1.68,0,0,0-1.63,1.42l-1.27,9.53a1.59,1.59,0,0,0,1.46,1.95H197.6A1.59,1.59,0,0,0,199.06,99.12ZM188.75,82.74c1.21,0,2.87,2.06,3.38,5.43h-6.76C185.89,84.8,187.55,82.74,188.75,82.74Z" fill="#0d1019"/></svg>