<svg id="Layer_1" data-name="Layer 1" xmlns="http://www.w3.org/2000/svg" viewBox="0 0 260 180"><title>Flat Web Illustrations Pack - Scene 10</title><path d="M207.7,147.66H52.3a1,1,0,1,1,0-2H207.7a1,1,0,0,1,0,2Z" fill="#e2eaf2"/><path d="M183.35,57.6A4.61,4.61,0,0,0,181.08,49a4.7,4.7,0,0,0-1.46.24,6.17,6.17,0,0,0,.62-2.72,6.25,6.25,0,0,0-12.47-.67A5.35,5.35,0,0,0,158.09,49a5,5,0,0,0,.16,1.29h-.16a4.62,4.62,0,0,0-3.73,7.34h29Z" fill="#e2eaf2"/><path d="M65.4,145.93c0-27,11.31-48.83,25.27-48.83s25.27,21.86,25.27,48.83Z" fill="#e2eaf2"/><path d="M102.9,145.93c0-11.47,11.31-20.76,25.27-20.76s25.27,9.29,25.27,20.76Z" fill="#e2eaf2"/><path d="M182.65,95.86c1.79,5.61,5.58,36.7-2,36.7s-3.8-31.09-2-36.7c.64-2,1.41-2.89,2-2.89S182,93.85,182.65,95.86Z" fill="#e2eaf2"/><path d="M172.3,96.87c1.79,4.78,5.58,31.32-2,31.32s-3.8-26.54-2-31.32c.65-1.72,1.41-2.47,2-2.47S171.66,95.15,172.3,96.87Z" fill="#e2eaf2"/><path d="M193.22,101.56c1.79,6,5.58,39.18-2,39.18s-3.8-33.19-2-39.18c.65-2.15,1.41-3.09,2-3.09S192.57,99.41,193.22,101.56Z" fill="#e2eaf2"/><rect x="190.5" y="128.24" width="1.42" height="18.46" fill="#e2eaf2"/><rect x="179.93" y="128.24" width="1.42" height="18.46" fill="#e2eaf2"/><rect x="169.58" y="117.89" width="1.42" height="28.04" fill="#e2eaf2"/><path d="M202.66,83.54a4.61,4.61,0,0,0-2.27-8.62,4.43,4.43,0,0,0-1.46.24,6.26,6.26,0,1,0-11.85-3.4,5.36,5.36,0,0,0-9.69,3.16,5.07,5.07,0,0,0,.17,1.29h-.17a4.62,4.62,0,0,0-3.72,7.34h29Z" fill="#e2eaf2"/><path d="M92.65,87.46A3.35,3.35,0,0,0,91,81.2a3.36,3.36,0,0,0-1.06.17,4.46,4.46,0,0,0,.45-2,4.54,4.54,0,0,0-9-.49,3.88,3.88,0,0,0-7,2.29,3.61,3.61,0,0,0,.11.94h-.11a3.36,3.36,0,0,0-2.71,5.33h21Z" fill="#e2eaf2"/><path d="M74.18,66.67H99.71A4.82,4.82,0,0,0,95.83,59h-.17a5.59,5.59,0,0,0-10-4.65,6.53,6.53,0,1,0-12.37,3.55,4.59,4.59,0,0,0-1.53-.25,4.82,4.82,0,0,0-2.37,9Z" fill="#e2eaf2"/><path d="M113.54,46.05h19.29a3.65,3.65,0,0,0-2.94-5.8h-.13a3.86,3.86,0,0,0,.13-1,4.22,4.22,0,0,0-7.64-2.49,4.93,4.93,0,0,0-9.84.53,4.85,4.85,0,0,0,.49,2.15,3.38,3.38,0,0,0-1.15-.19,3.64,3.64,0,0,0-1.8,6.81Z" fill="#e2eaf2"/><path d="M164.67,66A26.78,26.78,0,0,0,137.88,39.2h0A26.78,26.78,0,0,0,111.1,66h0a26.66,26.66,0,0,0,5.7,16.52l19,25.52a2.62,2.62,0,0,0,4.19,0L159,82.5c.28-.36.55-.73.82-1.1h0A26.68,26.68,0,0,0,164.67,66Z" fill="#a365c9"/><rect x="120.82" y="48.92" width="34.13" height="34.13" rx="17.07" fill="#fafafa"/><path d="M91,146.69c-3.55-4-4.76-7.62-3.14-8.75s4,1.94,5.16,0-2.74-3.33-5.81-5.7-4.52-6.13-2.26-8.45,5.17.27,6.94,2.85,2.1,3.88,4.2,3.39-.65-2.58-.65-4.44,3.07-4.27,5-1,2.09,4.93,3.06,4.32-.14-2.78,1.13-4.05c2.34-2.32,4,2,9.28,7.75s7.91,4.36,6.14,1.72-4.52-6.67-1.94-7.48,5.29,6.43,9.18,11,5.19,3.7,3.89,1.12,1.14-4.31,4.53,0,5.78,7.73,5.78,7.73H91Z" fill="#0d1019"/></svg>