<svg id="Layer_1" data-name="Layer 1" xmlns="http://www.w3.org/2000/svg" viewBox="0 0 220 180"><title>Flat Web Illustrations Pack - Scene 13</title><path d="M187.25,77.65h-46.2a11.15,11.15,0,0,1-2.32-10.58c1.8-6.45,10.32-9.61,12.9-2,0,0,3.41-4.22,11.13-3.19s7.71,7.23,7.71,7.23S182.6,65.78,187.25,77.65Z" fill="#e2eaf2"/><path d="M75.28,100.68h49.28A11.89,11.89,0,0,0,127,89.39c-1.92-6.88-11-10.25-13.76-2.1,0,0-3.65-4.51-11.88-3.41s-8.23,7.72-8.23,7.72S80.23,88,75.28,100.68Z" fill="#e2eaf2"/><path d="M182.13,101.46H132.84a.77.77,0,0,1-.64-.34.74.74,0,0,1-.08-.72c4.38-11.21,14.84-10.28,17.94-9.73.36-2,1.92-6.63,8.8-7.55,6.33-.86,10.09,1.46,11.69,2.81a6.5,6.5,0,0,1,6-4.18h.18c3.76.1,7.47,3.29,8.63,7.43a12.56,12.56,0,0,1-2.68,12A.78.78,0,0,1,182.13,101.46ZM134,99.91h47.77a11.12,11.12,0,0,0,2.08-10.31c-1-3.51-4.07-6.22-7.19-6.3h-.13c-2.28,0-4,1.5-5,4.24a.77.77,0,0,1-1.34.24c-.14-.17-3.5-4.16-11.16-3.13-7.47,1-7.56,6.71-7.56,6.95a.79.79,0,0,1-.3.62.83.83,0,0,1-.68.13C150,92.22,138.92,89.31,134,99.91Z" fill="#e2eaf2"/><path d="M151.13,45.73H111a.75.75,0,0,1-.55-.23,10.37,10.37,0,0,1-2.22-9.94c1-3.43,4-6.08,7.17-6.16a5.31,5.31,0,0,1,5.07,3.32c1.4-1.13,4.47-2.88,9.49-2.21,5.53.74,6.91,4.39,7.25,6.13,2.73-.45,11.09-1,14.64,8a.8.8,0,0,1-.08.72A.77.77,0,0,1,151.13,45.73Zm-39.79-1.55h38.6c-4-8.3-12.79-6-13.18-5.87a.79.79,0,0,1-.68-.13.78.78,0,0,1-.3-.62c0-.19-.12-4.72-6-5.51-6.2-.83-8.93,2.46-9,2.49a.77.77,0,0,1-1.34-.24c-.74-2.21-2.15-3.39-4-3.35-2.48.06-4.93,2.22-5.72,5A8.93,8.93,0,0,0,111.34,44.18Z" fill="#e2eaf2"/><path d="M116.51,59.14h-33a8,8,0,0,1-1.66-7.56c1.29-4.61,7.37-6.86,9.21-1.4,0,0,2.44-3,8-2.29s5.51,5.17,5.51,5.17S113.2,50.66,116.51,59.14Z" fill="#e2eaf2"/><path d="M179.93,150.61c6.6-7.51,8.85-14.17,5.85-16.28s-7.51,3.61-9.61,0,5.1-6.2,10.81-10.6,8.4-11.4,4.2-15.71-9.61.5-12.91,5.31-3.9,7.2-7.8,6.3,1.2-4.8,1.2-8.25-5.7-8-9.3-2-3.9,9.16-5.71,8,.28-5.17-2.1-7.52c-4.35-4.32-7.35,3.78-17.25,14.39-2.14,2.29-3.8,4.62-6.94,5.45a5.37,5.37,0,0,1-4-.33c-3.7-2.11.9-5.67-1.54-8.24-.9-1-2.56-.47-3.48.46-3.53,3.6-5.65,8.61-8.92,12.49-7.23,8.58-9.63,6.87-7.23,2.07s-2.11-8-8.41,0S86,150.61,86,150.61h93.89Z" fill="#0d1019"/><path d="M77.15,150.61c-5.15-5.86-6.9-11.06-4.56-12.7s5.85,2.81,7.49,0-4-4.84-8.43-8.28-6.56-8.89-3.28-12.25,7.5.39,10.07,4.14,3,5.62,6.09,4.91-.94-3.74-.94-6.44,4.45-6.2,7.26-1.52,3.05,7.14,4.45,6.27-.21-4,1.64-5.88c4.24-4.2,8.41,8.24,12.83,8,.39,0,.84-.15,1-.52s0-.63-.08-.94c-.14-1.2,1.49-1.93,2.61-1.47,1.39.57,1.87,2.64,3.31,3,1.87.53,3.35-2.08,5.54-1.19a4.44,4.44,0,0,1,1.75,1.64,36,36,0,0,0,5.15,5.89c1.08,1,3,3.79,4.75,2.9.61-.31.73-1.13,1.19-1.64a2.13,2.13,0,0,1,2.42-.34,6.14,6.14,0,0,1,2,1.68,166.87,166.87,0,0,1,11.06,14.69H77.15Z" fill="#0d1019"/><path d="M144.26,73.8c2.27-1.8,2.61-2.19,4.56-9.4s13.3-10,15.23-1.21S147.58,79.4,147.58,79.4,139.15,77.4,144.26,73.8Z" fill="#a365c9"/><path d="M142.93,84.82c9.37-2.46,17.1-5.67,26,0s13.39,18.66.82,13.64S138.36,93,138.36,93Z" fill="#a365c9"/><path d="M138.16,78c.78-11.14-5.63-20.34-20.67-20.34s6.91,8.42,10.34,17.85S137.7,84.7,138.16,78Z" fill="#a365c9"/><path d="M124.84,102.14c-.12,6.83-.93,9.89-5.51,12.31-4.3,2.26,8.71,2.8,13.23-3,5.94-7.65,3.49-13.52,3.49-13.52Z" fill="#a365c9"/><path d="M116.47,99c-6.51,2.07-9.21,3.72-10.21,8.81-.93,4.76-5.18-7.54-.89-13.55C111,86.33,117.32,87,117.32,87Z" fill="#a365c9"/><ellipse cx="132.27" cy="88.21" rx="22.46" ry="14.33" transform="translate(-26.64 93.26) rotate(-35.52)" fill="#0d1019"/><path d="M128.54,93.16a7.6,7.6,0,0,1-5-1.73h0a6.5,6.5,0,0,1-2.25-4.84,10,10,0,0,1,3.31-7.33c3.9-3.75,9.76-4.5,13.07-1.65a6.51,6.51,0,0,1,2.24,4.84,10,10,0,0,1-3.3,7.32A11.83,11.83,0,0,1,128.54,93.16Zm-4-2.91c2.72,2.34,7.64,1.63,11-1.59a8.49,8.49,0,0,0,2.83-6.17,5,5,0,0,0-1.7-3.71c-2.72-2.33-7.65-1.62-11,1.6a8.47,8.47,0,0,0-2.83,6.17,4.89,4.89,0,0,0,1.71,3.7Z" fill="#e2eaf2"/><path d="M145.79,96.1a.78.78,0,0,1-.68-.4,17,17,0,0,0-7.06-6.51.77.77,0,1,1,.61-1.42,18.42,18.42,0,0,1,7.81,7.17.78.78,0,0,1-.3,1.06A.75.75,0,0,1,145.79,96.1Z" fill="#e2eaf2"/><path d="M131.77,105.19h-.05a.76.76,0,0,1-.72-.82,32.63,32.63,0,0,0-1.07-11.69.77.77,0,1,1,1.46-.51,33.05,33.05,0,0,1,1.15,12.3A.78.78,0,0,1,131.77,105.19Z" fill="#e2eaf2"/><path d="M115.87,104a.71.71,0,0,1-.28-.06.76.76,0,0,1-.44-1c3.62-9.42,8.22-12.61,8.42-12.74a.77.77,0,0,1,.87,1.28c-.07,0-4.43,3.12-7.85,12A.76.76,0,0,1,115.87,104Z" fill="#e2eaf2"/><path d="M139.68,83.63a.77.77,0,0,1-.2-1.52,41.16,41.16,0,0,1,12.94-1.22.77.77,0,0,1,.7.84.78.78,0,0,1-.84.71,40,40,0,0,0-12.39,1.16A.76.76,0,0,1,139.68,83.63Z" fill="#e2eaf2"/><path d="M134.11,77.57a.77.77,0,0,1-.36-1.46c.09-.21.38-1.17-.31-4.36a.78.78,0,1,1,1.52-.32c.63,2.93.64,4.78,0,5.63a1.12,1.12,0,0,1-.79.5ZM134,76Zm0,0Zm0,0Zm0,0Z" fill="#e2eaf2"/><path d="M115,86.89a.77.77,0,0,1-.39-1.44,9.11,9.11,0,0,1,7.77-.4.77.77,0,1,1-.61,1.42,7.67,7.67,0,0,0-6.38.32A.78.78,0,0,1,115,86.89Z" fill="#e2eaf2"/></svg>