<svg id="Layer_1" data-name="Layer 1" xmlns="http://www.w3.org/2000/svg" viewBox="0 0 280 120"><title>Flat Web Illustrations Pack - Scene 15</title><path d="M177.48,145.65H96a7.48,7.48,0,0,1-7.11-9.78L97,110.79c3.94-12.18,15.8-20.41,27.15-20.41h25.22c11.35,0,23.21,8.23,27.15,20.41l8.11,25.08A7.47,7.47,0,0,1,177.48,145.65Z" fill="#0d1019"/><rect x="113.57" y="36.22" width="44.63" height="59.11" rx="21.95" fill="#a365c9"/><path d="M143.84,94l-1.67-13.45h-10.9L129.6,94S135.24,96,143.84,94Z" fill="#d78a69"/><rect x="119.24" y="42.63" width="34.96" height="46.3" rx="17.19" fill="#eaa88e"/><path d="M137.12,34.35h-.79A23.4,23.4,0,0,0,113,57.69V73.87A23.39,23.39,0,0,0,136.33,97.2h.79a23.4,23.4,0,0,0,23.33-23.33V57.69A23.4,23.4,0,0,0,137.12,34.35Zm18.6,42.92c0,8.87-7.61,16.12-16.91,16.12h-4c-9.3,0-16.92-7.25-16.92-16.12V70c0-8.87,7.62-16.13,16.92-16.13h4c9.3,0,16.91,7.26,16.91,16.13Z" fill="#0d1019"/><rect x="119.67" y="65.21" width="1.03" height="1.92" fill="none"/><rect x="119.67" y="69.05" width="1.03" height="1.32" fill="none"/><path d="M119.67,72.16h1v2.15a8.07,8.07,0,0,1-1-.57Z" fill="none"/><rect x="121.67" y="65.21" width="1.03" height="2.44" fill="none"/><rect x="123.67" y="66.32" width="1.03" height="1.33" fill="none"/><rect x="123.67" y="70.84" width="1.03" height="1.32" fill="none"/><rect x="125.67" y="65.84" width="1.03" height="3.61" fill="none"/><path d="M125.67,74.33h1v.48a8.15,8.15,0,0,1-1,.22Z" fill="none"/><rect x="127.67" y="65.21" width="1.03" height="1.11" fill="none"/><rect x="129.67" y="65.21" width="1.03" height="1.92" fill="none"/><rect x="129.67" y="69.04" width="1.03" height="1.32" fill="none"/><rect x="131.67" y="65.21" width="1.03" height="3.09" fill="none"/><path d="M131.67,69.54h1v.56a6.32,6.32,0,0,0-.41.78h-.62Z" fill="none"/><rect x="133.67" y="65.21" width="1.03" height="0.11" fill="none"/><rect x="137.67" y="65.21" width="1.03" height="1.92" fill="none"/><rect x="139.67" y="65.21" width="1.03" height="0.11" fill="none"/><path d="M139.67,70.18h1V71.5h-.84l-.19-.27Z" fill="none"/><rect x="141.67" y="65.32" width="1.03" height="3.62" fill="none"/><path d="M141.68,73.21h1v.64C142.34,73.65,142,73.43,141.68,73.21Z" fill="none"/><rect x="143.67" y="65.21" width="1.03" height="1.92" fill="none"/><path d="M143.67,68.37h1v6h-.94l-.09,0Z" fill="none"/><rect x="145.67" y="65.21" width="1.03" height="6.15" fill="none"/><rect x="145.67" y="72.32" width="1.03" height="1.32" fill="none"/><rect x="147.67" y="65.21" width="1.03" height="0.11" fill="none"/><rect x="147.67" y="68.39" width="1.03" height="1.32" fill="none"/><polygon points="147.68 74.36 148.71 74.36 148.71 75.04 147.68 75.13 147.68 74.36" fill="none"/><rect x="149.67" y="65.21" width="1.03" height="1.92" fill="none"/><path d="M149.67,73h1v1.5a9.67,9.67,0,0,1-1,.36Z" fill="none"/><path d="M152.7,65.31v1.82h-1V65.21h.73A.51.51,0,0,1,152.7,65.31Z" fill="none"/><polygon points="151.68 70.36 152.71 70.36 152.71 73.31 151.72 73.97 151.68 73.97 151.68 70.36" fill="none"/><path d="M153.24,64.21h-33a1.5,1.5,0,0,0-1.5,1.49v7.22a1.45,1.45,0,0,0,.56,1.17C125.71,79,132.83,74,134,71.32c.87-1.94,2.09-2.32,2.7-2.38s1.83.44,2.71,2.38c1.18,2.64,8.3,7.63,14.74,2.77a1.45,1.45,0,0,0,.56-1.17V65.7A1.49,1.49,0,0,0,153.24,64.21Z" fill="#0d1019"/><rect x="120.21" y="65.21" width="1.03" height="1.92" fill="#fff"/><path d="M121.24,72.16v2.15a8.07,8.07,0,0,1-1-.57V72.16Z" fill="#a365c9"/><rect x="122.21" y="65.21" width="1.03" height="2.44" fill="#a365c9"/><rect x="124.21" y="66.32" width="1.03" height="1.33" fill="#a365c9"/><rect x="140.21" y="70.18" width="1.03" height="1.32" fill="#a365c9"/><rect x="120.21" y="69.05" width="1.03" height="1.32" fill="#a365c9"/><rect x="146.21" y="72.32" width="1.03" height="1.32" fill="#a365c9"/><rect x="148.21" y="68.39" width="1.03" height="1.32" fill="#fff"/><polygon points="149.24 74.36 149.24 75.04 148.21 75.13 148.21 74.36 149.24 74.36" fill="#a365c9"/><rect x="124.21" y="70.84" width="1.03" height="1.32" fill="#fff"/><rect x="126.21" y="65.84" width="1.03" height="3.61" fill="#a365c9"/><path d="M127.24,74.33v.48a8.15,8.15,0,0,1-1,.22v-.7Z" fill="#a365c9"/><rect x="128.21" y="65.21" width="1.03" height="1.11" fill="#a365c9"/><rect x="130.21" y="65.21" width="1.03" height="1.92" fill="#a365c9"/><rect x="130.21" y="69.04" width="1.03" height="1.32" fill="#fff"/><rect x="132.21" y="65.21" width="1.03" height="3.09" fill="#a365c9"/><rect x="132.21" y="69.54" width="1.03" height="1.34" fill="#a365c9"/><rect x="134.21" y="65.21" width="1.03" height="0.96" fill="#a365c9"/><rect x="138.21" y="65.21" width="1.03" height="1.92" fill="#fff"/><rect x="140.21" y="66.32" width="1.03" height="0.78" fill="#a365c9"/><rect x="142.21" y="65.32" width="1.03" height="3.62" fill="#a365c9"/><path d="M143.24,73.21v.64c-.36-.2-.7-.42-1-.64Z" fill="#a365c9"/><rect x="144.21" y="65.21" width="1.03" height="1.92" fill="#a365c9"/><rect x="144.21" y="68.37" width="1.03" height="5.99" fill="#a365c9"/><rect x="146.21" y="65.21" width="1.03" height="6.15" fill="#a365c9"/><rect x="148.21" y="65.21" width="1.03" height="0.11" fill="#a365c9"/><rect x="150.21" y="65.21" width="1.03" height="1.92" fill="#a365c9"/><path d="M151.24,73v1.5a9.67,9.67,0,0,1-1,.36V73Z" fill="#a365c9"/><path d="M153.24,65.31v1.82h-1V65.21h.73A.51.51,0,0,1,153.24,65.31Z" fill="#a365c9"/><polygon points="153.24 70.36 153.24 73.31 152.25 73.97 152.21 73.97 152.21 70.36 153.24 70.36" fill="#a365c9"/><path d="M141.43,95.33h0a.76.76,0,0,1,.76.76v6.83a0,0,0,0,1,0,0h-1.52a0,0,0,0,1,0,0V96.09A.76.76,0,0,1,141.43,95.33Z" fill="#fff"/><path d="M131.67,95.33h0a.76.76,0,0,1,.76.76v6.83a0,0,0,0,1,0,0h-1.52a0,0,0,0,1,0,0V96.09A.76.76,0,0,1,131.67,95.33Z" fill="#fff"/><circle cx="96.91" cy="63.75" r="3.88" fill="#0d1019"/><circle cx="103.61" cy="67.01" r="1.81" fill="#0d1019"/><circle cx="85.39" cy="49.8" r="10.36" fill="#0d1019"/><polygon points="87.46 47.13 93.32 50.56 87.46 54.3 87.46 51.88 89.38 50.71 87.46 49.65 87.46 47.13" fill="#a365c9"/><polygon points="83.12 45.31 77.26 48.74 83.12 52.48 83.12 50.06 81.2 48.9 83.12 47.83 83.12 45.31" fill="#a365c9"/><polygon points="85.64 45.31 83.62 54.3 85.03 54.3 87.21 45.31 85.64 45.31" fill="#a365c9"/><rect x="101.69" y="104.5" width="69.6" height="41.15" rx="1.6" fill="#e2eaf2"/><path d="M97,141.77h79a0,0,0,0,1,0,0v0a3.87,3.87,0,0,1-3.87,3.87H100.85A3.87,3.87,0,0,1,97,141.77v0A0,0,0,0,1,97,141.77Z" fill="#e2eaf2"/><circle cx="136.49" cy="124.25" r="6.2" fill="#0d1019"/><path d="M138.21,118.58a15.77,15.77,0,0,1-1.71.09,16,16,0,0,1-1.72-.09c.81-.57,1.17-1.35,1.44-3.09a.28.28,0,0,1,.55,0C137,117.23,137.4,118,138.21,118.58Z" fill="#0d1019"/><ellipse cx="136.49" cy="115.39" rx="1.06" ry="0.47" fill="#0d1019"/><path d="M138.21,118.58a15.77,15.77,0,0,1-1.71.09,16,16,0,0,1-1.72-.09c.81-.57,1.17-1.35,1.44-3.09a.28.28,0,0,1,.55,0C137,117.23,137.4,118,138.21,118.58Z" fill="#0d1019"/><ellipse cx="142.43" cy="118.31" rx="0.47" ry="1.06" transform="translate(-41.94 135.37) rotate(-45)" fill="#0d1019"/><path d="M141.39,121.77a14.67,14.67,0,0,1-1.27-1.14,14.92,14.92,0,0,1-1.15-1.28c1,.17,1.78-.13,3.2-1.17a.28.28,0,0,1,.39.39C141.51,120,141.22,120.8,141.39,121.77Z" fill="#0d1019"/><ellipse cx="145.34" cy="124.25" rx="0.47" ry="1.06" fill="#0d1019"/><path d="M142.15,126a15.77,15.77,0,0,1-.09-1.71,16,16,0,0,1,.09-1.72c.57.81,1.35,1.17,3.09,1.44a.28.28,0,0,1,0,.55C143.5,124.79,142.72,125.16,142.15,126Z" fill="#0d1019"/><ellipse cx="142.43" cy="130.19" rx="1.06" ry="0.47" transform="translate(-50.34 138.85) rotate(-45)" fill="#0d1019"/><path d="M139,129.15a15,15,0,0,1,1.15-1.27,13.55,13.55,0,0,1,1.28-1.15c-.17,1,.12,1.78,1.16,3.2a.28.28,0,0,1-.38.39C140.75,129.27,139.94,129,139,129.15Z" fill="#0d1019"/><ellipse cx="136.49" cy="133.1" rx="1.06" ry="0.47" fill="#0d1019"/><path d="M134.77,129.91a15.77,15.77,0,0,1,1.71-.09,16,16,0,0,1,1.72.09c-.81.57-1.17,1.35-1.44,3.09a.28.28,0,0,1-.55,0C136,131.26,135.58,130.48,134.77,129.91Z" fill="#0d1019"/><ellipse cx="130.23" cy="130.51" rx="0.47" ry="1.06" transform="translate(-54.14 130.31) rotate(-45)" fill="#0d1019"/><path d="M131.27,127a16.7,16.7,0,0,1,1.27,1.15,12.42,12.42,0,0,1,1.15,1.28c-1-.17-1.78.12-3.2,1.16a.28.28,0,0,1-.39-.39C131.15,128.83,131.44,128,131.27,127Z" fill="#0d1019"/><ellipse cx="128.1" cy="124.25" rx="0.47" ry="1.06" fill="#0d1019"/><path d="M131.29,122.53a15.77,15.77,0,0,1,.09,1.71,16,16,0,0,1-.09,1.72c-.57-.81-1.35-1.17-3.09-1.44a.28.28,0,0,1,0-.55C129.94,123.71,130.72,123.34,131.29,122.53Z" fill="#0d1019"/><ellipse cx="130.23" cy="117.98" rx="1.06" ry="0.47" transform="translate(-45.28 126.64) rotate(-45)" fill="#0d1019"/><path d="M133.7,119a16.7,16.7,0,0,1-1.15,1.27,14.92,14.92,0,0,1-1.28,1.15c.17-1-.13-1.78-1.17-3.2a.28.28,0,0,1,.39-.39C131.91,118.91,132.72,119.2,133.7,119Z" fill="#0d1019"/><path d="M167.85,98.44l-9.71,16.82a2.49,2.49,0,0,0,2.15,3.74h19.43a2.49,2.49,0,0,0,2.16-3.74l-9.72-16.82A2.49,2.49,0,0,0,167.85,98.44Z" fill="#a365c9"/><path d="M168.61,114.85a1.37,1.37,0,1,1,2.73,0,1.37,1.37,0,1,1-2.73,0Zm2.62-11.78c0,.57-.12,2.21-.33,5.25l-.25,3.51a.67.67,0,0,1-.67.61h0a.68.68,0,0,1-.68-.61l-.24-3.51c-.21-3-.38-4.68-.34-5.25s.52-.85,1.26-.85S171.19,102.46,171.23,103.07Z" fill="#fff"/></svg>