<svg id="Layer_1" data-name="Layer 1" xmlns="http://www.w3.org/2000/svg" viewBox="0 0 260 180"><title>Flat Web Illustrations Pack - Scene 16</title><path d="M185.87,148.75h-94c-2.08-1.41-6-3-11.44-5.12-10.47-4.13-15.09-12.76-7.28-16.8s14.76,4.46,18.49,8.82,6.69-.47,3.17-6.05-.56-8.32,4-7.63,7.46,8.73,9.75,8.48-2.63-7.82,1.67-8.78c2.65-.58,3.41,1,9.16,6.06s8.72,2.22,4.79-1.08-7-8.07-1.9-8.23,8.13,3.57,14,7.34,5.93-1.47,2.41-4.49,1.14-7,7.15-2.32,18,8,31.38,16.38A17.88,17.88,0,0,1,185.87,148.75Z" fill="#0d1019"/><path d="M195.06,90.4H142.31a12.71,12.71,0,0,1-2.65-12.08c2.06-7.36,11.78-11,14.73-2.24,0,0,3.9-4.83,12.71-3.65s8.8,8.26,8.8,8.26S189.75,76.85,195.06,90.4Z" fill="#e2eaf2"/><path d="M67.22,116.69h56.27a13.59,13.59,0,0,0,2.83-12.89c-2.2-7.85-12.58-11.7-15.72-2.39,0,0-4.16-5.15-13.55-3.89s-9.4,8.81-9.4,8.81S72.88,102.23,67.22,116.69Z" fill="#e2eaf2"/><path d="M189.21,117.58H132.93a.9.9,0,0,1-.73-.39.89.89,0,0,1-.09-.82c5-12.79,16.95-11.73,20.49-11.11.41-2.29,2.19-7.57,10.05-8.62,7.23-1,11.52,1.68,13.34,3.21,1.45-3.13,4-4.84,7-4.77,4.3.11,8.54,3.76,9.86,8.49a14.37,14.37,0,0,1-3.06,13.75A.85.85,0,0,1,189.21,117.58Zm-54.94-1.77h54.55A12.7,12.7,0,0,0,191.19,104c-1.13-4-4.65-7.1-8.2-7.19-2.73,0-4.75,1.65-5.83,4.84a.9.9,0,0,1-.68.59.88.88,0,0,1-.85-.32c-.16-.19-4-4.74-12.75-3.57-8.53,1.15-8.63,7.66-8.63,7.94a.89.89,0,0,1-.35.7.85.85,0,0,1-.77.15C152.58,107,139.88,103.7,134.27,115.81Z" fill="#e2eaf2"/><path d="M153.82,54H108a.88.88,0,0,1-.63-.26,11.88,11.88,0,0,1-2.53-11.36c1.1-3.92,4.61-6.94,8.18-7a6.13,6.13,0,0,1,5.8,3.79c1.59-1.28,5.1-3.29,10.83-2.52,6.31.85,7.89,5,8.28,7,3.11-.52,12.66-1.17,16.71,9.17a.89.89,0,0,1-.09.82A.9.9,0,0,1,153.82,54Zm-45.43-1.77h44.08c-4.57-9.48-14.61-6.83-15.06-6.7a.92.92,0,0,1-.77-.15.9.9,0,0,1-.35-.71c0-.21-.13-5.39-6.88-6.29-7.07-1-10.2,2.81-10.23,2.84a.87.87,0,0,1-.84.32.9.9,0,0,1-.69-.59c-.85-2.53-2.45-3.93-4.58-3.83-2.82.07-5.63,2.54-6.52,5.74A10.3,10.3,0,0,0,108.39,52.19Z" fill="#e2eaf2"/><path d="M179.9,122.52a48.13,48.13,0,1,1-7.82-68.91,36,36,0,0,0-39.31,23.61A12.41,12.41,0,0,0,132.9,86a19.3,19.3,0,0,0,9.93,10.22s-1.17,5.29-7.79,10a36,36,0,0,0,44.86,16.37Z" fill="#a365c9"/><path d="M114.3,69.26H76.64a9.08,9.08,0,0,1-1.9-8.62c1.48-5.26,8.42-7.84,10.52-1.61,0,0,2.79-3.44,9.07-2.6s6.29,5.89,6.29,5.89S110.51,59.58,114.3,69.26Z" fill="#e2eaf2"/><path d="M170.64,39.35h0a.72.72,0,0,1-.47.67A5.47,5.47,0,0,0,167,43.21a.73.73,0,0,1-.67.47h0a.75.75,0,0,1-.68-.47A5.47,5.47,0,0,0,162.46,40a.72.72,0,0,1-.47-.67h0a.72.72,0,0,1,.47-.67,5.45,5.45,0,0,0,3.18-3.18.75.75,0,0,1,.68-.47h0a.73.73,0,0,1,.67.47,5.48,5.48,0,0,0,3.18,3.18A.72.72,0,0,1,170.64,39.35Z" fill="#a365c9"/><path d="M72.79,96.16h0a.72.72,0,0,1-.47.67A5.57,5.57,0,0,0,69.13,100a.72.72,0,0,1-.67.47h0a.72.72,0,0,1-.67-.47,5.52,5.52,0,0,0-3.18-3.19.72.72,0,0,1-.47-.67h0a.72.72,0,0,1,.47-.67,5.48,5.48,0,0,0,3.18-3.18.72.72,0,0,1,.67-.47h0a.72.72,0,0,1,.67.47,5.52,5.52,0,0,0,3.19,3.18A.72.72,0,0,1,72.79,96.16Z" fill="#a365c9"/><path d="M75.29,85.82h0a.41.41,0,0,1-.27.38A3.18,3.18,0,0,0,73.18,88a.43.43,0,0,1-.39.27h0A.43.43,0,0,1,72.4,88a3.19,3.19,0,0,0-1.83-1.84.41.41,0,0,1-.28-.38h0a.41.41,0,0,1,.28-.39,3.19,3.19,0,0,0,1.83-1.84.43.43,0,0,1,.39-.27h0a.43.43,0,0,1,.39.27A3.18,3.18,0,0,0,75,85.43.41.41,0,0,1,75.29,85.82Z" fill="#a365c9"/><path d="M171,100.64h0a.36.36,0,0,1-.23.33,2.78,2.78,0,0,0-1.6,1.59.35.35,0,0,1-.33.24h0a.38.38,0,0,1-.34-.24,2.74,2.74,0,0,0-1.59-1.59.36.36,0,0,1-.23-.33h0a.36.36,0,0,1,.23-.34,2.74,2.74,0,0,0,1.59-1.59.38.38,0,0,1,.34-.24h0a.35.35,0,0,1,.33.24,2.78,2.78,0,0,0,1.6,1.59A.36.36,0,0,1,171,100.64Z" fill="#a365c9"/><path d="M181.09,99.91h0a.45.45,0,0,1-.3.42,3.44,3.44,0,0,0-2,2,.46.46,0,0,1-.42.29h0a.46.46,0,0,1-.42-.29,3.41,3.41,0,0,0-2-2,.44.44,0,0,1-.29-.42h0a.44.44,0,0,1,.29-.42,3.39,3.39,0,0,0,2-2,.46.46,0,0,1,.42-.29h0a.46.46,0,0,1,.42.29,3.42,3.42,0,0,0,2,2A.45.45,0,0,1,181.09,99.91Z" fill="#a365c9"/><path d="M176.71,108.6h0a.6.6,0,0,1-.38.55,4.5,4.5,0,0,0-2.6,2.6.58.58,0,0,1-.55.38h0a.58.58,0,0,1-.54-.38,4.5,4.5,0,0,0-2.6-2.6.58.58,0,0,1-.38-.55h0a.58.58,0,0,1,.38-.54,4.47,4.47,0,0,0,2.6-2.6.6.6,0,0,1,.54-.38h0a.6.6,0,0,1,.55.38,4.47,4.47,0,0,0,2.6,2.6A.6.6,0,0,1,176.71,108.6Z" fill="#a365c9"/><path d="M180,33.28h0a.51.51,0,0,1-.33.47A3.85,3.85,0,0,0,177.47,36a.52.52,0,0,1-.47.33h0a.52.52,0,0,1-.48-.33,3.85,3.85,0,0,0-2.23-2.24.52.52,0,0,1-.33-.47h0a.52.52,0,0,1,.33-.47,3.83,3.83,0,0,0,2.23-2.23.51.51,0,0,1,.48-.33h0a.51.51,0,0,1,.47.33,3.83,3.83,0,0,0,2.23,2.23A.51.51,0,0,1,180,33.28Z" fill="#a365c9"/><path d="M194.86,149.75H71.25a1,1,0,0,1,0-2H194.86a1,1,0,0,1,0,2Z" fill="#e2eaf2"/><path d="M122.46,84.13h-.1c-.18,0-4.59-.52-7.45-5.55a.88.88,0,1,1,1.54-.87c2.39,4.2,6,4.64,6.1,4.66a.89.89,0,0,1,.78,1A.88.88,0,0,1,122.46,84.13Z" fill="#0a0d16"/></svg>