<svg id="Layer_1" data-name="Layer 1" xmlns="http://www.w3.org/2000/svg" viewBox="0 0 260 180"><title>Flat Web Illustrations Pack - Scene 17</title><path d="M101,88.73h0c0,.36-1.4.83-3.19,1.07s-3.28.15-3.35-.2h0v0a1.59,1.59,0,0,1-.06-.3L88.19,42.66l0-.17c0-.36,1.33-.81,3.17-1.06s3.37-.14,3.42.22v0l6.18,46.73C101,88.52,101,88.62,101,88.73Z" fill="#e2eaf2"/><path d="M95,43.26l.41,3.07a28.4,28.4,0,0,1-2.6,1.61,25.9,25.9,0,0,1-3.67,1.68l-.41-3.07a25.9,25.9,0,0,0,3.67-1.68A28.4,28.4,0,0,0,95,43.26Z" fill="#a365c9"/><path d="M95.78,49.4l.41,3.07a28.4,28.4,0,0,1-2.6,1.61,25.9,25.9,0,0,1-3.67,1.68l-.4-3.07A26.42,26.42,0,0,0,93.19,51,28.19,28.19,0,0,0,95.78,49.4Z" fill="#a365c9"/><path d="M96.6,55.54l.4,3.07a29.62,29.62,0,0,1-2.59,1.61,26.51,26.51,0,0,1-3.68,1.68l-.4-3.07A27.64,27.64,0,0,0,94,57.15,28.4,28.4,0,0,0,96.6,55.54Z" fill="#a365c9"/><path d="M97.41,61.68l.4,3.07a28.19,28.19,0,0,1-2.59,1.61A26.42,26.42,0,0,1,91.55,68L91.14,65a25.9,25.9,0,0,0,3.67-1.68A28.4,28.4,0,0,0,97.41,61.68Z" fill="#a365c9"/><path d="M98.22,67.83l.41,3.06A28.4,28.4,0,0,1,96,72.5a26.42,26.42,0,0,1-3.67,1.68L92,71.11a25.9,25.9,0,0,0,3.67-1.68C96.56,68.91,97.44,68.37,98.22,67.83Z" fill="#a365c9"/><path d="M99,74,99.44,77a28.4,28.4,0,0,1-2.6,1.61,24.82,24.82,0,0,1-3.67,1.68l-.41-3.07a26,26,0,0,0,3.68-1.68A29.62,29.62,0,0,0,99,74Z" fill="#a365c9"/><path d="M99.84,80.1l.41,3.07a28.4,28.4,0,0,1-2.6,1.61A25.9,25.9,0,0,1,94,86.46l-.4-3.07a26.42,26.42,0,0,0,3.67-1.68A28.19,28.19,0,0,0,99.84,80.1Z" fill="#a365c9"/><ellipse cx="91.42" cy="42.09" rx="2.73" ry="0.54" transform="translate(-4.73 12.35) rotate(-7.53)" fill="#a365c9"/><path d="M101,88.73h0c0,.36-1.4.83-3.19,1.07s-3.28.15-3.35-.2h0v0c0-.36,1.41-.82,3.19-1.06S100.91,88.38,101,88.73Z" fill="#e2eaf2"/><path d="M97.17,93.44h0c.06.35-1.26,1-3,1.53s-3.22.64-3.34.3h0v0a1.66,1.66,0,0,1-.1-.29L77.65,49.79a1,1,0,0,1-.05-.16c-.1-.35,1.19-1,3-1.52s3.31-.64,3.42-.3v0L97.1,93.12C97.13,93.23,97.15,93.33,97.17,93.44Z" fill="#e2eaf2"/><path d="M84.44,49.38l.86,3a27.82,27.82,0,0,1-2.32,2,26.53,26.53,0,0,1-3.38,2.21l-.86-3a25.49,25.49,0,0,0,3.38-2.21A29.81,29.81,0,0,0,84.44,49.38Z" fill="#a365c9"/><path d="M86.16,55.32l.86,3a26.29,26.29,0,0,1-2.32,2,25.85,25.85,0,0,1-3.38,2.21l-.86-3a24.86,24.86,0,0,0,3.38-2.21A27.82,27.82,0,0,0,86.16,55.32Z" fill="#a365c9"/><path d="M87.89,61.28l.86,3a28,28,0,0,1-2.33,2A26.92,26.92,0,0,1,83,68.44l-.86-3a27.06,27.06,0,0,0,3.38-2.22A30,30,0,0,0,87.89,61.28Z" fill="#a365c9"/><path d="M89.61,67.23l.86,3a28,28,0,0,1-2.33,2,26.21,26.21,0,0,1-3.38,2.21l-.86-3a26,26,0,0,0,3.38-2.22A30,30,0,0,0,89.61,67.23Z" fill="#a365c9"/><path d="M91.33,73.18l.86,3a30.07,30.07,0,0,1-2.33,2,26.85,26.85,0,0,1-3.37,2.21l-.87-3A24.26,24.26,0,0,0,89,75.15,30,30,0,0,0,91.33,73.18Z" fill="#a365c9"/><path d="M93.05,79.12l.86,3a27.82,27.82,0,0,1-2.32,2,26.53,26.53,0,0,1-3.38,2.21l-.86-3a24.79,24.79,0,0,0,3.37-2.21A26.47,26.47,0,0,0,93.05,79.12Z" fill="#a365c9"/><path d="M94.77,85.08l.86,3a27.84,27.84,0,0,1-5.7,4.19l-.86-3a26.53,26.53,0,0,0,3.38-2.21A29.81,29.81,0,0,0,94.77,85.08Z" fill="#a365c9"/><ellipse cx="80.76" cy="48.75" rx="2.73" ry="0.54" transform="translate(-10.37 24.37) rotate(-16.14)" fill="#a365c9"/><path d="M97.17,93.44h0c.06.35-1.26,1-3,1.53s-3.22.64-3.34.3h0v0c0-.36,1.27-1,3-1.53S97.07,93.1,97.17,93.44Z" fill="#e2eaf2"/><path d="M181.39,138.67H57.66a1,1,0,0,1,0-2H181.39a1,1,0,0,1,0,2Z" fill="#e2eaf2"/><path d="M157.33,126.7c2.23-1.26,5.15-.78,9.25,1.55s8.71-1.12,8.71-1.12.64,9.75-8.71,10.17C166.58,137.3,159,138.22,157.33,126.7Z" fill="#a365c9"/><path d="M147.3,128.5a16.44,16.44,0,0,1-3.32,6.72,7.79,7.79,0,0,1-3,1.67,6.94,6.94,0,0,1-5.57-.37,9.94,9.94,0,0,1-5.52-9.76c2.64-4.3,8.69-3,13.18,0A10,10,0,0,0,147.3,128.5Z" fill="#a365c9"/><path d="M138.54,138.63c-7.23,0-10.51-8.32-10.56-16.57-.06-9,3.55-18.25,10.54-18.33h0c7.34,0,10.68,9.09,10.68,17.54A25.79,25.79,0,0,1,146.69,133C144.75,136.68,141.93,138.63,138.54,138.63Zm0-33c-5.67.07-8.69,8.5-8.64,16.4,0,7.3,2.73,14.66,8.64,14.66,3.33,0,5.34-2.5,6.45-4.61a23.79,23.79,0,0,0,2.31-10.83C147.3,113.51,144.29,105.65,138.54,105.65Z" fill="#e2eaf2"/><path d="M166.52,138.63c-7.23,0-10.51-8.32-10.56-16.57-.05-9,3.55-18.25,10.55-18.33h0c7.34,0,10.69,9.09,10.69,17.54A25.66,25.66,0,0,1,174.67,133C172.73,136.68,169.91,138.63,166.52,138.63Zm0-33c-5.67.07-8.69,8.5-8.64,16.4,0,7.3,2.73,14.66,8.64,14.66,3.33,0,5.35-2.5,6.45-4.61a23.78,23.78,0,0,0,2.32-10.83C175.29,113.51,172.28,105.65,166.52,105.65Z" fill="#e2eaf2"/><path d="M147.31,122.11a5.46,5.46,0,0,1,2.63-5,5.27,5.27,0,0,1,5.32-.41c1,.52,2.57,1.89,2.62,5.3l-1.92,0c0-1.83-.58-3.09-1.61-3.64a3.41,3.41,0,0,0-3.37.34,3.58,3.58,0,0,0-1.76,3.23Z" fill="#e2eaf2"/><path d="M189.31,138.7a11.85,11.85,0,0,1-1.45-.08l.26-1.9s3.69.46,5.49-1.12a3,3,0,0,0,1-2.38c0-5.11-5.12-5.74-5.34-5.76l-60.39-5.33.17-1.91,60.41,5.33c2.45.26,7.07,2.18,7.07,7.67a4.84,4.84,0,0,1-1.63,3.82C193.27,138.45,190.85,138.7,189.31,138.7Z" fill="#e2eaf2"/><path d="M197.4,137.63h-.09l.07-1.92a4.53,4.53,0,0,0,2.92-1.09,4.33,4.33,0,0,0,1.12-3.21c0-4.61-3.73-5.07-4.15-5.11h-.11l-21.1-4.17.37-1.88,21,4.15c2.06.19,5.86,1.87,5.86,7a6.12,6.12,0,0,1-1.72,4.6A6.37,6.37,0,0,1,197.4,137.63Z" fill="#e2eaf2"/><circle cx="90.11" cy="87.15" r="13.67" fill="#0d1019"/><path d="M84.33,78.86a1,1,0,0,1-.82-.42L82,76.22a1,1,0,0,1,1.64-1.14l1.54,2.21a1,1,0,0,1-.25,1.39A.92.92,0,0,1,84.33,78.86Z" fill="#a365c9"/><path d="M77.52,83.14a1,1,0,0,1-.43-1.9l2.44-1.15a1,1,0,1,1,.85,1.81l-2.44,1.15A1,1,0,0,1,77.52,83.14Z" fill="#a365c9"/><path d="M89.24,80.91a1,1,0,0,1-.82-.41,1,1,0,0,1,.23-1.4l2.19-1.58A1,1,0,0,1,92,79.15l-2.19,1.57A1,1,0,0,1,89.24,80.91Z" fill="#a365c9"/><circle cx="115.37" cy="81.57" r="15.23" fill="#a365c9"/><path d="M112.31,73.18a.89.89,0,0,1-.47-.12,1,1,0,0,1-.4-1.35l1.29-2.37a1,1,0,1,1,1.75,1l-1.29,2.36A1,1,0,0,1,112.31,73.18Z" fill="#e2eaf2"/><path d="M107.56,77.48a1,1,0,0,1-.58-.19l-2.2-1.56a1,1,0,1,1,1.16-1.63l2.2,1.56a1,1,0,0,1,.24,1.39A1,1,0,0,1,107.56,77.48Z" fill="#e2eaf2"/><path d="M105.46,83.47a1,1,0,0,1-.75-.34,1,1,0,0,1,.08-1.41l2-1.8a1,1,0,1,1,1.33,1.49l-2,1.8A1,1,0,0,1,105.46,83.47Z" fill="#e2eaf2"/><path d="M122.79,73a1,1,0,0,1-.76-.35l-1.74-2.07a1,1,0,0,1,1.53-1.28l1.74,2.06a1,1,0,0,1-.12,1.41A1,1,0,0,1,122.79,73Z" fill="#e2eaf2"/><path d="M118,83.6a1,1,0,0,1-.77-.36l-1.74-2.06a1,1,0,0,1,.13-1.41,1,1,0,0,1,1.4.12L118.75,82A1,1,0,0,1,118,83.6Z" fill="#e2eaf2"/><path d="M115.77,76.92a1,1,0,0,1-.08-2l2.69-.23a1,1,0,1,1,.16,2l-2.68.23Z" fill="#e2eaf2"/><path d="M125.59,82.89a1,1,0,0,1-.82-.43,1,1,0,0,1,.25-1.39l2.2-1.55a1,1,0,0,1,1.15,1.63l-2.2,1.56A1,1,0,0,1,125.59,82.89Z" fill="#e2eaf2"/><path d="M79.5,137.22c0-2.21,10.86-4,24.26-4S128,135,128,137.22Z" fill="#e2eaf2"/><path d="M109.88,111c0-4.27-2.74-7.74-6.12-7.74s-6.13,3.47-6.13,7.74a9.38,9.38,0,0,0,.43,2.84,92.13,92.13,0,0,1,3.44,19l.22,2.33h4.08l.21-2.33a92.15,92.15,0,0,1,3.45-19A9.7,9.7,0,0,0,109.88,111Z" fill="#e2eaf2"/><path d="M75.16,84.38a28.6,28.6,0,0,0,57.19,0Z" fill="#e2eaf2"/></svg>