<svg id="Layer_1" data-name="Layer 1" xmlns="http://www.w3.org/2000/svg" viewBox="0 0 220 180"><title>Flat Web Illustrations Pack - Scene 18</title><path d="M162.42,131.06c-2.21.94-7.13,3.06-11.36,5.35s-6.87,5.85-4.24,9.58h-7s-2.8-3.73.68-6.87,19.84-9.41,19.84-9.41Z" fill="#0d1019"/><path d="M163.35,88.84c3.22-5.26,6.61-6.76,8-2.79s2.2,6.07,2.2,6.07a19.19,19.19,0,0,1,11.54,1.64A27.77,27.77,0,0,1,191,87.82c3.56-2.54,4.92-3.22,7.12,3.39s2,6.76,3,10.18c1.27,4.33,2.46,21-6.87,26.62v18H150.63s-4.41-1.87-2.37-5.43,18.85-9.33,18.85-9.33a16.33,16.33,0,0,1-11.9-16.34C155.21,101.39,159.11,96.81,163.35,88.84Z" fill="#0d1019"/><path d="M171,109.24c.56-3.61,2.71-6.44,6-7.23s7.35,2.15,9.83,4.86c0,0-2.23,2-7.91,3C173,111.05,171,109.24,171,109.24Z" fill="#fafafa"/><path d="M166.29,108.11s.45-4.41-1.81-6.78-5.68-1.39-7.53.55C157,101.88,158.6,107.21,166.29,108.11Z" fill="#fafafa"/><path d="M165.84,112.27c2.64.53,4.38.13,4.45,1.48a3.43,3.43,0,0,1-2.7,3.06,2.7,2.7,0,0,1-2.87-2.16C164.14,112.25,164.43,112.06,165.84,112.27Z" fill="#a365c9"/><path d="M173,113.75a.44.44,0,0,1,0-.87c2.37-.12,4.76,0,4.79,0a.44.44,0,0,1,.42.46.43.43,0,0,1-.46.41s-2.38-.11-4.71,0Z" fill="#fafafa"/><path d="M179.85,118.05a.38.38,0,0,1-.17,0,24.07,24.07,0,0,0-5.87-1.66.44.44,0,0,1,.1-.87,23.68,23.68,0,0,1,6.12,1.73.45.45,0,0,1,.23.58A.46.46,0,0,1,179.85,118.05Z" fill="#fafafa"/><path d="M176.86,120.65a.32.32,0,0,1-.14,0,19.93,19.93,0,0,1-4-2.08.44.44,0,1,1,.48-.73,20.24,20.24,0,0,0,3.8,2,.43.43,0,0,1,.27.55A.44.44,0,0,1,176.86,120.65Z" fill="#fafafa"/><path d="M162.78,112.61a.45.45,0,0,1-.19,0l-2.49-1.23a.44.44,0,0,1-.2-.58.44.44,0,0,1,.59-.2l2.49,1.23a.44.44,0,0,1-.2.83Z" fill="#fafafa"/><path d="M162.78,115.33h0l-5.83-.4a.44.44,0,1,1,.06-.87l5.83.4a.42.42,0,0,1,.41.46A.44.44,0,0,1,162.78,115.33Z" fill="#fafafa"/><path d="M160.3,119.18a.44.44,0,0,1-.18-.84l2.48-1.13a.44.44,0,0,1,.37.8l-2.49,1.13A.39.39,0,0,1,160.3,119.18Z" fill="#fafafa"/><path d="M170.33,123.5a.44.44,0,0,0-.44.44,1.12,1.12,0,0,1-.64.87,1.06,1.06,0,0,1-1.09.08c-.41-.24-.62-.87-.61-1.79,0-1.85,0-7.53,0-7.58a.41.41,0,0,0-.44-.44.43.43,0,0,0-.43.44c0,.06,0,5.72,0,7.57,0,.12,0,.23,0,.35s0,0,0,0-.17,1.25-1.15,1.32a.68.68,0,0,1-.53-.17,1.82,1.82,0,0,1-.42-1.11.46.46,0,0,0-.45-.42.44.44,0,0,0-.43.45,2.7,2.7,0,0,0,.71,1.73,1.52,1.52,0,0,0,1.05.39h.12a1.88,1.88,0,0,0,1.43-.78,1.87,1.87,0,0,0,.7.78,1.81,1.81,0,0,0,.88.23,2.21,2.21,0,0,0,1.09-.3,2,2,0,0,0,1.08-1.64A.44.44,0,0,0,170.33,123.5Z" fill="#a365c9"/><ellipse cx="177.49" cy="106.09" rx="3.63" ry="4.21" fill="#0d1019"/><ellipse cx="162.42" cy="103.54" rx="3.11" ry="3.6" fill="#0d1019"/><circle cx="163.77" cy="102.74" r="0.79" fill="#fafafa"/><circle cx="175.33" cy="104.81" r="0.79" fill="#fafafa"/><path d="M171.22,45.51V57H159.73a11.5,11.5,0,1,1,11.49-11.49Z" fill="#e2eaf2"/><path d="M159.53,38.14a7.37,7.37,0,1,0,7.36,7.37A7.37,7.37,0,0,0,159.53,38.14Zm6.3,9.12a15.15,15.15,0,0,0-4-5,7,7,0,0,0,.24-.93A9.4,9.4,0,0,1,166,44.35a7.24,7.24,0,0,1,.11,1.16A6.38,6.38,0,0,1,165.83,47.26Zm-8.68-2.12a2.09,2.09,0,0,1,.87-1.33,3.51,3.51,0,0,1,2.39-.31,11.45,11.45,0,0,1-1.09,1.62A10.55,10.55,0,0,1,157.15,45.14Zm-4.17.37c0-.24,0-.46,0-.69a10.56,10.56,0,0,0,1.6.65,4,4,0,0,1-1.51,1.27A6.26,6.26,0,0,1,153,45.51Zm7.81-2.77a4.46,4.46,0,0,0-3.22.38A3,3,0,0,0,156.34,45a10.36,10.36,0,0,1-1.48-.36,4.47,4.47,0,0,1,1.59-2.54,6.52,6.52,0,0,1,4.85-1A7.48,7.48,0,0,1,160.79,42.74Zm-5.36,3A13.72,13.72,0,0,0,157,46a8.75,8.75,0,0,1-3.3,2.59,7,7,0,0,1-.43-1A4.81,4.81,0,0,0,155.43,45.7Zm5.11,2.09a9.82,9.82,0,0,1-3.86,3.6,5.87,5.87,0,0,1-1-.57,11.53,11.53,0,0,0,4.15-4.1C160.06,47,160.29,47.38,160.54,47.79Zm.47.78c.17.29.34.6.52.92A4.22,4.22,0,0,1,158.82,52a5.84,5.84,0,0,1-1.12-.22A11,11,0,0,0,161,48.57Zm1,1.82c.16.32.31.64.45,1a7,7,0,0,1-1.7.58A5.9,5.9,0,0,0,162,50.39Zm-2-4.86c.14-.17.32-.41.53-.72a16.75,16.75,0,0,1,3.48,5.42,6.23,6.23,0,0,1-.89.72A35.93,35.93,0,0,0,160,45.53Zm1-1.43a10.27,10.27,0,0,0,.53-1.05,12.8,12.8,0,0,1,3.83,5.38,6.61,6.61,0,0,1-.7,1.1A18.29,18.29,0,0,0,161,44.1Zm4.28-1.68a8.83,8.83,0,0,0-3.09-2,5.9,5.9,0,0,0,0-.94A6.56,6.56,0,0,1,165.3,42.42ZM159.53,39a6.6,6.6,0,0,1,1.78.25,4.57,4.57,0,0,1,.08,1.1,7.33,7.33,0,0,0-5.46,1.19,5.25,5.25,0,0,0-1.84,2.9,9.42,9.42,0,0,1-.93-.42A6.56,6.56,0,0,1,159.53,39Zm-5.36,10.3A10.19,10.19,0,0,0,158,46h.05a10.9,10.9,0,0,0,1.25-.08l0,0c-.44.75-2.07,3.32-4.34,4.26A6,6,0,0,1,154.17,49.26Z" fill="#a365c9"/><path d="M170.55,52.51a1,1,0,0,1-.34,0c-.65-.21-1-1-1-2.12,0-.72-.18-1-.27-1s-.61.28-1,1.18c-.52,1.19-1.25,1.16-1.54,1.1-.79-.19-1.34-1.3-1.28-2.58a.42.42,0,0,1,.43-.38.41.41,0,0,1,.39.43c0,1,.34,1.66.65,1.73s.41-.2.6-.63c.51-1.16,1.24-1.79,1.92-1.65.34.07.92.4.92,1.81,0,.88.25,1.27.46,1.34s.6-.12,1-.69a1.46,1.46,0,0,1,1.25-.73,2.24,2.24,0,0,1,1.56,1.07.41.41,0,0,1-.69.44c-.12-.18-.52-.69-.9-.7a.83.83,0,0,0-.56.39A2.09,2.09,0,0,1,170.55,52.51Z" fill="#a365c9"/><path d="M122,54.51h21.77a1.12,1.12,0,0,1,1.12,1.12V69.9A1.13,1.13,0,0,1,143.81,71h-1.72l1,4.37L138.58,71H122a1.13,1.13,0,0,1-1.12-1.13V55.63A1.12,1.12,0,0,1,122,54.51Z" fill="#a365c9"/><circle cx="133.05" cy="62.95" r="5.56" fill="#fafafa"/><path d="M137,65a4.21,4.21,0,0,1-8,0,5.05,5.05,0,0,1,8,0Z" fill="#a365c9"/><path d="M134.73,59.8c.07-.28.29-1.25,0-1.42s-.71.22-1,.47a1.8,1.8,0,0,0-.66-.13,1.91,1.91,0,0,0-.68.13c-.32-.25-.82-.6-1-.47s-.05,1.2,0,1.45a1.85,1.85,0,1,0,3.37,0Z" fill="#a365c9"/><path d="M138.4,146H69L58.09,95.8a1.13,1.13,0,0,1,1.1-1.37H126a1.49,1.49,0,0,1,1.44,1.16Z" fill="#a365c9"/><path d="M78.42,146h83.27v-1.73a.94.94,0,0,0-.94-.93H78.42Z" fill="#a365c9"/><path d="M107.7,120.5l-4.86,1.79a.18.18,0,0,0-.06.32l1.71,1.26a9.49,9.49,0,0,1-3.63,1.95c-4.39,1.24-7.82-.39-10.7-5.06l-.26,3.75-4.1-.85S90,129.49,97,129.29a11.28,11.28,0,0,0,8.58-4.62l1.77,1.31a.18.18,0,0,0,.28-.16l.29-5.17A.17.17,0,0,0,107.7,120.5Z" fill="#fafafa"/><path d="M88.33,117.81l-1.71-1.26a9.2,9.2,0,0,1,3.63-1.94c4.39-1.25,7.82.38,10.69,5l.26-3.75,4.11.85s-4.19-5.83-11.19-5.63a11.32,11.32,0,0,0-8.59,4.62l-1.76-1.31a.18.18,0,0,0-.28.16l-.29,5.17a.17.17,0,0,0,.21.15l4.85-1.79A.18.18,0,0,0,88.33,117.81Z" fill="#fafafa"/><path d="M127.11,91.27V80.49a1.58,1.58,0,0,0-.78-1.36L117,73.75a1.55,1.55,0,0,0-1.56,0l-9.34,5.38a1.58,1.58,0,0,0-.78,1.36V91.27a1.58,1.58,0,0,0,.78,1.36L115.43,98A1.55,1.55,0,0,0,117,98l9.34-5.38A1.58,1.58,0,0,0,127.11,91.27Z" fill="#0d1019"/><path d="M110.59,88.14h14.09a2.66,2.66,0,0,0-2.15-4.23h-.09A3.09,3.09,0,0,0,117,81.35a3.6,3.6,0,1,0-6.83,2,2.55,2.55,0,0,0-.84-.14,2.66,2.66,0,0,0-1.31,5Z" fill="#e2eaf2"/><path d="M118.87,89.58h-1.39v-3.9A.7.7,0,0,0,117,85v0h-2.27v0a.71.71,0,0,0-.57.68v3.9h-1.26a.43.43,0,0,0-.31.74l2.94,2.93a.48.48,0,0,0,.68,0l2.93-2.93A.43.43,0,0,0,118.87,89.58Z" fill="#a365c9"/></svg>