<svg id="Layer_1" data-name="Layer 1" xmlns="http://www.w3.org/2000/svg" viewBox="0 0 260 180"><title>Flat Web Illustrations Pack - Scene 19</title><circle cx="130.48" cy="78.91" r="46.11" fill="#e2eaf2"/><path d="M146.73,116.27c-3.86,1.39-4.89,4.81-5.07,7.38A46.26,46.26,0,0,1,130.48,125a45.48,45.48,0,0,1-9.54-1,4.71,4.71,0,0,0-2.29-3.38c-3.83-2.37-4.19-3.1-5.11-4.74s.55-5.28-1.45-6.19-1.82-4.75.18-6.21,2.55-2.55.55-2.73-4.38-1.83-8-2.37S99.14,101.13,96,100c-2.86-1-4.17-4.81-8.65-4.68a46.17,46.17,0,0,1,13.66-51.95,10.16,10.16,0,0,1,6.66.83c2.56,1.46,1.09,3.47,3.64,4.2s5.48-.55,7.48,2.36,1.28,5.11,1.28,8.39,2,3.65,1.46,7.29-3.1,3.66-5.65,5.48-3.83,3.28-7.48,2.37-5.66.91-5.29,3.83.73,2.91-.54,6-3.65,4-2,6.19-1.28,5.66,1.82,6.21,4.19-.55,8.21,1.27,7.11,2,9.85,0,4.14-2.55,10-.91,4-.19,7.5,1.09,2.55,1.1,6,3.28,7.66,4,7.66,7.12S153.3,113.9,146.73,116.27Z" fill="#a365c9"/><path d="M175.72,87.85h0a45.28,45.28,0,0,1-4.92,13.42c-6.83.09-11.68-.83-13.67-2.52-2.38-2,2.36-7.11-3.1-9.67s-11.49.37-17.15-5.65-2.55-12.58,1.47-15,6.38-.91,10-1.1,6.2-2.18,10.76-2.18,6.93,4,11.13,6.75,5.1,1.87,4.55,7S173.72,86.61,175.72,87.85Z" fill="#a365c9"/><path d="M135.61,33.08c-.27.63-.58,1.42-.91,2.41-1.82,5.47-6.2,7.11-11.31,5.83s-3.46-3.46-6.93-4-3.83,1.46-1.46,3.47,6.39,4.37,4,4.95-2.73,0-8-2.52a36.24,36.24,0,0,0-6.53-2.38,46,46,0,0,1,31.15-7.75Z" fill="#a365c9"/><path d="M174.71,65.81A10.79,10.79,0,0,1,169,64.12,19.27,19.27,0,0,0,156,60.83c-4.55.37-4.38-2.55-6.57-1.27s-1.83,4.74-5.11,5.65-4.74-3.83-3.83-7.84,3.83-2,6-4.19-.73-6.21,4.2-7.12,4.74-.54,4.37-2.85-1.28-1.16-4-2.07-5.47,1.82-7.11,0c-1.39-1.54-1.73-3.58-.72-6.55A46.24,46.24,0,0,1,174.71,65.81Z" fill="#a365c9"/><path d="M178.42,146.54h0a5.13,5.13,0,0,1-7.24-2.27l-9.83-23.71c-.34-.81.57-2.07,2-2.82h0c1.44-.75,3-.79,3.46,0l13.87,21.61A5.13,5.13,0,0,1,178.42,146.54Z" fill="#a365c9"/><path d="M169.83,122.88,163.9,126a.43.43,0,0,1-.58-.15l-2.66-6.22a.46.46,0,0,1,.21-.58l5-2.6a.45.45,0,0,1,.59.16l3.6,5.73A.41.41,0,0,1,169.83,122.88Z" fill="#0d1019"/><path d="M153.71,85.56a15.19,15.19,0,1,1-7,1.73,15.17,15.17,0,0,1,7-1.73m0-5h0A20.16,20.16,0,1,0,171.6,91.4a20.12,20.12,0,0,0-17.89-10.82Z" fill="#0d1019"/><path d="M102.78,47.09l3.44,17.24a5.94,5.94,0,0,1-4.66,7L72.93,77a5.8,5.8,0,0,1-3.1-.21A5.92,5.92,0,0,1,66,72.36L62.51,55.12a5.28,5.28,0,0,1,4.15-6.21l29.9-6a5.31,5.31,0,0,1,6.22,4.15Z" fill="#0d1019"/><path d="M72,47.85,63.57,60.42l-1.06-5.3a5.28,5.28,0,0,1,4.15-6.21Z" fill="#a365c9"/><path d="M91.8,43.89l-22,32.92A5.92,5.92,0,0,1,66,72.36l-.41-2L81.88,45.87Z" fill="#a365c9"/><path d="M102.78,47.09l.94,4.73L89,73.81l-9.92,2,21.4-32.06A5.25,5.25,0,0,1,102.78,47.09Z" fill="#a365c9"/><path d="M105.7,61.75l.52,2.58a5.94,5.94,0,0,1-4.66,7L99,71.83Z" fill="#a365c9"/><path d="M97.1,45.66l-29.9,6a2.52,2.52,0,0,0-2,3l3.44,17.24a3.15,3.15,0,0,0,3.72,2.48L101,68.6a3.17,3.17,0,0,0,2.49-3.72l-3.44-17.25A2.51,2.51,0,0,0,97.1,45.66Z" fill="#fafafa"/><rect x="69.28" y="53.71" width="12.47" height="8.03" rx="4.02" transform="translate(-9.83 15.88) rotate(-11.28)" fill="#a365c9"/><path d="M88.4,53.17a.71.71,0,0,1-.14-1.4l9.14-1.86a.7.7,0,1,1,.28,1.38l-9.14,1.86Z" fill="#0d1019"/><path d="M89.33,56.76a.71.71,0,0,1-.15-1.4L95.77,54a.71.71,0,1,1,.3,1.38l-6.6,1.38A.36.36,0,0,1,89.33,56.76Z" fill="#0d1019"/><path d="M196.29,47h-42.1a1.3,1.3,0,0,0-1.3,1.3v11l-4.5,4.43h47.9a1.3,1.3,0,0,0,1.3-1.3V48.32A1.3,1.3,0,0,0,196.29,47Z" fill="#0d1019"/><path d="M166.54,56.21l1-4.62h1.87l-1.85,7.25h-1.62l-1.37-4.57-1.38,4.57h-1.61l-1.85-7.25h1.87l.94,4.61,1.33-4.61h1.4Z" fill="#fafafa"/><path d="M177.38,56.21l1-4.62h1.87l-1.85,7.25h-1.62l-1.37-4.57L174,58.84h-1.61l-1.85-7.25h1.87l.94,4.61,1.33-4.61h1.4Z" fill="#fafafa"/><path d="M188.22,56.21l.95-4.62H191l-1.84,7.25h-1.63l-1.37-4.57-1.38,4.57h-1.61l-1.85-7.25h1.87l1,4.61,1.32-4.61h1.4Z" fill="#fafafa"/></svg>