<svg id="Layer_1" data-name="Layer 1" xmlns="http://www.w3.org/2000/svg" viewBox="0 0 260 180"><title>Flat Web Illustrations Pack - Scene 21</title><path d="M163.47,107.49h0a.71.71,0,0,1,0-1c5.54-6.2,12.2-18.71,8.94-29.41S167.91,63,167.9,63l1.33-.48s1.18,3.29,4.5,14.15c3.43,11.26-3.49,24.32-9.25,30.77A.7.7,0,0,1,163.47,107.49Z" fill="#e2eaf2"/><path d="M167.28,56.32c3.29-.29,5.31,6.78,3.52,13.31a10,10,0,0,1-5.87-6.85C163.62,57.52,167.28,56.32,167.28,56.32Z" fill="#e2eaf2"/><path d="M173.05,76.89s-1.14-8.42,3.8-9.36,5.87,2.36,3.32,5.66S173.05,76.89,173.05,76.89Z" fill="#e2eaf2"/><path d="M173.38,80.78s.49-6.15-7-5.7-1,5.74,3,5.72Z" fill="#e2eaf2"/><path d="M173.34,90.12s.7-6.14-6.84-5.93-1.22,5.69,2.81,5.81Z" fill="#e2eaf2"/><path d="M168.91,99.81s2.52-5.64-4.73-7.72-2.89,5.06.92,6.39Z" fill="#e2eaf2"/><path d="M173.94,84.72s3.19-7.44,9.24-5.06-.62,6.61-4.6,6.44S173.94,84.72,173.94,84.72Z" fill="#e2eaf2"/><path d="M171.3,96.26s4.07-7,9.78-3.9-1.42,6.49-5.34,5.84S171.3,96.26,171.3,96.26Z" fill="#e2eaf2"/><path d="M165.34,105.28s4.8-6.51,10.15-2.81-2.13,6.3-6,5.22S165.34,105.28,165.34,105.28Z" fill="#e2eaf2"/><path d="M113.76,50.9c-1.06,3.13-8.34,2.15-13.62-2.11a10,10,0,0,1,8.63-2.64C114.12,47.06,113.76,50.9,113.76,50.9Z" fill="#e2eaf2"/><path d="M94.4,38.52c3.08,1.18,1.8,8.42-2.66,13.51a10,10,0,0,1-2.29-8.73C90.58,38,94.4,38.52,94.4,38.52Z" fill="#e2eaf2"/><path d="M76.63,54.61c2.83-1.72,7.76,3.74,9,10.39a10,10,0,0,1-8.29-3.56C73.89,57.3,76.63,54.61,76.63,54.61Z" fill="#e2eaf2"/><path d="M100.16,55.62c-1.14-3.1-8.4-1.9-13.54,2.51a10,10,0,0,0,8.7,2.38C100.63,59.44,100.16,55.62,100.16,55.62Z" fill="#e2eaf2"/><path d="M99.72,124.62a.69.69,0,0,1-1-.2,8.3,8.3,0,0,1-1.23-6.89c1.65-5.36,9.91-9.07,19-12.7,4.35-1.75,6.64-4.34,6.62-7.5,0-4.79-5.42-10.36-12.83-13.26L108,83.2c-11.86-4.61-22.11-8.58-23.2-17.32A14.41,14.41,0,0,1,88.26,54.7c3.47-4.11,9-6.62,15.19-6.88l.06,1.41c-5.79.26-11,2.58-14.17,6.39a13,13,0,0,0-3.13,10.09c1,7.89,10.87,11.72,22.32,16.16l2.24.88c8.07,3.15,13.72,9.14,13.74,14.57,0,2.65-1.28,6.32-7.51,8.82-8.73,3.51-16.68,7-18.15,11.81a6.84,6.84,0,0,0,1.07,5.7.71.71,0,0,1-.2,1Z" fill="#e2eaf2"/><path d="M96.1,64.67c-1.89-1.7-6.4,1.7-8.34,6.55a7.68,7.68,0,0,0,6.79-1.49C97.79,67.11,96.1,64.67,96.1,64.67Z" fill="#e2eaf2"/><path d="M99.56,68.18c-2.54.19-3.19,5.81-1,10.55a7.66,7.66,0,0,0,3.62-5.93C102.49,68.65,99.56,68.18,99.56,68.18Z" fill="#e2eaf2"/><path d="M106,73c-2.28,1.13-.77,6.58,3,10.16a7.68,7.68,0,0,0,1.12-6.86C108.86,72.31,106,73,106,73Z" fill="#e2eaf2"/><path d="M119,77.38c-2.53.29-3,5.93-.63,10.59a7.68,7.68,0,0,0,3.39-6.07C121.9,77.74,119,77.38,119,77.38Z" fill="#e2eaf2"/><path d="M130.33,88.4c-2.23-1.24-5.85,3.11-6.64,8.27a7.71,7.71,0,0,0,6.28-3C132.53,90.39,130.33,88.4,130.33,88.4Z" fill="#e2eaf2"/><path d="M130.11,102.6c-.8-2.42-6.41-1.69-10.48,1.57a7.65,7.65,0,0,0,6.63,2.06C130.38,105.55,130.11,102.6,130.11,102.6Z" fill="#e2eaf2"/><path d="M121.55,110.93c.49-2.18-4.07-4.18-8.62-3.57a6.77,6.77,0,0,0,4.07,4.56C120.41,113.28,121.55,110.93,121.55,110.93Z" fill="#e2eaf2"/><path d="M114.3,113.89c.49-2.18-4.07-4.18-8.61-3.57a6.74,6.74,0,0,0,4.06,4.56C113.16,116.23,114.3,113.89,114.3,113.89Z" fill="#e2eaf2"/><path d="M108.16,118.71c.49-2.18-4.07-4.17-8.62-3.57a6.77,6.77,0,0,0,4.07,4.56C107,121.06,108.16,118.71,108.16,118.71Z" fill="#e2eaf2"/><path d="M81.38,78.6c-.3-2.81,5.69-4.64,11.29-3.23a8.48,8.48,0,0,1-5.74,5.12C82.47,81.69,81.38,78.6,81.38,78.6Z" fill="#e2eaf2"/><path d="M92.66,85.34c-.8-2.7,4.77-5.58,10.53-5.19a8.51,8.51,0,0,1-4.73,6.06C94.29,88.19,92.66,85.34,92.66,85.34Z" fill="#e2eaf2"/><path d="M104,89c-.73-2.46,4.34-5.09,9.58-4.73a7.75,7.75,0,0,1-4.3,5.52C105.48,91.61,104,89,104,89Z" fill="#e2eaf2"/><path d="M111.56,92.09c.19-2.56,5.85-3.22,10.63-1a7.73,7.73,0,0,1-6,3.64C112,95,111.56,92.09,111.56,92.09Z" fill="#e2eaf2"/><path d="M115,96.84c1.23-1.79,5.66.13,8.23,3.76a6.55,6.55,0,0,1-5.93.13C114.11,99.2,115,96.84,115,96.84Z" fill="#e2eaf2"/><path d="M110.41,98.57c1.85-1.14,5.11,2.43,6,6.79a6.53,6.53,0,0,1-5.46-2.3C108.62,100.35,110.41,98.57,110.41,98.57Z" fill="#e2eaf2"/><path d="M104.28,101.44c1.85-1.14,5.11,2.42,6,6.79a6.53,6.53,0,0,1-5.46-2.3C102.49,103.22,104.28,101.44,104.28,101.44Z" fill="#e2eaf2"/><path d="M100.2,103.7c2.12-.45,4,4,3.37,8.4a6.56,6.56,0,0,1-4.38-4C97.91,104.79,100.2,103.7,100.2,103.7Z" fill="#e2eaf2"/><path d="M92.88,110c1.9-1.06,5,2.63,5.69,7a6.56,6.56,0,0,1-5.36-2.53C91,111.7,92.88,110,92.88,110Z" fill="#e2eaf2"/><path d="M99.29,101.71h0a.64.64,0,0,0-.56-.71C91.15,100,79,95.21,74.88,85.78s-5.29-12.49-5.3-12.52l-1.22.46s1.14,3,5.33,12.58c4.33,9.93,17,14.93,24.88,16A.64.64,0,0,0,99.29,101.71Z" fill="#e2eaf2"/><path d="M66,68.21c-2.48,1.77.34,7.92,5.5,11.42a9.17,9.17,0,0,0,0-8.31C69.29,66.87,66,68.21,66,68.21Z" fill="#e2eaf2"/><path d="M74.28,86S70,79.48,66,81.78s-2.7,5.16,1.06,5.94S74.28,86,74.28,86Z" fill="#e2eaf2"/><path d="M76.38,89s-4-4,1.51-8.2,4.16,3.39,1.33,5.79Z" fill="#e2eaf2"/><path d="M82,95.47s-4.16-3.87,1.23-8.24S87.5,90.48,84.75,93Z" fill="#e2eaf2"/><path d="M90.9,99.6s-5.14-2.44-1.32-8.23,5,1.8,3.19,5Z" fill="#e2eaf2"/><path d="M78.34,92.06s-6.67-3.3-9.48,2,4.39,4.25,7.07,1.76S78.34,92.06,78.34,92.06Z" fill="#e2eaf2"/><path d="M87.1,98.55s-7-2.46-9.17,3.12,4.87,3.69,7.23.89S87.1,98.55,87.1,98.55Z" fill="#e2eaf2"/><path d="M96.67,101.28s-7.26-1.67-8.78,4.11,5.25,3.13,7.29.09S96.67,101.28,96.67,101.28Z" fill="#e2eaf2"/><rect x="98.41" y="52.06" width="65.17" height="82.95" rx="3.78" transform="translate(-0.42 0.59) rotate(-0.26)" fill="#a365c9"/><rect x="103.52" y="57.16" width="54.67" height="8.79" rx="4.39" transform="translate(-0.28 0.59) rotate(-0.26)" fill="#0d1019"/><rect x="114.13" y="87.67" width="33.68" height="2.56" transform="translate(-0.4 0.59) rotate(-0.26)" fill="#0d1019"/><rect x="114.16" y="92.26" width="33.68" height="2.56" transform="translate(-0.42 0.59) rotate(-0.26)" fill="#0d1019"/><rect x="114.18" y="96.85" width="33.68" height="2.56" transform="translate(-0.44 0.59) rotate(-0.26)" fill="#0d1019"/><path d="M191.31,112l.1,21.95a7.42,7.42,0,0,1-7.37,7.44l-36.44.16a7.22,7.22,0,0,1-3.74-1,7.39,7.39,0,0,1-3.7-6.37l-.1-22a6.6,6.6,0,0,1,6.57-6.62l38.05-.17a6.61,6.61,0,0,1,6.63,6.56Z" fill="#0d1019"/><path d="M153.37,105.58,140.09,119l0-6.75a6.6,6.6,0,0,1,6.57-6.62Z" fill="#a365c9"/><path d="M178.63,105.47l-34.77,35.08a7.39,7.39,0,0,1-3.7-6.37v-2.57L166,105.53Z" fill="#a365c9"/><path d="M191.31,112l0,6-23.23,23.44-12.63.06,33.86-34.18A6.57,6.57,0,0,1,191.31,112Z" fill="#a365c9"/><path d="M191.39,130.65l0,3.3a7.42,7.42,0,0,1-7.37,7.44h-3.3Z" fill="#a365c9"/><path d="M184.7,108.9l-38.06.17a3.14,3.14,0,0,0-3.12,3.15l.1,21.94a4,4,0,0,0,4,3.93l36.43-.16a4,4,0,0,0,3.93-4l-.1-21.94A3.14,3.14,0,0,0,184.7,108.9Z" fill="#fafafa"/><rect x="147.59" y="113.52" width="15.56" height="10.03" rx="5.01" transform="translate(-0.54 0.71) rotate(-0.26)" fill="#a365c9"/></svg>