<svg id="Layer_1" data-name="Layer 1" xmlns="http://www.w3.org/2000/svg" viewBox="0 0 220 180"><title>Flat Web Illustrations Pack - Scene 22</title><path d="M128,41.77c-5.78-.23-11.1,7.16-10.4,15S115.07,68.58,113,72.51s-2.77,11.92,6.24,15.67,11.1,13.91,5.09,19-.7,12.6,8.32,15.2,14.52,6.76,6.56,13.69,5,10.87,5,10.87l39.53.69h14.33s2.54-7.4-1.85-11.56-8.32-5.31-7.4-12.25.69-10.63-5.08-17.1S177,97,179.32,90.41s3.17-8.89.93-15.68c-2.76-8.35-9.94-5.91-7.63-13.08S174,37.38,154.13,33.22,128,41.77,128,41.77Z" fill="#0d1019"/><path d="M156.39,72.52s-.15-4.59-3.86-3.42c0,0-5-1.72-12.93-8.32s-9.45-10.22-9.45-10.22c-2.54,2.4-4.69,6.06-6.3,11.12C120,73.81,117,84.27,132.77,89.91c0,0,5.81.73,10.44-2a13.79,13.79,0,0,0,6.46-8.75h0S155.05,79.35,156.39,72.52Z" fill="#eaa88e"/><path d="M83.41,97.12c.69-3.81-.15-6.79-2-8.94a14.67,14.67,0,0,1-2.7-5A2.51,2.51,0,0,0,77.75,87l.81,3.18a28.47,28.47,0,0,1-7-2.83c-3-1.85-4.39-2-5.55-3.46s-3.25-1.1-1.46.87-.27,3,4.35,5.31S83.41,97.12,83.41,97.12Z" fill="#d78a69"/><path d="M81.56,94c-4.16-3-3.23-2.79-7.86-3.59s-6.24-2.19-7.85-4.27-4.4-3.93-3,0S67,92.15,70,94s9,5.3,9,5.3,1.85,12.73,3.7,25.21,3.46,23.11,3.46,23.11H96.82l3.46-24.27s-4.85-8.78-9-17.1A35.06,35.06,0,0,0,81.56,94Z" fill="#eaa88e"/><path d="M63.8,65.63h0a2.14,2.14,0,0,1,2.07,1.58l3.19,11.62a4.62,4.62,0,0,1-1.81,5h0Z" fill="#e2eaf2"/><path d="M71.26,82.84h1a2.34,2.34,0,0,1,2.34,2.34v0a0,0,0,0,1,0,0H68.92a0,0,0,0,1,0,0v0A2.34,2.34,0,0,1,71.26,82.84Z" transform="translate(36.19 -20.59) rotate(21.72)" fill="#0a0d16"/><path d="M77.15,85.39h1a2.34,2.34,0,0,1,2.34,2.34v0a0,0,0,0,1,0,0H74.81a0,0,0,0,1,0,0v0a2.34,2.34,0,0,1,2.34-2.34Z" transform="translate(37.55 -22.58) rotate(21.72)" fill="#0a0d16"/><path d="M83,87.84h1a2.34,2.34,0,0,1,2.34,2.34v0a0,0,0,0,1,0,0H80.7a0,0,0,0,1,0,0v0A2.34,2.34,0,0,1,83,87.84Z" transform="translate(38.88 -24.59) rotate(21.72)" fill="#0a0d16"/><polygon points="61.22 63.72 65.96 83.84 85.26 94.23 86.96 90.41 68.91 82.92 63.8 63.72 61.22 63.72" fill="#a365c9"/><path d="M180.71,125.89c-3-12-11.55-16.64-17.79-19.64-4-1.93-9.12-3.48-12.71-5.41a7.65,7.65,0,0,1-4-7l.47-11.69c-3.33,4.95-8,2.92-13.91,4.44L131.89,96a5.41,5.41,0,0,1-1.53,3.23,16.26,16.26,0,0,1-5.58,3.81c-4.16,1.57-14.44,4.17-18.72,7.12-6.7,4.62-11.56,12-12.71,37.44h90.37A99.41,99.41,0,0,0,180.71,125.89Z" fill="#eaa88e"/><path d="M174.81,106.35c3.16-1.17-.84-3-2.88-2.67s-2.78,1.17-.45-1.66-4.83-2.16-9.16,0-3.17,3.29-3.17,3.29c3.15,10.77,3.17,35.32,3.17,35.32H114.74s0-24.55,3.17-35.32c0,0,1.16-1.13-3.17-3.29s-11.48-2.83-9.15,0,1.58,2-.46,1.66-6,1.5-2.87,2.67,4.63,1.43,2.3,2.44-3.8,2.88-1.64,2.88,4.83.67,2.5,1.67-4,4.32-.83,3.49,3.83,0,1.83,1.72-2.5,3.44.5,3.61c0,0-1.17,6.32-2.17,25.46h67.56c-1-19.14-2.16-25.46-2.16-25.46,3-.17,2.49-1.83.5-3.61s-1.34-2.55,1.83-1.72,1.49-2.49-.84-3.49.34-1.67,2.5-1.67.7-1.86-1.63-2.88S171.64,107.51,174.81,106.35Z" fill="#e2eaf2"/><path d="M141.7,140.63s3.55-12.89,20.24-13.17h5.25v16H141.7Z" fill="#e2eaf2"/><path d="M135.3,140.63s-3.56-12.89-20.25-13.17h-5.24v16H135.3Z" fill="#e2eaf2"/></svg>