<svg id="Layer_1" data-name="Layer 1" xmlns="http://www.w3.org/2000/svg" viewBox="0 0 260 180"><title>Flat Web Illustrations Pack - Scene 23</title><path d="M81.61,89.13a1,1,0,0,1-1-1V74.82a1,1,0,0,1,1-.95H109a1,1,0,1,1,0,1.91H82.57V88.17A1,1,0,0,1,81.61,89.13Z" fill="#e2eaf2"/><path d="M109,68.92H76.31a1,1,0,1,1,0-1.91H109a1,1,0,1,1,0,1.91Z" fill="#e2eaf2"/><path d="M81.61,98a5.41,5.41,0,1,1,5.4-5.4A5.41,5.41,0,0,1,81.61,98Zm0-8.89a3.49,3.49,0,1,0,3.49,3.49A3.49,3.49,0,0,0,81.61,89.13Z" fill="#e2eaf2"/><circle cx="72.71" cy="67.97" r="4.45" fill="#a365c9"/><path d="M132.09,37.71a5.41,5.41,0,1,1,5.4-5.4A5.41,5.41,0,0,1,132.09,37.71Zm0-8.89a3.49,3.49,0,1,0,3.49,3.49A3.49,3.49,0,0,0,132.09,28.82Z" fill="#e2eaf2"/><path d="M78.09,61.19a5.41,5.41,0,1,1,5.41-5.41A5.41,5.41,0,0,1,78.09,61.19Zm0-8.9a3.49,3.49,0,1,0,3.49,3.49A3.5,3.5,0,0,0,78.09,52.29Z" fill="#e2eaf2"/><path d="M176.47,69H149a1,1,0,0,1,0-1.91h26.48V54.67a1,1,0,1,1,1.91,0V68A1,1,0,0,1,176.47,69Z" fill="#e2eaf2"/><path d="M189.08,75.83H149a1,1,0,0,1,0-1.92h40a1,1,0,0,1,0,1.92Z" fill="#e2eaf2"/><path d="M176.47,55.63a5.41,5.41,0,1,1,5.41-5.41A5.41,5.41,0,0,1,176.47,55.63Zm0-8.9A3.49,3.49,0,1,0,180,50.22,3.5,3.5,0,0,0,176.47,46.73Z" fill="#e2eaf2"/><path d="M179.32,104.93a5.41,5.41,0,1,1,5.4-5.41A5.41,5.41,0,0,1,179.32,104.93Zm0-8.9a3.49,3.49,0,1,0,3.49,3.49A3.49,3.49,0,0,0,179.32,96Z" fill="#e2eaf2"/><path d="M125.23,118.22a5.41,5.41,0,1,1,5.41-5.4A5.41,5.41,0,0,1,125.23,118.22Zm0-8.89a3.49,3.49,0,1,0,3.49,3.49A3.49,3.49,0,0,0,125.23,109.33Z" fill="#e2eaf2"/><circle cx="192.68" cy="74.87" r="4.45" fill="#e2eaf2"/><path d="M125.23,109.11a1,1,0,0,1-1-1v-18a1,1,0,1,1,1.92,0v18A1,1,0,0,1,125.23,109.11Z" fill="#e2eaf2"/><path d="M132.09,55.63a1,1,0,0,1-1-1V36.75a1,1,0,0,1,1.91,0V54.67A1,1,0,0,1,132.09,55.63Z" fill="#e2eaf2"/><path d="M125.23,55.63a1,1,0,0,1-1-1v-17H111.33v5.22a1,1,0,0,1-1,1H90.11a1,1,0,1,1,0-1.92h19.3V36.75a1,1,0,0,1,1-1h14.86a1,1,0,0,1,1,1V54.67A1,1,0,0,1,125.23,55.63Z" fill="#e2eaf2"/><path d="M97.77,56.74H82.54a1,1,0,0,1,0-1.92H96.81V42.93a1,1,0,0,1,1.92,0V55.78A1,1,0,0,1,97.77,56.74Z" fill="#e2eaf2"/><path d="M179.32,96a1,1,0,0,1-1-1v-7.2h-7.2a1,1,0,0,1-1-1v-12a1,1,0,1,1,1.92,0V86h7.2a1,1,0,0,1,1,1v8.15A1,1,0,0,1,179.32,96Z" fill="#e2eaf2"/><circle cx="125.23" cy="112.82" r="2.47" fill="#0d1019"/><circle cx="176.47" cy="50.32" r="2.47" fill="#0d1019"/><circle cx="87.52" cy="42.63" r="3.15" fill="#0d1019"/><path d="M193.76,153.1H63.88a1,1,0,1,1,0-2H193.76a1,1,0,0,1,0,2Z" fill="#e2eaf2"/><path d="M166,140.17h0c-4.38,2.29-9.46.55-11.14-3.49l-15.13-36.47c-.51-1.25.89-3.17,3.1-4.33h0c2.22-1.16,4.6-1.21,5.33-.08L169.45,129C171.81,132.71,170.34,137.87,166,140.17Z" fill="#a365c9"/><path d="M153.42,105.76l-9.12,4.77a.64.64,0,0,1-.89-.23l-4.08-9.56a.68.68,0,0,1,.32-.89l7.65-4a.68.68,0,0,1,.91.24l5.53,8.81A.64.64,0,0,1,153.42,105.76Z" fill="#0d1019"/><path d="M128.64,48.36A23.37,23.37,0,1,1,117.84,51a23.34,23.34,0,0,1,10.8-2.67m0-7.66h0A31,31,0,1,0,143,99.2a31,31,0,0,0-14.39-58.5Z" fill="#a365c9"/><path d="M142.56,73.91H138V69h4.6a1,1,0,1,0,0-1.91H138V64.37A1.92,1.92,0,0,0,136,62.45h-3V58.76a1,1,0,1,0-1.91,0v3.69h-4.94V58.76a1,1,0,1,0-1.92,0v3.69h-2.59a1.92,1.92,0,0,0-1.92,1.92v2.69h-4.63a1,1,0,1,0,0,1.91h4.63v4.94h-4.63a1,1,0,1,0,0,1.92h4.63v2.91a1.92,1.92,0,0,0,1.92,1.91h2.59v4.23a1,1,0,1,0,1.92,0V80.65h4.94v4.23a1,1,0,1,0,1.91,0V80.65h3A1.92,1.92,0,0,0,138,78.74V75.83h4.6a1,1,0,1,0,0-1.92Z" fill="#0d1019"/><circle cx="110" cy="116.31" r="4.07" fill="#0d1019"/><circle cx="110.78" cy="107.63" r="1.74" fill="#0d1019"/><path d="M70.87,150.75c1-10.33,0-16.52,6.19-17s4.65,9.81,7.49,8.52,3.35-4.13,1.8-11.61-3.61-22.71,8.78-23,7.22,16.77,4.9,21.55,2.32,10.45,5.42,3.48,5.16-8.77,8.78-7,3.87,4.91,1.29,10.84-1,8.26,1.71,4.65,7.83-2.84,9.38-.52-1.8,10.07-1.8,10.07Z" fill="#0d1019"/></svg>