<svg id="Layer_1" data-name="Layer 1" xmlns="http://www.w3.org/2000/svg" viewBox="0 0 260 180"><title>Flat Web Illustrations Pack - Scene 24</title><rect x="68.4" y="50.22" width="106.02" height="69.45" rx="13.04" fill="#a365c9"/><rect x="77.55" y="73.95" width="87.72" height="6.39" fill="#fff"/><path d="M150.82,67H92a3,3,0,0,1-3-3V62.8a3,3,0,0,1,3-3h59.3a2.5,2.5,0,0,1,2.5,2.5V64A3,3,0,0,1,150.82,67ZM92,60.81a2,2,0,0,0-2,2V64a2,2,0,0,0,2,2h58.82a2,2,0,0,0,2-2v-1.7a1.5,1.5,0,0,0-1.5-1.5Z" fill="#fff"/><rect x="102.73" y="84.95" width="37.37" height="2.72" fill="#fff"/><rect x="95.92" y="97.55" width="50.98" height="11.22" fill="#fff"/><path d="M81.78,65.76a2.66,2.66,0,1,1,2.66-2.66A2.67,2.67,0,0,1,81.78,65.76Zm0-4.4a1.74,1.74,0,1,0,1.73,1.74A1.74,1.74,0,0,0,81.78,61.36Z" fill="#fafafa"/><path d="M85,66.93a.44.44,0,0,1-.33-.15L83,65a.46.46,0,1,1,.66-.63l1.69,1.77a.47.47,0,0,1,0,.65A.44.44,0,0,1,85,66.93Z" fill="#fafafa"/><circle cx="181.16" cy="38.04" r="1.51" fill="#e2eaf2"/><circle cx="176.51" cy="42.69" r="1.51" fill="#e2eaf2"/><circle cx="171.86" cy="47.34" r="1.51" fill="#e2eaf2"/><circle cx="185.63" cy="42.5" r="1.51" fill="#e2eaf2"/><circle cx="180.98" cy="47.15" r="1.51" fill="#e2eaf2"/><circle cx="176.32" cy="51.8" r="1.51" fill="#e2eaf2"/><circle cx="190.09" cy="46.96" r="1.51" fill="#e2eaf2"/><circle cx="185.44" cy="51.61" r="1.51" fill="#e2eaf2"/><rect x="143.2" y="59.62" width="44.92" height="81.9" rx="3.63" fill="#fafafa"/><path d="M184.2,57.42H147.08a4.91,4.91,0,0,0-4.91,4.91v76.24a4.91,4.91,0,0,0,4.91,4.91H184.2a4.91,4.91,0,0,0,4.91-4.91V62.33A4.91,4.91,0,0,0,184.2,57.42ZM187,137.05a4.47,4.47,0,0,1-4.47,4.47H148.77a4.47,4.47,0,0,1-4.47-4.47V64.49A4.47,4.47,0,0,1,148.77,60h4.17l1.62,2.17A4.34,4.34,0,0,0,158,63.94H173.9a4.34,4.34,0,0,0,3.47-1.74L179,60h3.52A4.47,4.47,0,0,1,187,64.49Z" fill="#0d1019"/><rect x="151.62" y="116.42" width="28.03" height="6.52" rx="0.72" fill="#a365c9"/><path d="M155.79,104v3.26l-2.19,2.4a3.23,3.23,0,0,0,2.19.86,3.26,3.26,0,1,0,0-6.52Z" fill="#a365c9"/><path d="M165.1,104v3.26h-3.26A3.26,3.26,0,1,0,165.1,104Z" fill="#a365c9"/><path d="M174.42,104v3.26l-2.5-2.07a3.25,3.25,0,1,0,2.5-1.19Z" fill="#a365c9"/><path d="M177.06,91.25H153.48a2.09,2.09,0,1,1,0-4.18h23.58a2.09,2.09,0,1,1,0,4.18Zm-23.58-3.53a1.44,1.44,0,0,0,0,2.88h23.58a1.44,1.44,0,0,0,0-2.88Z" fill="#a365c9"/><path d="M169.52,97.31H161a2.1,2.1,0,0,1,0-4.19h8.5a2.1,2.1,0,0,1,0,4.19ZM161,93.77a1.45,1.45,0,0,0,0,2.89h8.5a1.45,1.45,0,0,0,0-2.89Z" fill="#a365c9"/><circle cx="182.23" cy="64.86" r="1.85" fill="#a365c9"/><rect x="146.9" y="63.01" width="5.55" height="3.7" fill="#a365c9"/><path d="M83.29,140.89A6.86,6.86,0,0,1,76.44,134V109.82h2V134a4.9,4.9,0,1,0,9.8,0v-8.39a6.86,6.86,0,0,1,13.72,0v5.45a4.9,4.9,0,0,0,9.8,0V122.7a6.86,6.86,0,1,1,13.71,0v5.78a4.91,4.91,0,0,0,9.81,0v-8.39a6.86,6.86,0,0,1,6.85-6.86v2a4.91,4.91,0,0,0-4.9,4.9v8.39a6.86,6.86,0,1,1-13.71,0V122.7a4.9,4.9,0,0,0-9.8,0v8.39a6.86,6.86,0,1,1-13.72,0v-5.45a4.9,4.9,0,1,0-9.8,0V134A6.87,6.87,0,0,1,83.29,140.89Z" fill="#0d1019"/><path d="M77.41,105.31a1.95,1.95,0,1,1-2,2,2,2,0,0,1,2-2m0-2.6A4.56,4.56,0,1,0,82,107.26a4.55,4.55,0,0,0-4.56-4.55Z" fill="#0d1019"/></svg>