<svg id="Layer_1" data-name="Layer 1" xmlns="http://www.w3.org/2000/svg" viewBox="0 0 260 180"><title>Flat Web Illustrations Pack - Scene 26</title><rect x="73.43" y="48.04" width="113.13" height="74.81" rx="14.68" fill="#a365c9"/><circle cx="130.59" cy="121.91" r="10.05" fill="#0d1019"/><rect x="81.67" y="76.3" width="1.52" height="8.35" rx="0.76" fill="#e2eaf2"/><rect x="84.95" y="75.07" width="1.52" height="10.81" rx="0.76" fill="#e2eaf2"/><rect x="88.24" y="73.02" width="1.52" height="14.92" rx="0.76" fill="#e2eaf2"/><rect x="91.52" y="75.07" width="1.52" height="10.81" rx="0.76" fill="#e2eaf2"/><rect x="94.81" y="76.71" width="1.52" height="7.53" rx="0.76" fill="#e2eaf2"/><rect x="98.09" y="72.61" width="1.52" height="15.74" rx="0.76" fill="#e2eaf2"/><rect x="111.23" y="75.48" width="1.52" height="9.99" rx="0.76" fill="#e2eaf2"/><rect x="101.38" y="76.71" width="1.52" height="12.46" rx="0.76" fill="#e2eaf2"/><rect x="107.95" y="74.25" width="1.52" height="12.46" rx="0.76" fill="#e2eaf2"/><rect x="104.66" y="77.12" width="1.52" height="7.53" rx="0.76" fill="#e2eaf2"/><rect x="114.52" y="76.3" width="1.52" height="8.35" rx="0.76" fill="#e2eaf2"/><rect x="117.8" y="75.07" width="1.52" height="10.81" rx="0.76" fill="#e2eaf2"/><rect x="121.09" y="73.02" width="1.52" height="14.92" rx="0.76" fill="#e2eaf2"/><rect x="124.37" y="75.07" width="1.52" height="10.81" rx="0.76" fill="#e2eaf2"/><rect x="127.65" y="76.71" width="1.52" height="7.53" rx="0.76" fill="#e2eaf2"/><rect x="130.94" y="72.61" width="1.52" height="15.74" rx="0.76" fill="#e2eaf2"/><rect x="144.08" y="75.48" width="1.52" height="9.99" rx="0.76" fill="#e2eaf2"/><rect x="134.22" y="76.71" width="1.52" height="12.46" rx="0.76" fill="#e2eaf2"/><rect x="140.79" y="74.25" width="1.52" height="12.46" rx="0.76" fill="#e2eaf2"/><rect x="137.51" y="77.12" width="1.52" height="7.53" rx="0.76" fill="#e2eaf2"/><rect x="147.36" y="76.3" width="1.52" height="8.35" rx="0.76" fill="#e2eaf2"/><rect x="150.65" y="75.07" width="1.52" height="10.81" rx="0.76" fill="#e2eaf2"/><rect x="153.93" y="73.02" width="1.52" height="14.92" rx="0.76" fill="#e2eaf2"/><rect x="157.22" y="75.07" width="1.52" height="10.81" rx="0.76" fill="#e2eaf2"/><rect x="160.5" y="76.71" width="1.52" height="7.53" rx="0.76" fill="#e2eaf2"/><rect x="163.79" y="72.61" width="1.52" height="15.74" rx="0.76" fill="#e2eaf2"/><rect x="176.93" y="75.48" width="1.52" height="9.99" rx="0.76" fill="#e2eaf2"/><rect x="167.07" y="76.71" width="1.52" height="12.46" rx="0.76" fill="#e2eaf2"/><rect x="173.64" y="74.25" width="1.52" height="12.46" rx="0.76" fill="#e2eaf2"/><rect x="170.36" y="77.12" width="1.52" height="7.53" rx="0.76" fill="#e2eaf2"/><circle cx="147.85" cy="121.91" r="6.32" fill="#0d1019"/><circle cx="99.58" cy="121.91" r="6.32" fill="#0d1019"/><path d="M134.91,121.27l-6.9-4a.58.58,0,0,0-.87.5v8a.58.58,0,0,0,.87.5l6.9-4A.57.57,0,0,0,134.91,121.27Z" fill="#fff"/><path d="M98,121.54l3.09-1.78a.26.26,0,0,1,.39.22v3.57a.26.26,0,0,1-.39.22L98,122A.26.26,0,0,1,98,121.54Z" fill="#e2eaf2"/><circle cx="147.85" cy="121.76" r="2.04" fill="#fff"/><circle cx="113.35" cy="121.91" r="6.32" fill="#0d1019"/><rect x="111.53" y="119.96" width="3.62" height="3.62" fill="#fff"/><rect x="97.45" y="119.73" width="0.69" height="4.07" rx="0.35" fill="#e2eaf2"/><circle cx="161.69" cy="121.91" r="6.32" fill="#0d1019"/><path d="M163.3,121.54l-3.09-1.78a.26.26,0,0,0-.39.22v3.57a.26.26,0,0,0,.39.22L163.3,122A.26.26,0,0,0,163.3,121.54Z" fill="#e2eaf2"/><rect x="163.12" y="119.73" width="0.69" height="4.07" rx="0.35" transform="translate(326.94 243.53) rotate(-180)" fill="#e2eaf2"/></svg>