<svg xmlns="http://www.w3.org/2000/svg" viewBox="0 0 220 180"><title>Flat Web Illustrations Pack - Scene 27</title><path d="M78.17,95.56c-2.17,0-3.67-.51-4.28-1.65-.79-1.47-.82-4.29,8-11.77a1,1,0,0,1,1.28,1.52c-8.42,7.1-7.7,9.11-7.59,9.31,1.71,3.17,25.22-3.77,59.64-22.28s53.18-34.31,51.47-37.48c-.47-.88-4.14-1.41-14.92,2.12a1,1,0,0,1-.62-1.89c15.23-5,16.78-2.12,17.29-1.17,3.68,6.85-29.24,27.77-52.28,40.16C117,82.76,89.07,95.56,78.17,95.56Z" fill="#e2eaf2"/><circle cx="171.51" cy="34.38" r="2.72" fill="#e2eaf2"/><path d="M210.52,155.48h-161a1,1,0,1,1,0-2h161a1,1,0,0,1,0,2Z" fill="#e2eaf2"/><path d="M149.15,154.48s.51-3.85,6.15-3.85c0,0-2.05-3.46,2.56-6a8,8,0,0,1,8.21,0s1.53-4.76,7.68-3.82,5.13,4.89,5.13,4.89a7.3,7.3,0,0,1,8.21-1.07c4.6,2.39,2.18,5,2.18,5a4.92,4.92,0,0,1,4.73,4.79Z" fill="#e2eaf2"/><rect x="106.87" y="63.91" width="46" height="56.64" rx="23" fill="#eaa88e"/><path d="M151,92.22s.23-5.12,5.55-4.2,4,12.15-3.78,11.39Z" fill="#eaa88e"/><path d="M110.25,92.22S110,87.1,104.7,88s-4,12.15,3.78,11.39Z" fill="#eaa88e"/><path d="M127.56,105h4.94a2.52,2.52,0,0,0-2.47-1.82C127.54,103.19,127.56,105,127.56,105Z" fill="#d78a69"/><path d="M163.94,153.59h-67c-.47-11.42,2.08-15.17,5.31-18S113.78,131,117.48,131s4.16-.92,5.32-4.39,1.15-10.4,1.15-10.4h13s0,6.93,1.15,10.4,1.63,4.39,5.32,4.39,12,1.85,15.26,4.62S164.41,142.17,163.94,153.59Z" fill="#eaa88e"/><path d="M153.07,132.86A188.24,188.24,0,0,0,152,153.59H107.9c.06-5.9,0-14.54-.9-20.45a38.15,38.15,0,0,1,6-1.62v10.6h0a45.75,45.75,0,0,0,31.83.22l1.26-.46V131.24A40.49,40.49,0,0,1,153.07,132.86Z" fill="#e2eaf2"/><circle cx="119.23" cy="94.84" r="8.32" fill="#0d1019"/><circle cx="140.35" cy="94.84" r="8.32" fill="#0d1019"/><path d="M129.78,93.36a4.91,4.91,0,0,0-4.22,2.38,1.06,1.06,0,0,0,.91,1.61h0a1.08,1.08,0,0,0,.92-.53,2.79,2.79,0,0,1,4.77,0,1.09,1.09,0,0,0,.92.53h0a1.07,1.07,0,0,0,.92-1.61A4.91,4.91,0,0,0,129.78,93.36Z" fill="#0d1019"/><circle cx="116.32" cy="94.84" r="1.47" fill="#a365c9"/><circle cx="114.85" cy="91.08" r="0.54" fill="#e2eaf2"/><circle cx="112.68" cy="94.22" r="0.54" fill="#e2eaf2"/><circle cx="122.45" cy="90.54" r="0.54" fill="#e2eaf2"/><circle cx="144.44" cy="94.84" r="0.54" fill="#e2eaf2"/><circle cx="144.44" cy="98.83" r="0.54" fill="#e2eaf2"/><circle cx="137.13" cy="91.52" r="1.42" fill="#e2eaf2"/><circle cx="121.65" cy="93.95" r="0.27" fill="#e2eaf2"/><circle cx="116.24" cy="99.36" r="0.27" fill="#e2eaf2"/><circle cx="120.44" cy="88.08" r="0.27" fill="#e2eaf2"/><circle cx="146.63" cy="93.54" r="0.27" fill="#e2eaf2"/><circle cx="135.71" cy="97.62" r="0.27" fill="#e2eaf2"/><circle cx="141.56" cy="101.61" r="0.27" fill="#e2eaf2"/><circle cx="144.44" cy="89.16" r="0.27" fill="#e2eaf2"/><circle cx="139.63" cy="88.62" r="0.54" fill="#e2eaf2"/><circle cx="137.61" cy="95.62" r="0.97" fill="#e2eaf2"/><circle cx="123.81" cy="99.29" r="0.46" fill="#e2eaf2"/><path d="M127.42,93.38a2.62,2.62,0,0,1-.9.16,2.77,2.77,0,0,1-1.75-4.92A8.28,8.28,0,0,1,127.42,93.38Z" fill="#a365c9"/><path d="M122.59,96.83h0a.21.21,0,0,1-.13.19,1.51,1.51,0,0,0-.89.89.21.21,0,0,1-.19.13h0a.21.21,0,0,1-.19-.13,1.51,1.51,0,0,0-.89-.89.21.21,0,0,1-.13-.19h0a.21.21,0,0,1,.13-.19,1.51,1.51,0,0,0,.89-.89.21.21,0,0,1,.19-.13h0a.21.21,0,0,1,.19.13,1.51,1.51,0,0,0,.89.89A.21.21,0,0,1,122.59,96.83Z" fill="#e2eaf2"/><path d="M141.29,98.83h0a.15.15,0,0,1-.1.14,1.24,1.24,0,0,0-.7.7.15.15,0,0,1-.14.1h0a.15.15,0,0,1-.15-.1,1.22,1.22,0,0,0-.69-.7.16.16,0,0,1-.11-.14h0a.17.17,0,0,1,.11-.15,1.18,1.18,0,0,0,.69-.69.15.15,0,0,1,.15-.1h0a.15.15,0,0,1,.14.1,1.19,1.19,0,0,0,.7.69A.16.16,0,0,1,141.29,98.83Z" fill="#a365c9"/><polygon points="137.04 94.84 144.98 90.54 138.29 96.31 137.04 94.84" fill="#e2eaf2"/><path d="M63.61,154.48a5.35,5.35,0,0,1,5.55-4.73,6.16,6.16,0,0,1,2.31-7.33,5.67,5.67,0,0,1,7.4,0s1.39-5.85,6.94-4.7,4.62,6,4.62,6,3.26-4.25,7.41-1.31,2,6.17,2,6.17,3.81,0,4.27,5.89Z" fill="#e2eaf2"/><path d="M63.67,124.4a.91.91,0,0,1-.81-.51c-.21-.45-5.11-11-1.27-20a.9.9,0,0,1,1.13-.49c9.24,3.26,13.66,14,13.85,14.44A.9.9,0,0,1,76.1,119L64,124.32A.9.9,0,0,1,63.67,124.4Zm-.74-19c-2.43,6.74.22,14.44,1.21,16.9l10.41-4.58C73.4,115.35,69.52,108.19,62.93,105.42Z" fill="#e2eaf2"/><path d="M66.06,115.91a3.47,3.47,0,0,1-1.22-.23A3.36,3.36,0,0,1,63,113.9a3.36,3.36,0,0,1,1.72-4.41,3.36,3.36,0,0,1,4.42,1.72h0a3.36,3.36,0,0,1-1.72,4.41A3.34,3.34,0,0,1,66.06,115.91Zm0-4.91a1.58,1.58,0,0,0-.63.13,1.54,1.54,0,0,0-.82.86,1.55,1.55,0,0,0,.89,2,1.54,1.54,0,0,0,1.19,0,1.56,1.56,0,0,0,.83-.86,1.54,1.54,0,0,0,0-1.19h0A1.55,1.55,0,0,0,66.06,111Z" fill="#e2eaf2"/><path d="M73.34,114.64a.9.9,0,0,1-.67-1.5L75,110.57a4.53,4.53,0,0,0-4.49-.29.9.9,0,1,1-.88-1.56,6.41,6.41,0,0,1,7.28,1,.88.88,0,0,1,.3.62A.91.91,0,0,1,77,111l-3,3.3A.87.87,0,0,1,73.34,114.64Z" fill="#e2eaf2"/><path d="M61.69,119.75h0l-4.44,0a.89.89,0,0,1-.88-.91,6.41,6.41,0,0,1,4.15-6.08.9.9,0,0,1,.55,1.71,4.53,4.53,0,0,0-2.83,3.5l3.47,0a.91.91,0,0,1,.89.91A.9.9,0,0,1,61.69,119.75Z" fill="#e2eaf2"/><path d="M85,144.46a.89.89,0,0,1-.79-.48L71.71,120a.89.89,0,0,1,1.59-.82l12.49,23.94a.9.9,0,0,1-.38,1.21A.86.86,0,0,1,85,144.46Z" fill="#e2eaf2"/><path d="M80,146.93a.9.9,0,0,1-.83-.56L68.88,121.19a.9.9,0,1,1,1.66-.68l10.25,25.18a.91.91,0,0,1-.5,1.17A1,1,0,0,1,80,146.93Z" fill="#e2eaf2"/><path d="M75.74,146.93a.89.89,0,0,1-.84-.59l-8.82-24a.89.89,0,0,1,.53-1.15.91.91,0,0,1,1.15.53l8.82,24a.91.91,0,0,1-.84,1.21Z" fill="#e2eaf2"/><path d="M83.77,115.85c-.4,0-.75,0-1.1-.06l-.17,0a.89.89,0,0,1,.16-1.78h.17a6.33,6.33,0,0,0,5.7-2.35,7.49,7.49,0,0,1,3.22-2.42,7.71,7.71,0,0,1,2.23-.59.9.9,0,0,1,1,.8.91.91,0,0,1-.81,1,5.87,5.87,0,0,0-1.72.47,5.79,5.79,0,0,0-2.53,1.91,7.53,7.53,0,0,1-3.21,2.42A7.45,7.45,0,0,1,83.77,115.85Z" fill="#e2eaf2"/><path d="M85.79,120.7c-.4,0-.75,0-1.1-.06h-.17a.9.9,0,0,1-.81-1,.89.89,0,0,1,1-.82l.17,0a6.3,6.3,0,0,0,5.7-2.36,7.49,7.49,0,0,1,3.22-2.41,7.75,7.75,0,0,1,2.23-.6.9.9,0,0,1,.17,1.79,5.84,5.84,0,0,0-1.71.46,5.72,5.72,0,0,0-2.54,1.92,7.45,7.45,0,0,1-3.21,2.41A7.28,7.28,0,0,1,85.79,120.7Z" fill="#e2eaf2"/><path d="M87.81,125.57c-.39,0-.75,0-1.1-.07h-.16a.9.9,0,1,1,.15-1.79l.17,0a6.34,6.34,0,0,0,5.71-2.36A7.46,7.46,0,0,1,95.79,119a7.71,7.71,0,0,1,2.23-.59.89.89,0,1,1,.17,1.78,6,6,0,0,0-1.71.46,5.85,5.85,0,0,0-2.54,1.92,8.24,8.24,0,0,1-6.13,3Z" fill="#e2eaf2"/><circle cx="171.58" cy="113.45" r="3.35" fill="#e2eaf2"/><path d="M170.14,130.09l-.34,0c-2-.21-3.54-2.23-4.42-5.68a37.29,37.29,0,0,1,2.44-22.7c1.6-3.18,3.57-4.81,5.53-4.61s3.54,2.23,4.43,5.69a33.72,33.72,0,0,1,.55,11.53,33.61,33.61,0,0,1-3,11.16C173.82,128.46,172,130.09,170.14,130.09ZM173,98.86c-1.11,0-2.44,1.34-3.6,3.64A31.54,31.54,0,0,0,166.61,113a31.83,31.83,0,0,0,.5,10.9c.67,2.6,1.75,4.23,2.88,4.35s2.53-1.24,3.74-3.63a31.84,31.84,0,0,0,2.82-10.55h0a32.09,32.09,0,0,0-.51-10.9c-.67-2.6-1.75-4.22-2.88-4.35Z" fill="#e2eaf2"/><path d="M162.33,125.89a3.94,3.94,0,0,1-3.06-1.19c-1.33-1.46-1.15-4,.48-7.18a37.39,37.39,0,0,1,16.93-15.31c3.32-1.31,5.88-1.22,7.2.24,3,3.28-1.78,10.77-7.75,16.17h0C171.66,122.65,166.09,125.89,162.33,125.89Zm18.49-22.82a9.89,9.89,0,0,0-3.48.81,35.63,35.63,0,0,0-16,14.46c-1.23,2.38-1.51,4.32-.74,5.16,1.59,1.76,7.86-.37,14.33-6.21s9.21-11.88,7.62-13.64A2.3,2.3,0,0,0,180.82,103.07ZM175.53,118h0Z" fill="#e2eaf2"/><path d="M180.5,126.33a11,11,0,0,1-4.4-1.14,33.69,33.69,0,0,1-9.33-6.81c-5.68-5.69-10-13.41-6.93-16.53s10.85,1.24,16.54,6.93a33.6,33.6,0,0,1,6.81,9.33c1.47,3.24,1.51,5.8.12,7.2A3.82,3.82,0,0,1,180.5,126.33ZM162.67,102.6a2.16,2.16,0,0,0-1.56.51c-1.67,1.68.76,7.84,6.93,14a31.92,31.92,0,0,0,8.81,6.45c2.44,1.11,4.38,1.29,5.19.48s.63-2.75-.49-5.19a31.66,31.66,0,0,0-6.44-8.81C170.21,105.14,165.32,102.6,162.67,102.6Z" fill="#e2eaf2"/><path d="M141.54,75.77s0,5.32-13.87,8.09S111.26,82,111.26,82s-.33,2.64-2.31,2.74l-1,11.13L105,85.82s-12.49,1.51-13.64-10c0,0-16.19-7.4-8.33-28.9s35.14-28.43,49.48-15c0,0,2.54-9.54,18.49-6.85S166.51,39.7,166.51,39.7s13,.3,15.49,20.5-19.22,29.21-26.6,26.43l-2.53,10.91L151,81.32S144.09,80.62,141.54,75.77Z" fill="#0d1019"/><circle cx="147.84" cy="53.57" r="5.03" fill="#a365c9"/><path d="M142,55.38a13,13,0,0,0-1.81,3.25,1,1,0,0,0,0,.65c0,.08.09.07.3.1A4.64,4.64,0,0,0,142,59a22.48,22.48,0,0,0,3.25-1.71,37.21,37.21,0,0,0,3.09-2.09c1-.72,2-1.5,2.94-2.31a31,31,0,0,0,2.7-2.55,12.05,12.05,0,0,0,1.12-1.4,3.58,3.58,0,0,0,.38-.72.77.77,0,0,0,0-.48c0-.1-.28-.21-.56-.22a4.49,4.49,0,0,0-.89,0,13.77,13.77,0,0,0-1.86.41,8.64,8.64,0,0,1,1.74-.89,3.88,3.88,0,0,1,1-.25,1.52,1.52,0,0,1,1.22.3,1.47,1.47,0,0,1,.32,1.33,4.32,4.32,0,0,1-.35,1,10.35,10.35,0,0,1-1.07,1.72,27.67,27.67,0,0,1-5.66,5.42,23.89,23.89,0,0,1-7,3.67,5,5,0,0,1-2.19.21,1.22,1.22,0,0,1-.33-.1c-.12-.07-.23-.08-.34-.2a1.15,1.15,0,0,1-.44-.7,2,2,0,0,1,.22-1.22A9.66,9.66,0,0,1,142,55.38Z" fill="#eaa88e"/><circle cx="105.02" cy="43.52" r="2.95" fill="#a365c9"/><circle cx="112.68" cy="33.12" r="1.47" fill="#e2eaf2"/><circle cx="99.27" cy="58.6" r="1.47" fill="#e2eaf2"/><circle cx="114.15" cy="75.41" r="1.47" fill="#e2eaf2"/><circle cx="113.22" cy="53.33" r="0.54" fill="#e2eaf2"/><circle cx="87.62" cy="47.8" r="0.54" fill="#e2eaf2"/><circle cx="139.63" cy="39.5" r="1.07" fill="#e2eaf2"/><circle cx="155.94" cy="66.39" r="0.54" fill="#e2eaf2"/><circle cx="164" cy="70.97" r="1.07" fill="#e2eaf2"/><circle cx="156.68" cy="79.24" r="0.54" fill="#e2eaf2"/><polygon points="171.55 54.03 172.43 56.49 174.79 55.37 173.67 57.73 176.13 58.6 173.67 59.48 174.79 61.84 172.43 60.72 171.55 63.18 170.68 60.72 168.31 61.84 169.44 59.48 166.97 58.6 169.44 57.73 168.31 55.37 170.68 56.49 171.55 54.03" fill="#a365c9"/><path d="M127.56,49.68h0a.32.32,0,0,1-.21.29,2.43,2.43,0,0,0-1.4,1.41.33.33,0,0,1-.3.2h0a.31.31,0,0,1-.29-.2A2.43,2.43,0,0,0,124,50a.31.31,0,0,1-.21-.29h0a.32.32,0,0,1,.21-.3,2.42,2.42,0,0,0,1.4-1.4.31.31,0,0,1,.29-.2h0a.33.33,0,0,1,.3.2,2.42,2.42,0,0,0,1.4,1.4A.34.34,0,0,1,127.56,49.68Z" fill="#e2eaf2"/></svg>