<svg id="Layer_1" data-name="Layer 1" xmlns="http://www.w3.org/2000/svg" viewBox="0 0 260 180"><title>Flat Web Illustrations Pack - Scene 28</title><path d="M177.05,76.3,133,36.55a2.57,2.57,0,0,0-3.44,0l-44,39.75v58.23a1.68,1.68,0,0,0,1.67,1.68h88.13a1.68,1.68,0,0,0,1.68-1.68Z" fill="#a365c9"/><path d="M92.39,76.92l37.65-34a1.89,1.89,0,0,1,2.53,0l37.65,34a1.88,1.88,0,0,1-.21,3l-37.65,25.33a1.89,1.89,0,0,1-2.11,0L92.6,79.89A1.89,1.89,0,0,1,92.39,76.92Z" fill="#fafafa"/><path d="M107.05,63.9l2.64-.84a1.39,1.39,0,0,0,.91-1.76l-5-15.92a1.4,1.4,0,0,0-1.76-.91L76.78,53a1.4,1.4,0,0,0-.91,1.76l5,15.92a1.4,1.4,0,0,0,1.76.91l18.69-5.92,9,4.51a.18.18,0,0,0,.23-.25Z" fill="#e2eaf2"/><path d="M99.94,54.39a3.93,3.93,0,0,1-.25,3,3.38,3.38,0,0,1-.24.41l-4.29,6.31L88,61.42a3.43,3.43,0,0,1-.44-.19,4,4,0,0,1-1.93-2.31A3.94,3.94,0,0,1,90.8,54l1.33.5.79-1.17a3.94,3.94,0,0,1,7,1Z" fill="#a365c9"/><path d="M68.79,103.56a1.41,1.41,0,0,1-.41-.07,1.25,1.25,0,0,1-.78-1.6l4.76-13.84a1.25,1.25,0,1,1,2.37.82L70,102.71A1.26,1.26,0,0,1,68.79,103.56Z" fill="#e2eaf2"/><circle cx="66.19" cy="92.14" r="2.6" fill="#e2eaf2"/><circle cx="75.06" cy="100.79" r="2.6" fill="#e2eaf2"/><path d="M186.23,97.77a1.24,1.24,0,0,1-.82-.31,1.25,1.25,0,0,1-.12-1.77l9.59-11a1.26,1.26,0,0,1,1.9,1.65l-9.6,11A1.25,1.25,0,0,1,186.23,97.77Z" fill="#e2eaf2"/><circle cx="187.64" cy="86.12" r="2.6" fill="#e2eaf2"/><circle cx="192.62" cy="97.46" r="2.6" fill="#e2eaf2"/><path d="M75.76,129.37a1.28,1.28,0,0,1-.9-.38L64.59,118.57a1.26,1.26,0,0,1,1.79-1.77l10.28,10.43a1.25,1.25,0,0,1,0,1.77A1.21,1.21,0,0,1,75.76,129.37Z" fill="#e2eaf2"/><circle cx="65.51" cy="125.91" r="2.6" fill="#e2eaf2"/><circle cx="77.2" cy="121.82" r="2.6" fill="#e2eaf2"/><circle cx="166.34" cy="62.55" r="11.76" fill="#e2eaf2"/><path d="M161.06,58.63l1.14,9.73h1.3v-8.6s1.89.87,2.27,4.06.43,4.54.43,4.54H173a1.23,1.23,0,0,0-1.24-1.24h-.22V65.9a.79.79,0,0,0-.78-.79h0a.79.79,0,0,0-.78.79v1.32h-2s0-4.38-2.06-7.19a10,10,0,0,0-4.39-3.26.6.6,0,0,0-.8.56Z" fill="#0d1019"/><path d="M139.53,72.4l.93-4.49a1.67,1.67,0,0,0-.52-1.61l-5.87-5.23a1.69,1.69,0,0,0-1.64-.35l-5.08,1.68a1.62,1.62,0,0,0-.68.45l-10.74,12a1.55,1.55,0,0,0,.12,2.2l9.74,8.69a1.55,1.55,0,0,0,2.2-.13l11.17-12.52A1.59,1.59,0,0,0,139.53,72.4Zm-5.16-6.05a1.34,1.34,0,1,1,1.9-.11A1.34,1.34,0,0,1,134.37,66.35Z" fill="#0d1019"/><path d="M141,58.94l-.94-.83a.43.43,0,0,0-.67.1l-4.16,6.84a.24.24,0,0,0,.35.31l6.33-4.9a.45.45,0,0,0,0-.69Z" fill="#a365c9"/><path d="M121.61,76.29a.9.9,0,0,1-.21-1.78l11.23-2.65a.89.89,0,0,1,1.09.67.91.91,0,0,1-.67,1.09l-11.23,2.65Z" fill="#e2eaf2"/><circle cx="127.26" cy="69.05" r="1.87" fill="#e2eaf2"/><circle cx="127.09" cy="78.82" r="1.87" fill="#e2eaf2"/><path d="M146.91,103.08c3.49-3.58,7.82.4,10.51,4.32s3.18,5.87,6.36,5.13-1-3.91-1-6.72,4.65-6.48,7.58-1.59,3.18,7.46,4.65,6.54,0-4,1.71-6.13c3.12-3.86,6.73-.51,8.16,2.62,3.41,7.4,4.35,19.34,3.06,24.63-3.94,16-22.87,15-32.25,4.37q-8.07-9.17-4.4-11.74c2.44-1.71,6.11,2.94,7.82,0s-4.15-5.05-8.8-8.64S143.48,106.58,146.91,103.08Z" fill="#0d1019"/></svg>