<svg id="Layer_1" data-name="Layer 1" xmlns="http://www.w3.org/2000/svg" viewBox="0 0 260 180"><title>Flat Web Illustrations Pack - Scene 29</title><path d="M153,90.64h40.16A7.59,7.59,0,0,0,187,78.58h-.26a8.79,8.79,0,0,0-15.64-7.3,10.27,10.27,0,0,0-20.49,1.1,10.15,10.15,0,0,0,1,4.47,7.69,7.69,0,0,0-2.4-.39,7.58,7.58,0,0,0-3.74,14.17Z" fill="#e2eaf2"/><path d="M108.1,138.12H64.34A8.26,8.26,0,0,1,71,125a1.37,1.37,0,0,1,.29,0,9.37,9.37,0,0,1-.29-2.31A9.58,9.58,0,0,1,88.33,117a11.2,11.2,0,0,1,22.33,1.2,11,11,0,0,1-1.12,4.87,8.46,8.46,0,0,1,2.62-.42,8.26,8.26,0,0,1,4.07,15.44Z" fill="#e2eaf2"/><path d="M89.45,65.46h45.94a11.1,11.1,0,0,0,2.31-10.53c-1.8-6.41-10.27-9.56-12.83-2,0,0-3.4-4.21-11.07-3.18S106.13,57,106.13,57,94.07,53.65,89.45,65.46Z" fill="#e2eaf2"/><path d="M137.56,119.55a6,6,0,0,1-12.1,0Z" fill="#a365c9"/><path d="M113.8,114.38h35.42l-2.11-4.72a6.85,6.85,0,0,1-.17-5A21.28,21.28,0,0,0,148,97.9c0-9.45-6.05-17.27-13.94-18.7V75.59a2.58,2.58,0,0,0-5.16,0V79.2C121,80.63,115,88.45,115,97.9a21.28,21.28,0,0,0,1.08,6.76,6.85,6.85,0,0,1-.16,5Z" fill="#a365c9"/><circle cx="158.6" cy="56.99" r="15.11" fill="#a365c9"/><path d="M151.66,52.47a3.7,3.7,0,0,1,2.43-.77,3.92,3.92,0,0,1,1.76.36,2.49,2.49,0,0,1,1.48,2.36,2.47,2.47,0,0,1-.45,1.5,2.25,2.25,0,0,1-1.1.83v0a2.39,2.39,0,0,1,1.28.9,3.17,3.17,0,0,1,.07,3.17,2.68,2.68,0,0,1-1.14,1,4.6,4.6,0,0,1-4.4-.43,3,3,0,0,1-1.06-2.37h1.92a1.5,1.5,0,0,0,.47,1.11,1.73,1.73,0,0,0,1.22.41,1.46,1.46,0,0,0,1.1-.4,1.42,1.42,0,0,0,.39-1,1.34,1.34,0,0,0-.54-1.21,2.91,2.91,0,0,0-1.66-.37H153V56h.41c1.33,0,2-.45,2-1.34a1.22,1.22,0,0,0-.36-.94,1.42,1.42,0,0,0-1-.34,1.38,1.38,0,0,0-1,.36,1.46,1.46,0,0,0-.42.91h-1.93A2.9,2.9,0,0,1,151.66,52.47Z" fill="#fafafa"/><path d="M166.67,58.06H164v2.73h-1.86V58.06h-2.66V56.34h2.66V53.6H164v2.74h2.66Z" fill="#fafafa"/><path d="M209.94,134.25H153a13.74,13.74,0,0,1-2.86-13c2.23-8,12.73-11.86,15.91-2.43,0,0,4.21-5.21,13.72-3.94s9.51,8.92,9.51,8.92S204.21,119.62,209.94,134.25Z" fill="#e2eaf2"/><path d="M50.06,100.13h55.49a13.41,13.41,0,0,0,2.78-12.71c-2.16-7.74-12.39-11.54-15.49-2.36,0,0-4.1-5.07-13.37-3.83s-9.26,8.68-9.26,8.68S55.64,85.87,50.06,100.13Z" fill="#e2eaf2"/><path d="M105.51,69.82h0a.53.53,0,0,1-.34.48,3.9,3.9,0,0,0-2.25,2.25.52.52,0,0,1-.47.33h0a.52.52,0,0,1-.47-.33,3.9,3.9,0,0,0-2.25-2.25.52.52,0,0,1-.33-.48h0a.51.51,0,0,1,.33-.47A3.9,3.9,0,0,0,102,67.1a.52.52,0,0,1,.47-.33h0a.52.52,0,0,1,.47.33,3.9,3.9,0,0,0,2.25,2.25A.52.52,0,0,1,105.51,69.82Z" fill="#0d1019"/><path d="M119.73,68.8h0a.64.64,0,0,1-.41.59,4.85,4.85,0,0,0-2.8,2.81.65.65,0,0,1-.6.41h0a.65.65,0,0,1-.59-.41,4.85,4.85,0,0,0-2.8-2.81.65.65,0,0,1-.41-.59h0a.65.65,0,0,1,.41-.59,4.83,4.83,0,0,0,2.8-2.8.64.64,0,0,1,.59-.41h0a.64.64,0,0,1,.6.41,4.83,4.83,0,0,0,2.8,2.8A.64.64,0,0,1,119.73,68.8Z" fill="#0d1019"/><path d="M113.55,81.08h0a.84.84,0,0,1-.54.77,6.38,6.38,0,0,0-3.67,3.67.83.83,0,0,1-.77.54h0a.84.84,0,0,1-.77-.54,6.36,6.36,0,0,0-3.66-3.67.84.84,0,0,1-.55-.77h0a.84.84,0,0,1,.55-.78,6.32,6.32,0,0,0,3.66-3.66.84.84,0,0,1,.77-.54h0a.83.83,0,0,1,.77.54A6.34,6.34,0,0,0,113,80.3.85.85,0,0,1,113.55,81.08Z" fill="#0d1019"/><path d="M158.94,96.41h0a.62.62,0,0,1-.39.56,4.61,4.61,0,0,0-2.67,2.66.61.61,0,0,1-.56.39h0a.62.62,0,0,1-.56-.39A4.57,4.57,0,0,0,152.11,97a.61.61,0,0,1-.4-.56h0a.6.6,0,0,1,.4-.56,4.6,4.6,0,0,0,2.65-2.66.62.62,0,0,1,.56-.39h0a.61.61,0,0,1,.56.39,4.63,4.63,0,0,0,2.67,2.66A.61.61,0,0,1,158.94,96.41Z" fill="#0d1019"/><path d="M170.9,103h0a1,1,0,0,1-.64.92,7.48,7.48,0,0,0-4.35,4.34,1,1,0,0,1-.91.64h0a1,1,0,0,1-.91-.64,7.46,7.46,0,0,0-4.34-4.34,1,1,0,0,1-.64-.92h0a1,1,0,0,1,.64-.91,7.5,7.5,0,0,0,4.34-4.33,1,1,0,0,1,.91-.64h0a1,1,0,0,1,.91.64,7.53,7.53,0,0,0,4.34,4.33A1,1,0,0,1,170.9,103Z" fill="#0d1019"/></svg>