<svg id="Layer_1" data-name="Layer 1" xmlns="http://www.w3.org/2000/svg" viewBox="0 0 220 180"><title>Flat Web Illustrations Pack - Scene 30</title><path d="M99.85,90.92c-.87,8.47-6.47,9.81-13.63,14s-9,14.91,2.31,18.89,20.75-5.27,34.41,0,26.36,8.38,32.6-9.18S167.1,87.94,152,84.39,134,72.46,121.52,70,101,79.72,99.85,90.92Z" fill="#0d1019"/><path d="M165.71,98.51c1,4.88.57,4.3,3,7.88S179.11,121,179.11,121s-5.32,7.63-22.65,5.43a63.72,63.72,0,0,0-5.21-7.16c-1.83-1.85-1.37-2.54-3.1-2.66s-7.28-4.27-12.25-9.13a32.29,32.29,0,0,1-7.05-10.21s-5.86-6.54-8.36-9.31-2.82-4.12-1.84-6,4.6-.29,7.11,2.53,5.63,5.83,5.63,5.83l.65-.46s-7.35-7.28-10.47-9.59-5.33-4.62-3.88-6.93,4.81-.81,10.12,4.85,7.63,7.3,7.63,7.3l.58-1S125.4,75,121.52,71.53s-5.74-4.45-4.28-7.15,6.36,1.48,10,4.62,12.27,11.29,12.27,11.29l.66-1.43s-16.95-15.33-20.41-18.1-.54-8.32,4.64-4.27,15.77,12.71,19.77,16.05,9.73,6.84,14.2,11.85S165.71,98.51,165.71,98.51Z" fill="#d78a69"/><path d="M150.38,97.61a8.75,8.75,0,0,0,11.86,8.08c3.08-1.24,4.4-4,4-7.81-.62-5.85-3.39-14.32-3.85-17.25s-2.93-5.85-5.24-9.93-3.85-6.32-3.85-6.32-2.47,6.7,1.07,11.63v8.16S150.31,91.22,150.38,97.61Z" fill="#eaa88e"/><rect x="122.21" y="42.88" width="29.8" height="54.34" rx="2.41" fill="#fafafa"/><path d="M149.41,41.42H124.78a3.26,3.26,0,0,0-3.26,3.26V95.26a3.25,3.25,0,0,0,3.26,3.25h24.63a3.25,3.25,0,0,0,3.26-3.25V44.68A3.26,3.26,0,0,0,149.41,41.42Zm1.84,52.83a3,3,0,0,1-3,3H125.9a3,3,0,0,1-3-3V46.11a3,3,0,0,1,3-3h2.77l1.08,1.44a2.85,2.85,0,0,0,2.3,1.15h10.52a2.88,2.88,0,0,0,2.31-1.15L146,43.15h2.34a3,3,0,0,1,3,3Z" fill="#a365c9"/><path d="M138.6,49.9a8.29,8.29,0,0,1,7.78,4.86c1.84,3.82,1.61,6.07,3.85,10.41a36.44,36.44,0,0,0,4.15,6.57A16.69,16.69,0,0,1,149.07,76l-1.15-2a5.34,5.34,0,0,0,.53,2.55s-1.77,2.39-8.31,2.24h-5.93a13.94,13.94,0,0,1-7.09-10.4C126.12,61,128.66,50.27,138.6,49.9Z" fill="#0a0d16"/><path d="M138.9,54.37c2.93,0,4.93,1.92,5.16,6.16s.31,7.86-5.54,8.32v2.23a4.85,4.85,0,0,1-4.78-.38V63.92a2.36,2.36,0,0,1-1.69-2.7s.46-1.46,1.62-.77C133.67,60.45,133.36,54.37,138.9,54.37Z" fill="#eaa88e"/><path d="M127.81,79.24h18.56s.16-6.77-7.85-8.16c0,0-1.7.77-4.78-.38C133.74,70.7,128.28,71.39,127.81,79.24Z" fill="#e2eaf2"/><circle cx="130.82" cy="88.95" r="4.01" fill="#a365c9"/><path d="M133.44,87.17a.29.29,0,0,0-.42,0l-2.66,2.65-1.7-1.71a.31.31,0,0,0-.42,0,.29.29,0,0,0,0,.42l1.91,1.92a.3.3,0,0,0,.21.09.31.31,0,0,0,.22-.09l2.86-2.86A.31.31,0,0,0,133.44,87.17Z" fill="#fafafa"/><circle cx="143.92" cy="88.95" r="4.01" fill="#a365c9"/><path d="M144.35,89l1.36-1.36a.3.3,0,1,0-.42-.42l-1.37,1.36-1.4-1.41a.3.3,0,0,0-.43.43L143.5,89l-1.37,1.37a.3.3,0,1,0,.42.42l1.37-1.37,1.34,1.33a.27.27,0,0,0,.24.12.3.3,0,0,0,.3-.3.29.29,0,0,0-.09-.21Z" fill="#fafafa"/><path d="M119,85.71c1.84,1.62,5.31,3.09,6.77,1.55s-.38-4-2.46-5.4-3.47-1.23-4.62,0S119,85.71,119,85.71Z" fill="#eaa88e"/><path d="M116.88,77.4c1.25,1.44,2.92,3.39,4.69,2.77s3.55-2.39,2.47-4.85-4.17-4.75-5.84-2.78C116.78,74.24,116.24,76.66,116.88,77.4Z" fill="#eaa88e"/><path d="M128.59,150l-2-9.62s2.46-.28,6.86-6.75S147.57,114,147.57,114a9.12,9.12,0,0,0-8,.2c-4.32,2.18-7.72,7.43-7.72,7.43s.44-10.91,1.1-19.6.89-13.51-2.26-14.1-4.25,10.71-4.78,14.1-2,9.72-2,9.72-1,.8-1-.79,1.23-6.8-.69-8.32-4.67-.68-5.06,2.59-.72,4.88-.87,5.73-.91.85-.82-.68.85-5,0-6.87-4.52-2-5.12,1.52a47.7,47.7,0,0,1-1.07,5.59c-.31.9-.89.94-.7-.52s1.11-4-1.11-4.29-2.61,1-3.65,5.14-1.69,6.64-2.34,10.64,2.45,13,2.35,15.76-2.67,12.64-2.67,12.64S113.26,157.87,128.59,150Z" fill="#eaa88e"/><path d="M108.35,58.16,86.92,61.74a1.33,1.33,0,0,0-1.1,1.53l2.24,13.39a1.33,1.33,0,0,0,1.53,1.09L106.13,75l2.2,2.69a.36.36,0,0,0,.61-.1l1.23-3.26.85-.15a1.33,1.33,0,0,0,1.1-1.53l-2.24-13.38A1.33,1.33,0,0,0,108.35,58.16Z" fill="#e2eaf2"/><path d="M104.81,65.36a3.29,3.29,0,0,1-.56,2.42,2.42,2.42,0,0,1-.25.31l-4.23,4.65-5.52-3-.33-.21a3.28,3.28,0,0,1-1.31-2.11A3.25,3.25,0,0,1,97.38,64l1,.56.78-.86a3.25,3.25,0,0,1,5.62,1.65Z" fill="#a365c9"/><path d="M154.68,26.59l16.88,5.72a1.11,1.11,0,0,1,.69,1.39l-2.86,8.44a1.1,1.1,0,0,1-1.39.68l-13-4.41-2.13,1.89a.29.29,0,0,1-.48-.17l-.57-2.8-.67-.23a1.09,1.09,0,0,1-.69-1.38l2.86-8.44A1.1,1.1,0,0,1,154.68,26.59Z" fill="#a365c9"/><path d="M163,33.4l-7.53-2.55a.7.7,0,0,1-.44-.9.69.69,0,0,1,.89-.44l7.54,2.55A.71.71,0,0,1,163,33.4Z" fill="#fafafa"/><path d="M167.6,38.05l-13-4.42a.47.47,0,0,1-.3-.6.46.46,0,0,1,.6-.29l13,4.41a.47.47,0,0,1-.3.9Z" fill="#fafafa"/><path d="M178.62,50H159.39a.93.93,0,0,0-.93.94v6.27L155,60.1h23.6a.94.94,0,0,0,.94-.93V51A.94.94,0,0,0,178.62,50Z" fill="#a365c9"/><circle cx="163.38" cy="55.01" r="3.14" fill="#fafafa"/><path d="M161.13,55.72a2.39,2.39,0,0,0,4.5,0,2.85,2.85,0,0,0-4.5,0Z" fill="#a365c9"/><circle cx="163.38" cy="53.33" r="0.9" fill="#a365c9"/><path d="M176.49,54.35l-7.38,0a.66.66,0,0,1-.66-.66.65.65,0,0,1,.66-.65l7.38,0a.66.66,0,0,1,.66.66A.65.65,0,0,1,176.49,54.35Z" fill="#fafafa"/><path d="M172.41,57.1,169.1,57a.44.44,0,1,1,0-.87l3.32.06a.43.43,0,0,1,.43.44A.44.44,0,0,1,172.41,57.1Z" fill="#fafafa"/></svg>