<svg id="Layer_1" data-name="Layer 1" xmlns="http://www.w3.org/2000/svg" viewBox="0 0 260 180"><title>Flat Web Illustrations Pack - Scene 31</title><rect x="60.07" y="49.43" width="39.29" height="50.19" rx="19.64" fill="#e2eaf2"/><path d="M88.76,63.42c-1-3.43-3.1-4.67-4-5.05a.69.69,0,0,0-.73.11,7,7,0,0,1-4.23,1.8,6.91,6.91,0,0,1-4.22-1.8.7.7,0,0,0-.73-.11,7.48,7.48,0,0,0-4,5.05.53.53,0,0,0,.28.62l3.18,1.59a83.9,83.9,0,0,1-2.61,9.21s1.1,2.33,8.1,2.33,8.11-2.33,8.11-2.33a83.9,83.9,0,0,1-2.61-9.21L88.49,64A.53.53,0,0,0,88.76,63.42Z" fill="#a365c9"/><path d="M85.69,87.38h-12a1.07,1.07,0,1,1,0-2.13h12a1.07,1.07,0,0,1,0,2.13Z" fill="#a365c9"/><path d="M90.16,91.79H69.47a.71.71,0,0,1,0-1.42H90.16a.71.71,0,0,1,0,1.42Z" fill="#a365c9"/><rect x="151.25" y="49.43" width="39.29" height="50.19" rx="19.64" fill="#e2eaf2"/><path d="M176.87,87.38h-12a1.07,1.07,0,0,1,0-2.13h12a1.07,1.07,0,1,1,0,2.13Z" fill="#a365c9"/><path d="M181.34,91.79H160.65a.71.71,0,0,1,0-1.42h20.69a.71.71,0,1,1,0,1.42Z" fill="#a365c9"/><path d="M179.79,73.46S178.59,76,171,76s-8.79-2.54-8.79-2.54a91.62,91.62,0,0,0,2.83-10,53.73,53.73,0,0,0,6.13.6,28.49,28.49,0,0,0,5.79-.57A89,89,0,0,0,179.79,73.46Z" fill="#a365c9"/><ellipse cx="170.99" cy="63.48" rx="5.95" ry="0.83" fill="#0d1019"/><rect x="105.66" y="49.43" width="39.29" height="50.19" rx="19.64" fill="#e2eaf2"/><path d="M131.28,87.38h-12a1.07,1.07,0,0,1,0-2.13h12a1.07,1.07,0,0,1,0,2.13Z" fill="#a365c9"/><path d="M135.75,91.79H115.06a.71.71,0,1,1,0-1.42h20.69a.71.71,0,0,1,0,1.42Z" fill="#a365c9"/><path d="M134.25,63.42a7.44,7.44,0,0,0-4-5.05.7.7,0,0,0-.73.11,5.86,5.86,0,0,1-8.45,0,.7.7,0,0,0-.73-.11,7.44,7.44,0,0,0-4,5.05.51.51,0,0,0,.27.62l3.18,1.59a83.9,83.9,0,0,1-2.61,9.21s1.1,2.33,8.1,2.33,8.11-2.33,8.11-2.33a83.9,83.9,0,0,1-2.61-9.21L134,64A.51.51,0,0,0,134.25,63.42Z" fill="#0d1019"/><path d="M196.26,71.05l2.59,2.59a.86.86,0,0,1,0,1.21l-2.59,2.58a.85.85,0,0,1-1.45-.6V71.66A.85.85,0,0,1,196.26,71.05Z" fill="#e2eaf2"/><path d="M54.66,71.05l-2.58,2.59a.85.85,0,0,0,0,1.21l2.58,2.58a.85.85,0,0,0,1.46-.6V71.66A.86.86,0,0,0,54.66,71.05Z" fill="#e2eaf2"/><circle cx="204.13" cy="96.33" r="3.86" fill="#0d1019"/><path d="M161.27,146.47s-6.46-7.26-5.09-13.3,5.09-7.28,10.31-6.46,8.38,1.65,15.52-4.95,13.45-11.53,20-8.79,5.72,25.37-6.37,33.5Z" fill="#a365c9"/><path d="M119.83,132.8l-5.39,13a1.14,1.14,0,0,1-1.06.71h0a1.16,1.16,0,0,1-1.13-1.4l2.63-12.27Z" fill="#e2eaf2"/><path d="M127.09,132.8l5.38,13a1.16,1.16,0,0,0,1.07.71h0a1.16,1.16,0,0,0,1.13-1.4L132,132.8Z" fill="#e2eaf2"/><rect x="111.03" y="126.76" width="24.91" height="7.33" rx="3.66" fill="#a365c9"/><path d="M186.61,95.69c-1.39,4-2.54,7.17-2.32,9.91s5,3.22,5,3.22L188,113s3,2.21,4.16-.12,1.52-4.42,3.45-7.66,3-6.93-.35-10S187.16,93.56,186.61,95.69Z" fill="#eaa88e"/><path d="M190.34,91.26c-1.47,1.31-3.59.16-4.53,1.7s-1.25,3.83,1.11,5.21,3.47,1.81,3.3,3-.16,1.49,1,1.74c0,0,.74-1.21,1.53-1a1.26,1.26,0,0,1,.27,2.28c-1.14.61-1.6-.39-2.28.27s-.44,4.65,3.5,5.84,6.33-1.63,7.29-5.46,2.3-5.71-.11-8.83-3.62-2-5.22-4A4.62,4.62,0,0,0,190.34,91.26Z" fill="#0d1019"/><path d="M188.86,110.39c-2.91.34-6.17.34-7.84,2.54s-8.26,4.92-8.26,4.92,3.3,5.52,6,7.35a83.12,83.12,0,0,0,7.79-5.59c3.94-3.2,6.59-6,6.59-7.87Z" fill="#a365c9"/><path d="M133.06,123.88h0a1.58,1.58,0,0,1,1.49-1.49l3.6-.35c1.51-.15,2.94.66,2.94,1.84h0c0,1.18-1.43,2-2.94,1.85l-3.6-.36A1.57,1.57,0,0,1,133.06,123.88Z" fill="#eaa88e"/><path d="M131.41,118.48h3.3a2.88,2.88,0,0,1,2.88,2.88v2.06a0,0,0,0,1,0,0H126.47a0,0,0,0,1,0,0v0a4.95,4.95,0,0,1,4.95-4.95Z" transform="translate(237.3 -23.89) rotate(83.52)" fill="#0d1019"/><path d="M137.5,121.7V126s.55.21,5.77.35,7.08-.76,10.65-1a41.7,41.7,0,0,1,10.92,1,32.36,32.36,0,0,0,8.12.81c2-.14,5.34-2.32,6.86-4.91l-2.76-3.95s-6.3.28-11.53.69-7.63-.07-10.17.69S137.5,121.7,137.5,121.7Z" fill="#0d1019"/><path d="M147.31,142.15h0a1.58,1.58,0,0,1-.69-2l1.25-3.39c.52-1.44,1.88-2.36,2.94-1.85h0c1.06.52,1.18,2.15.38,3.45l-1.89,3.09A1.58,1.58,0,0,1,147.31,142.15Z" fill="#eaa88e"/><path d="M142.88,140.81h3.3a2.88,2.88,0,0,1,2.88,2.88v2.06a0,0,0,0,1,0,0H137.93a0,0,0,0,1,0,0v0A4.95,4.95,0,0,1,142.88,140.81Z" fill="#0d1019"/><path d="M146.51,137.93l4,2.47a25,25,0,0,0,4.36-5.62,56,56,0,0,0,3.38-9.46,20.09,20.09,0,0,1,4.22.43c1.76.45,7.46,1.74,10.46,1.37s5.84-4.89,5.84-4.89l-2.31-3.53-19.65,1s-2.34.12-4,3S146.51,137.93,146.51,137.93Z" fill="#0d1019"/><polygon points="169.45 117.94 158.17 117.94 154.15 107.46 155.47 106.95 159.15 116.52 169.45 116.52 169.45 117.94" fill="#a365c9"/><path d="M189.56,111.74c-1.51-.83-2.54-.42-5.08,1.85s-3.71,3-5.22,4.19-1.92,6,2.06,3.92,7.14-4.74,8.24-6.74A2.78,2.78,0,0,0,189.56,111.74Z" fill="#eaa88e"/><path d="M173,114.84c.72.29,1.38.64,1.75.79,1.84.77,3.62,1.67,5.48,2.38,1.35.51,1.26,4.79-1.65,4s-7.27-5.11-7.4-5.23c-.47-.47-1.6-.9-1.11-1.78S171.62,114.29,173,114.84Z" fill="#eaa88e"/><path d="M170.15,116a2.92,2.92,0,0,0-2.75,0,3.21,3.21,0,0,1-1.42.37l1.51-1.32-1.2.52a1,1,0,0,1-1-.21l2.42-1.09s-.59-.18-1.23-.34-.74-1-.74-1a15.27,15.27,0,0,0,2.8.73,26.21,26.21,0,0,1,3.39.84s.75,1.89-.33,1.86A2.43,2.43,0,0,1,170.15,116Z" fill="#eaa88e"/><path d="M209.69,147.35H50.31a.88.88,0,0,1,0-1.76H209.69a.88.88,0,0,1,0,1.76Z" fill="#e2eaf2"/><path d="M198.42,37.17a3.28,3.28,0,0,1-3.1-2.26,3.26,3.26,0,0,0-6.21,0,3.18,3.18,0,0,1-1.19,1.63,3.25,3.25,0,0,1-1.92.63,3.24,3.24,0,0,0-3.26,3.14V51.09a9.48,9.48,0,0,0,9.47,9.48h0a9.48,9.48,0,0,0,9.48-9.48V40.31A3.24,3.24,0,0,0,198.42,37.17Zm-6.21.34a1.65,1.65,0,1,1,1.65-1.65A1.64,1.64,0,0,1,192.21,37.51Z" fill="#0d1019"/><path d="M190.3,52.54H196l.88-3.2h-7.68l-.53-1.48a.46.46,0,0,0-.42-.29h-2.45l.44.89h1.7l2,5.47a.44.44,0,0,0,.41.29h6.2l.24-.89h-6.12Z" fill="#e2eaf2"/><circle cx="191.68" cy="56.05" r="0.97" fill="#e2eaf2"/><circle cx="194.66" cy="56.05" r="0.97" fill="#e2eaf2"/><circle cx="201.69" cy="44.11" r="4.42" fill="#a365c9"/><path d="M200.77,42.35a1.44,1.44,0,0,1,.95-.3,1.59,1.59,0,0,1,.68.14,1.07,1.07,0,0,1,.43.38,1,1,0,0,1,.14.54.93.93,0,0,1-.17.58.83.83,0,0,1-.43.32v0a1,1,0,0,1,.5.35,1.09,1.09,0,0,1,.18.65,1.11,1.11,0,0,1-.15.58,1,1,0,0,1-.45.4,1.51,1.51,0,0,1-.7.15,1.62,1.62,0,0,1-1-.31,1.23,1.23,0,0,1-.41-.92h.75a.59.59,0,0,0,.18.43.7.7,0,0,0,.47.16.54.54,0,0,0,.43-.16.62.62,0,0,0-.06-.87,1.17,1.17,0,0,0-.64-.14h-.16v-.63h.16c.52,0,.78-.17.78-.52a.46.46,0,0,0-.14-.36.57.57,0,0,0-.4-.14.54.54,0,0,0-.4.14.57.57,0,0,0-.16.36h-.75A1.15,1.15,0,0,1,200.77,42.35Z" fill="#fafafa"/></svg>