<svg id="Layer_1" data-name="Layer 1" xmlns="http://www.w3.org/2000/svg" viewBox="0 0 260 180"><title>Flat Web Illustrations Pack - Scene 33</title><path d="M172.62,55.17a10.34,10.34,0,0,0-10.34-10.34H91.14A10.74,10.74,0,0,0,80.39,55.57V135h66a8.83,8.83,0,0,0,8.83-8.84V58.08h17.44Z" fill="#e2eaf2"/><path d="M90.8,94.11h57.6a1,1,0,1,0,0-1.91H90.8a1,1,0,1,0,0,1.91Z" fill="#fafafa"/><path d="M90.8,99.51h24.76a1,1,0,0,0,0-1.91H90.8a1,1,0,1,0,0,1.91Z" fill="#fafafa"/><path d="M113.16,114.26h24.76a1,1,0,0,0,0-1.92H113.16a1,1,0,0,0,0,1.92Z" fill="#fafafa"/><path d="M113.16,120h11.42a1,1,0,1,0,0-1.91H113.16a1,1,0,1,0,0,1.91Z" fill="#fafafa"/><path d="M98.69,66.19h24.77a1,1,0,0,0,0-1.92H98.69a1,1,0,0,0,0,1.92Z" fill="#fafafa"/><path d="M98.69,72h11.43a1,1,0,0,0,0-1.92H98.69a1,1,0,0,0,0,1.92Z" fill="#fafafa"/><path d="M171.55,55.64v2.49H155.48V55.64a8.07,8.07,0,1,1,16.07,0Z" fill="#0d1019"/><path d="M139.29,123.67v2.49a8.83,8.83,0,0,0,8.83,8.84H70.6a8.83,8.83,0,0,1-8.83-8.84v-2.49Z" fill="#0d1019"/><path d="M91.9,71.75h0a1.3,1.3,0,0,0-.73,1.78h0a3.8,3.8,0,0,1-.75,4.32l-.08.09a3.81,3.81,0,0,1-4.32.74h0a1.29,1.29,0,0,0-1.78.74l0,.13a3.79,3.79,0,0,1-3.56,2.53h-.07A3.78,3.78,0,0,1,77,79.56l0-.13a1.3,1.3,0,0,0-1.78-.74h0A3.81,3.81,0,0,1,70.84,78l-.09-.09A3.8,3.8,0,0,1,70,73.54h0a1.3,1.3,0,0,0-.74-1.78h0a3.81,3.81,0,0,1-2.52-3.58v-.12a3.81,3.81,0,0,1,2.53-3.59h0A1.3,1.3,0,0,0,70,62.69h0a3.8,3.8,0,0,1,.74-4.32l.09-.09a3.81,3.81,0,0,1,4.32-.74h0a1.3,1.3,0,0,0,1.78-.74l0-.14a3.79,3.79,0,0,1,3.56-2.52h.07a3.8,3.8,0,0,1,3.56,2.52l0,.14a1.29,1.29,0,0,0,1.78.74h0a3.81,3.81,0,0,1,4.32.74l.09.09a3.81,3.81,0,0,1,.74,4.32h0a1.29,1.29,0,0,0,.74,1.78h0a3.81,3.81,0,0,1,2.53,3.59v.12A3.78,3.78,0,0,1,91.9,71.75Z" fill="#a365c9"/><circle cx="80.58" cy="67.75" r="8.39" fill="#fafafa"/><circle cx="80.58" cy="67.75" r="6.38" fill="#a365c9"/><polygon points="81.02 77 82.32 93.24 86.11 87.83 91.42 88.8 86.22 75.27 81.02 77" fill="#a365c9"/><polygon points="79.94 77 78.64 93.24 74.84 87.83 69.54 88.8 74.74 75.27 79.94 77" fill="#a365c9"/><rect x="160.56" y="131.26" width="18.38" height="3.91" fill="#e2eaf2"/><rect x="161.52" y="131.99" width="0.62" height="2.54" fill="#fafafa"/><rect x="162.9" y="131.99" width="0.62" height="2.54" fill="#fafafa"/><rect x="164.27" y="131.99" width="0.62" height="2.54" fill="#fafafa"/><rect x="165.65" y="131.99" width="0.62" height="2.54" fill="#fafafa"/><rect x="167.02" y="131.99" width="0.62" height="2.54" fill="#fafafa"/><rect x="168.4" y="131.99" width="0.62" height="2.54" fill="#fafafa"/><rect x="173.21" y="131.99" width="0.62" height="2.54" fill="#fafafa"/><rect x="174.58" y="131.99" width="0.62" height="2.54" fill="#fafafa"/><rect x="175.96" y="131.99" width="0.62" height="2.54" fill="#fafafa"/><rect x="177.33" y="131.99" width="0.62" height="2.54" fill="#fafafa"/><rect x="165.39" y="127.35" width="18.38" height="3.91" fill="#e2eaf2"/><rect x="166.36" y="128.08" width="0.62" height="2.54" fill="#fafafa"/><rect x="167.73" y="128.08" width="0.62" height="2.54" fill="#fafafa"/><rect x="169.11" y="128.08" width="0.62" height="2.54" fill="#fafafa"/><rect x="170.48" y="128.08" width="0.62" height="2.54" fill="#fafafa"/><rect x="171.85" y="128.08" width="0.62" height="2.54" fill="#fafafa"/><rect x="173.23" y="128.08" width="0.62" height="2.54" fill="#fafafa"/><rect x="178.04" y="128.08" width="0.62" height="2.54" fill="#fafafa"/><rect x="179.42" y="128.08" width="0.62" height="2.54" fill="#fafafa"/><rect x="180.79" y="128.08" width="0.62" height="2.54" fill="#fafafa"/><rect x="182.17" y="128.08" width="0.62" height="2.54" fill="#fafafa"/><rect x="165.39" y="123.44" width="18.38" height="3.91" fill="#e2eaf2"/><rect x="166.36" y="124.17" width="0.62" height="2.54" fill="#fafafa"/><rect x="167.73" y="124.17" width="0.62" height="2.54" fill="#fafafa"/><rect x="169.11" y="124.17" width="0.62" height="2.54" fill="#fafafa"/><rect x="170.48" y="124.17" width="0.62" height="2.54" fill="#fafafa"/><rect x="171.85" y="124.17" width="0.62" height="2.54" fill="#fafafa"/><rect x="173.23" y="124.17" width="0.62" height="2.54" fill="#fafafa"/><rect x="178.04" y="124.17" width="0.62" height="2.54" fill="#fafafa"/><rect x="179.42" y="124.17" width="0.62" height="2.54" fill="#fafafa"/><rect x="180.79" y="124.17" width="0.62" height="2.54" fill="#fafafa"/><rect x="182.17" y="124.17" width="0.62" height="2.54" fill="#fafafa"/><rect x="181.17" y="125.34" width="18.38" height="3.91" transform="translate(145.76 -97.32) rotate(45)" fill="#e2eaf2"/><rect x="183.45" y="121.42" width="2.54" height="0.62" transform="translate(-31.97 166.27) rotate(-45)" fill="#fafafa"/><rect x="184.42" y="122.39" width="2.54" height="0.62" transform="translate(-32.37 167.24) rotate(-45)" fill="#fafafa"/><rect x="185.39" y="123.36" width="2.54" height="0.62" transform="translate(-32.78 168.22) rotate(-45)" fill="#fafafa"/><rect x="186.37" y="124.33" width="2.54" height="0.62" transform="translate(-33.18 169.19) rotate(-45)" fill="#fafafa"/><rect x="187.34" y="125.31" width="2.54" height="0.62" transform="translate(-33.58 170.16) rotate(-45)" fill="#fafafa"/><rect x="188.31" y="126.28" width="2.54" height="0.62" transform="translate(-33.98 171.13) rotate(-45)" fill="#fafafa"/><rect x="191.71" y="129.68" width="2.54" height="0.62" transform="translate(-35.39 174.53) rotate(-45)" fill="#fafafa"/><rect x="192.68" y="130.65" width="2.54" height="0.62" transform="translate(-35.8 175.51) rotate(-45)" fill="#fafafa"/><rect x="193.66" y="131.63" width="2.54" height="0.62" transform="translate(-36.2 176.48) rotate(-45)" fill="#fafafa"/><rect x="194.63" y="132.6" width="2.54" height="0.62" transform="translate(-36.6 177.45) rotate(-45)" fill="#fafafa"/><rect x="140.62" y="71.95" width="39.87" height="47.12" rx="2.13" fill="#a365c9"/><rect x="143.42" y="76" width="34.28" height="6.14" rx="1.74" fill="#fafafa"/><rect x="143.99" y="85.26" width="5.89" height="5.89" fill="#fafafa"/><rect x="153.07" y="85.26" width="5.89" height="5.89" fill="#fafafa"/><rect x="162.15" y="85.26" width="5.89" height="5.89" fill="#fafafa"/><rect x="171.24" y="85.26" width="5.89" height="5.89" fill="#fafafa"/><rect x="143.99" y="93.53" width="5.89" height="5.89" fill="#fafafa"/><rect x="153.07" y="93.53" width="5.89" height="5.89" fill="#fafafa"/><rect x="162.15" y="93.53" width="5.89" height="5.89" fill="#fafafa"/><rect x="171.24" y="93.53" width="5.89" height="5.89" fill="#fafafa"/><rect x="143.99" y="101.8" width="5.89" height="5.89" fill="#fafafa"/><rect x="153.07" y="101.8" width="5.89" height="5.89" fill="#fafafa"/><rect x="162.15" y="101.8" width="5.89" height="5.89" fill="#fafafa"/><rect x="143.99" y="110.07" width="5.89" height="5.89" fill="#fafafa"/><rect x="153.07" y="110.07" width="5.89" height="5.89" fill="#fafafa"/><rect x="162.15" y="110.07" width="5.89" height="5.89" fill="#fafafa"/><polygon points="171.24 101.8 171.24 104.75 171.24 107.69 171.24 115.96 177.13 115.96 177.13 107.69 177.13 104.75 177.13 101.8 171.24 101.8" fill="#0d1019"/><path d="M175.61,108.11h-2.85a.42.42,0,0,1,0-.84h2.85a.42.42,0,1,1,0,.84Z" fill="#fafafa"/><path d="M175.61,110h-2.85a.42.42,0,0,1,0-.84h2.85a.42.42,0,1,1,0,.84Z" fill="#fafafa"/><path d="M169.33,78.56V77.21l.2-.51a.41.41,0,0,1,.32.32v1.8l-.13.13Zm.39.52.13.13V81a.41.41,0,0,1-.32.32l-.2-.51V79.47Z"/><path d="M170.49,80.88V79.21l.13-.13.39.39v1.22Zm2.45.45h-2.12a.43.43,0,0,1-.33-.32l.52-.19h1.74Zm-.38-4.12H171L170.5,77a.41.41,0,0,1,.32-.32h1.93Zm.12,1.55.26.25-.26.26H171l-.26-.26.26-.25Zm0-.2V77.21l.2-.51a.41.41,0,0,1,.32.32v1.8l-.13.13Z"/><path d="M176.1,81.33h-1.94a.42.42,0,0,1-.32-.32l.52-.19h1.54Zm-.2-4.12h-1.54l-.51-.19a.41.41,0,0,1,.32-.32h1.93Zm.13,1.55.26.25-.26.26h-1.67L174.1,79l.26-.25Zm0-.2V77.21l.2-.51a.42.42,0,0,1,.32.32v1.8l-.13.13Zm.39.52.13.13V81a.42.42,0,0,1-.32.32l-.2-.51V79.47Z"/></svg>