<svg id="Layer_1" data-name="Layer 1" xmlns="http://www.w3.org/2000/svg" viewBox="0 0 260 180"><title>Flat Web Illustrations Pack - Scene 35</title><path d="M177.89,147.25c6.44-7.33,8.64-13.83,5.71-15.89s-7.32,3.52-9.38,0,5-6.05,10.55-10.35,8.2-11.13,4.1-15.33-9.37.49-12.59,5.18-3.81,7-7.62,6.15,1.17-4.69,1.17-8.05-5.56-7.77-9.08-1.91-3.81,8.94-5.57,7.84.27-5-2.05-7.35c-4.24-4.21-7.17,3.7-16.84,14s-14.35,7.92-11.13,3.13,8.2-12.11,3.52-13.58-9.6,11.67-16.67,20-9.4,6.71-7.06,2-2.06-7.82-8.21,0-10.49,14-10.49,14h91.64Z" fill="#0d1019"/><path d="M175.29,55.29l-5.58-5.58-5.58,5.58a.74.74,0,0,0,.52,1.27h3.12v4.89h3.87V56.56h3.12A.75.75,0,0,0,175.29,55.29Z" fill="#a365c9"/><path d="M194,71.08l-5.58-5.59-5.58,5.59a.74.74,0,0,0,.53,1.26h3.12v4.9h3.86v-4.9h3.13A.74.74,0,0,0,194,71.08Z" fill="#a365c9"/><path d="M175.29,86.33l-5.58-5.58-5.58,5.58a.74.74,0,0,0,.52,1.27h3.12v4.89h3.87V87.6h3.12A.75.75,0,0,0,175.29,86.33Z" fill="#a365c9"/><path d="M83.47,78l5.58-5.58L94.63,78a.74.74,0,0,1-.53,1.27H91v4.89H87.12V79.23H84A.74.74,0,0,1,83.47,78Z" fill="#a365c9"/><path d="M69.19,93.9l5.58-5.58,5.58,5.58a.75.75,0,0,1-.53,1.27H76.7v4.89H72.83V95.17H69.71A.74.74,0,0,1,69.19,93.9Z" fill="#a365c9"/><path d="M155.19,129.05a5.59,5.59,0,0,1-5.59,5.58H107.42a5.59,5.59,0,0,1-5.59-5.58V38.34a5.6,5.6,0,0,1,5.59-5.59h5.21l2,2.72A5.4,5.4,0,0,0,119,37.64h19.84a5.39,5.39,0,0,0,4.33-2.17l2-2.72h4.4a5.6,5.6,0,0,1,5.59,5.59Z" fill="#a365c9"/><path d="M119.58,65.33h1.53V53.8H109.58V65.33h10Zm-8.47-10h8.47V63.8h-8.47Z" fill="#0d1019"/><rect x="112.65" y="56.87" width="5.39" height="5.39" fill="#0d1019"/><path d="M111.11,79.85h-1.53V91.37h11.53V79.85h-10Zm8.47,10h-8.47V81.38h8.47Z" fill="#0d1019"/><rect x="112.65" y="82.91" width="5.39" height="5.39" fill="#0d1019"/><path d="M137.16,79.85h-1.54V91.37h11.53V79.85h-10Zm8.46,10h-8.46V81.38h8.46Z" fill="#0d1019"/><rect x="138.69" y="82.91" width="5.39" height="5.39" fill="#0d1019"/><path d="M145.62,53.8h-10V65.33h11.53V53.8Zm0,10h-8.46V55.34h8.46Z" fill="#0d1019"/><rect x="138.69" y="56.87" width="5.39" height="5.39" fill="#0d1019"/><polygon points="129.09 66.15 132.08 66.15 132.08 56.2 129.09 56.2 129.09 58.72 126.1 58.72 126.1 53.8 123.11 53.8 123.11 58.72 123.11 61.23 123.11 61.71 129.09 61.71 129.09 66.15" fill="#0d1019"/><polygon points="141.68 69.08 141.68 71.82 138.69 71.82 138.69 74.8 141.68 74.8 141.68 76.92 144.13 76.92 144.13 77.79 147.11 77.79 147.11 74.8 144.67 74.8 144.67 69.08 141.68 69.08" fill="#0d1019"/><polygon points="136.37 70.94 132.08 70.94 132.08 69.08 129.09 69.08 129.09 70.94 130.59 70.94 130.59 73.93 129.09 73.93 127.6 73.93 127.6 70.94 124.81 70.94 124.81 73.93 122.59 73.93 122.59 76.92 129.09 76.92 129.09 80.64 132.08 80.64 132.08 76.92 134.15 76.92 134.15 73.93 136.37 73.93 136.37 70.94" fill="#0d1019"/><rect x="109.57" y="68.32" width="3.66" height="2.99" fill="#0d1019"/><polygon points="116.89 77.28 117.21 77.28 117.21 74.3 116.89 74.3 111.89 74.3 109.57 74.3 109.57 77.28 111.89 77.28 116.89 77.28" fill="#0d1019"/><rect x="123.11" y="63.16" width="2.99" height="2.99" fill="#0d1019"/><rect x="118.97" y="70.32" width="2.99" height="2.99" fill="#0d1019"/><polygon points="130.09 85.61 127.59 85.61 127.59 79.83 124.6 79.83 124.6 85.61 122.43 85.61 122.43 88.6 127.6 88.6 127.6 91.33 130.59 91.33 130.59 88.6 133.08 88.6 133.08 86.77 133.08 85.61 133.08 83.78 130.09 83.78 130.09 85.61" fill="#0d1019"/><rect x="113.29" y="102.89" width="30.44" height="7.89" rx="3.95" fill="#fafafa"/><path d="M77,147.25c-5.57-6.34-7.47-12-4.94-13.75s6.34,3,8.11,0-4.31-5.24-9.12-9-7.1-9.63-3.55-13.27,8.11.43,10.9,4.48,3.3,6.09,6.59,5.33-1-4.06-1-7,4.81-6.72,7.86-1.65,3.29,7.73,4.81,6.78-.23-4.37,1.78-6.36c3.67-3.65,6.21,3.2,14.58,12.16s12.42,6.86,9.63,2.71-7.1-10.48-3-11.75,8.31,10.1,14.42,17.34,8.14,5.81,6.11,1.76,1.78-6.77,7.11,0,9.08,12.15,9.08,12.15H77Z" fill="#0d1019"/></svg>