<svg id="Layer_1" data-name="Layer 1" xmlns="http://www.w3.org/2000/svg" viewBox="0 0 260 180"><title>Flat Web Illustrations Pack - Scene 37</title><path d="M165.76,124h0a.75.75,0,0,1,0-1c5.89-6.53,13-19.73,9.59-31.06S170.66,77.06,170.65,77l1.42-.5s1.23,3.48,4.68,15c3.58,11.92-3.8,25.7-9.92,32.5A.75.75,0,0,1,165.76,124Z" fill="#e2eaf2"/><path d="M170,70c3.49-.29,5.59,7.2,3.67,14.1a10.55,10.55,0,0,1-6.18-7.27C166.16,71.21,170,70,170,70Z" fill="#e2eaf2"/><path d="M176,91.73s-1.16-8.91,4.07-9.87,6.19,2.51,3.48,6S176,91.73,176,91.73Z" fill="#e2eaf2"/><path d="M176.36,95.85s.55-6.51-7.41-6.06-1.12,6.06,3.15,6.06Z" fill="#e2eaf2"/><path d="M176.28,105.72s.77-6.48-7.2-6.3-1.33,6,2.94,6.16Z" fill="#e2eaf2"/><path d="M171.55,116s2.69-6-5-8.19-3.09,5.33.93,6.76Z" fill="#e2eaf2"/><path d="M176.94,100s3.4-7.85,9.79-5.31-.69,7-4.89,6.8S176.94,100,176.94,100Z" fill="#e2eaf2"/><path d="M174.1,112.21s4.32-7.38,10.36-4.08-1.54,6.85-5.69,6.15S174.1,112.21,174.1,112.21Z" fill="#e2eaf2"/><path d="M167.75,121.71s5.11-6.86,10.74-2.92-2.28,6.65-6.32,5.49S167.75,121.71,167.75,121.71Z" fill="#e2eaf2"/><path d="M90.23,115h0a.7.7,0,0,0,.12-1c-4.9-6.44-10.4-19.09-6.41-29.22s5.41-13.29,5.42-13.32l-1.26-.57S86.7,74,82.65,84.27c-4.19,10.65,1.51,23.86,6.6,30.56A.69.69,0,0,0,90.23,115Z" fill="#e2eaf2"/><path d="M90.47,65C87.3,64.48,84.8,71.18,86,77.66a9.7,9.7,0,0,0,6.23-6.2C93.93,66.46,90.47,65,90.47,65Z" fill="#e2eaf2"/><path d="M83.3,84.52s1.75-8.08-3-9.36S74.45,77,76.67,80.39,83.3,84.52,83.3,84.52Z" fill="#e2eaf2"/><path d="M82.67,88.27s0-6,7.27-5,.56,5.64-3.35,5.31Z" fill="#e2eaf2"/><path d="M82,97.34s-.2-6,7.09-5.23.75,5.62-3.17,5.42Z" fill="#e2eaf2"/><path d="M85.55,107.08s-2-5.66,5.18-7.13,2.41,5.13-1.38,6.13Z" fill="#e2eaf2"/><path d="M81.82,92.05s-2.51-7.46-8.57-5.62.1,6.46,4,6.61S81.82,92.05,81.82,92.05Z" fill="#e2eaf2"/><path d="M83.5,103.45s-3.41-7.09-9.19-4.54.88,6.41,4.74,6.08S83.5,103.45,83.5,103.45Z" fill="#e2eaf2"/><path d="M88.59,112.66S84.43,106,79,109.15s1.58,6.28,5.38,5.53S88.59,112.66,88.59,112.66Z" fill="#e2eaf2"/><path d="M133.66,50.78c-1.67,3.07-9.08.72-13.79-4.68a10.56,10.56,0,0,1,9.47-1.17C134.73,46.85,133.66,50.78,133.66,50.78Z" fill="#e2eaf2"/><path d="M115.75,34.36c3,1.79.35,9.1-5.23,13.59a10.55,10.55,0,0,1-.79-9.51C111.87,33.12,115.75,34.36,115.75,34.36Z" fill="#e2eaf2"/><path d="M94.32,47.87c3.26-1.27,7.4,5.31,7.52,12.48a10.57,10.57,0,0,1-8-5.22C91,50.18,94.32,47.87,94.32,47.87Z" fill="#e2eaf2"/><path d="M118.64,53.22c-.63-3.44-8.4-3.52-14.56.14a10.55,10.55,0,0,0,8.63,4.07C118.43,57.29,118.64,53.22,118.64,53.22Z" fill="#e2eaf2"/><path d="M105.6,125a.75.75,0,0,1-1-.4c-1.09-2.81-1.1-5.29,0-7.39,2.7-5.29,12-7.64,22.08-9.78,4.85-1,7.71-3.3,8.27-6.6.85-5-3.76-11.78-10.95-16.15l-2.18-1.32c-11.52-7-21.47-13-21-22.26a15.29,15.29,0,0,1,5.64-11c4.37-3.64,10.59-5.25,17.08-4.4l-.2,1.49c-6.07-.79-11.87.68-15.92,4.06a13.83,13.83,0,0,0-5.1,9.94c-.41,8.4,9.19,14.2,20.29,20.91l2.18,1.32c7.83,4.75,12.62,12,11.66,17.68-.47,2.76-2.49,6.35-9.44,7.82-9.72,2.06-18.65,4.29-21,9-.88,1.72-.86,3.73.07,6.14a.75.75,0,0,1-.38,1Z" fill="#e2eaf2"/><path d="M112.76,61.91c-1.66-2.12-7,.6-9.88,5.29a8.12,8.12,0,0,0,7.34-.3C114.07,64.75,112.76,61.91,112.76,61.91Z" fill="#e2eaf2"/><path d="M115.72,66.19c-2.67-.26-4.38,5.47-3,10.81a8.13,8.13,0,0,0,4.85-5.52C118.69,67.21,115.72,66.19,115.72,66.19Z" fill="#e2eaf2"/><path d="M121.52,72.37c-2.58.76-2,6.71,1.3,11.13a8.12,8.12,0,0,0,2.41-6.94C124.65,72.19,121.52,72.37,121.52,72.37Z" fill="#e2eaf2"/><path d="M134.24,79.32c-2.68-.17-4.17,5.63-2.57,10.91a8.14,8.14,0,0,0,4.63-5.71C137.25,80.22,134.24,79.32,134.24,79.32Z" fill="#e2eaf2"/><path d="M144.08,92.86c-2.09-1.69-6.66,2.17-8.42,7.4a8.11,8.11,0,0,0,7.08-2C146,95.33,144.08,92.86,144.08,92.86Z" fill="#e2eaf2"/><path d="M141.27,107.61c-.4-2.66-6.37-2.92-11.21-.27a8.08,8.08,0,0,0,6.53,3.35C141,110.73,141.27,107.61,141.27,107.61Z" fill="#e2eaf2"/><path d="M130.83,114.73c.91-2.19-3.48-5.09-8.32-5.29a7.12,7.12,0,0,0,3.4,5.49C129.21,117,130.83,114.73,130.83,114.73Z" fill="#e2eaf2"/><path d="M122.74,116.49c.91-2.19-3.47-5.1-8.32-5.29a7.12,7.12,0,0,0,3.4,5.49C121.12,118.72,122.74,116.49,122.74,116.49Z" fill="#e2eaf2"/><path d="M115.46,120.39c.91-2.18-3.47-5.09-8.32-5.29a7.15,7.15,0,0,0,3.4,5.49C113.85,122.62,115.46,120.39,115.46,120.39Z" fill="#e2eaf2"/><path d="M94.89,73.72c.2-3,6.77-3.79,12.35-1.29a9,9,0,0,1-6.92,4.28C95.46,77.15,94.89,73.72,94.89,73.72Z" fill="#e2eaf2"/><path d="M105.41,82.81c-.34-3,6-5,11.91-3.49a9,9,0,0,1-6,5.45C106.58,86.08,105.41,82.81,105.41,82.81Z" fill="#e2eaf2"/><path d="M116.55,88.7c-.31-2.69,5.44-4.5,10.84-3.18a8.21,8.21,0,0,1-5.49,5C117.62,91.67,116.55,88.7,116.55,88.7Z" fill="#e2eaf2"/><path d="M123.86,93.28c.66-2.63,6.68-2.29,11.26.86a8.16,8.16,0,0,1-6.89,2.7C123.81,96.43,123.86,93.28,123.86,93.28Z" fill="#e2eaf2"/><path d="M126.6,98.86c1.6-1.64,5.87,1.17,7.88,5.42a6.92,6.92,0,0,1-6.19-1C125.22,101.15,126.6,98.86,126.6,98.86Z" fill="#e2eaf2"/><path d="M121.48,99.82c2.14-.84,4.88,3.46,5,8.17a7,7,0,0,1-5.27-3.4C119.29,101.35,121.48,99.82,121.48,99.82Z" fill="#e2eaf2"/><path d="M114.57,101.69c2.14-.84,4.88,3.46,5,8.17a7,7,0,0,1-5.27-3.4C112.38,103.22,114.57,101.69,114.57,101.69Z" fill="#e2eaf2"/><path d="M109.91,103.31c2.3-.09,3.45,4.88,2,9.36a6.94,6.94,0,0,1-3.83-5C107.33,104,109.91,103.31,109.91,103.31Z" fill="#e2eaf2"/><path d="M101.14,108.53c2.17-.76,4.73,3.66,4.64,8.36a6.91,6.91,0,0,1-5.12-3.61C98.88,110,101.14,108.53,101.14,108.53Z" fill="#e2eaf2"/><path d="M138.28,138.47a107.79,107.79,0,0,0,11.2-.64c4.74-.64,6.84-3.37,9.8-9.19a19.62,19.62,0,0,0,1.4-12.22c-1.49,2.27-5.62,1.77-5.62,1.77L137.11,118l-.41-7.22-16.44,18.61,18.44,16.34Z" fill="#0d1019"/><path d="M171.57,108.93,157,133.46a9.45,9.45,0,0,1-7.55,4.37,10.56,10.56,0,0,0,5.37-3l.26-.31A20.18,20.18,0,0,0,157.24,112L150,98.67l18.14-8.44,3.73,6.86A11.52,11.52,0,0,1,171.57,108.93Z" fill="#a365c9"/><path d="M157.77,71.62a104.38,104.38,0,0,0-6.25-9.31c-3-3.74-6.39-4.17-12.91-3.74a19.59,19.59,0,0,0-11.22,5c2.71.13,4.38,3.93,4.38,3.93l9,15.52-6,4,24.38,4.65,4.65-24.2Z" fill="#0d1019"/><path d="M115.39,58H143.9a9.46,9.46,0,0,1,7.62,4.26,10.56,10.56,0,0,0-5.29-3.1l-.4-.06a20.15,20.15,0,0,0-20.48,9.66l-7.77,13L101.06,70.56l4-6.71A11.53,11.53,0,0,1,115.39,58Z" fill="#a365c9"/><path d="M90.31,87.84a105.7,105.7,0,0,0-5.06,10c-1.82,4.42-.51,7.61,3,13.09a19.56,19.56,0,0,0,9.88,7.33c-1.22-2.42,1.29-5.75,1.29-5.75l9.12-15.45,6.45,3.25-7.87-23.54L83.79,84.55Z" fill="#0d1019"/><path d="M99.19,131.45,85.25,106.58a9.46,9.46,0,0,1,0-8.73,10.56,10.56,0,0,0-.12,6.13c.05.13.09.26.14.38A20.14,20.14,0,0,0,103.7,117.5l15.19.41-1.78,19.92-7.81-.21A11.52,11.52,0,0,1,99.19,131.45Z" fill="#a365c9"/></svg>