<svg id="Layer_1" data-name="Layer 1" xmlns="http://www.w3.org/2000/svg" viewBox="0 0 260 180"><title>Flat Web Illustrations Pack - Scene 36</title><circle cx="160.69" cy="63.22" r="17.1" fill="#e2eaf2"/><circle cx="188.15" cy="91.66" r="11.87" fill="#e2eaf2"/><path d="M105.77,144.71c-5-8.29-11.45-25.12,0-38.72s19.69-5.37,17.19,2.86-4.47,15.55.45,18.51,9.93-3.12,18.16-13.86,14.63-10,17.9-5.37c4,5.6-3.3,13.63-6.48,20.6s2.9,14.51,12.21,0,18.62-10.44,16.83-2.45-2.74,11.23,1.07,12.28c4.9,1.36,7.53-10.86,14-11.09,5-.18,8.74,8.23,1.4,17.24Z" fill="#0d1019"/><polygon points="148.8 144.71 104.41 144.71 96.53 87.29 156.68 87.29 148.8 144.71" fill="#a365c9"/><rect x="96.53" y="83.05" width="60.15" height="4.24" fill="#a365c9"/><path d="M97.26,71.64H153.7a1.85,1.85,0,0,1,1.85,1.85v3.74a0,0,0,0,1,0,0H95.41a0,0,0,0,1,0,0V73.49a1.85,1.85,0,0,1,1.85-1.85Z" transform="translate(-12.13 25.98) rotate(-11.28)" fill="#a365c9"/><path d="M140.26,74.33l-4.54.91a12.49,12.49,0,0,0-2.9-5.12,9.16,9.16,0,0,0-15.77,3.15,12.41,12.41,0,0,0-.72,5.83l-4.54.91a17.13,17.13,0,0,1,.18-5.73c1.18-5.89,5.39-10.66,11.13-11.8s11.45,1.65,14.79,6.63A16.88,16.88,0,0,1,140.26,74.33Z" fill="#a365c9"/><path d="M128.19,91.66v46.73a1.53,1.53,0,0,1-1.53,1.53h-.1a1.52,1.52,0,0,1-1.53-1.53V91.66Z" fill="#fafafa"/><path d="M138.79,91.66l-1.25,46.8a1.55,1.55,0,0,1-1.58,1.45h-.05a1.56,1.56,0,0,1-1.13-.5,1.39,1.39,0,0,1-.4-1l1.25-46.73Z" fill="#fafafa"/><path d="M151,91.66s0,0,0,.06l-4.92,46.86a1.53,1.53,0,0,1-1.56,1.34h-.17a1.6,1.6,0,0,1-1.09-.57,1.48,1.48,0,0,1-.33-1.06l4.9-46.63Z" fill="#fafafa"/><path d="M118.92,138.39a1.38,1.38,0,0,1-.39,1,1.58,1.58,0,0,1-1.14.5h0a1.54,1.54,0,0,1-1.57-1.45l-1.26-46.8h3.17Z" fill="#fafafa"/><path d="M110.06,139.35a1.58,1.58,0,0,1-1.09.57h-.16a1.55,1.55,0,0,1-1.58-1.34l-4.92-46.86s0,0,0-.06h3.18l4.89,46.63A1.47,1.47,0,0,1,110.06,139.35Z" fill="#fafafa"/><path d="M190.6,75.9V87.85a1.85,1.85,0,0,1-1.85,1.85H167.12a1.85,1.85,0,0,1-1.85-1.85V72.17a1.85,1.85,0,0,1,1.85-1.85h5.94l4.87,5.58Z" fill="#a365c9"/><path d="M204.13,59.38V48a1.65,1.65,0,0,0-.83-1.43l-9.85-5.69a1.64,1.64,0,0,0-1.66,0l-9.85,5.69a1.65,1.65,0,0,0-.83,1.43V59.38a1.66,1.66,0,0,0,.83,1.43l9.85,5.69a1.69,1.69,0,0,0,1.66,0l9.85-5.69A1.66,1.66,0,0,0,204.13,59.38Z" fill="#0d1019"/><polygon points="194.68 51.08 200.4 54.43 194.68 58.08 194.68 55.71 196.55 54.58 194.68 53.54 194.68 51.08" fill="#a365c9"/><polygon points="190.44 49.3 184.72 52.65 190.44 56.3 190.44 53.94 188.57 52.8 190.44 51.77 190.44 49.3" fill="#a365c9"/><polygon points="192.91 49.3 190.93 58.08 192.31 58.08 194.43 49.3 192.91 49.3" fill="#a365c9"/><path d="M55.63,145.63c1.16-11.64,0-18.62,7-19.2s5.24,11,8.44,9.6,3.78-4.65,2-13.09S69,97.34,83,97.05,91.12,116,88.5,121.34s2.62,11.78,6.11,3.93,5.82-9.9,9.89-7.86,4.37,5.53,1.46,12.22-1.09,9.31,1.93,5.24,8.83-3.2,10.58-.59-2,11.35-2,11.35Z" fill="#0d1019"/><path d="M211,146.63H49a1,1,0,1,1,0-2H211a1,1,0,1,1,0,2Z" fill="#e2eaf2"/><rect x="149.28" y="35.82" width="22.81" height="14.06" rx="1.23" transform="matrix(0.97, -0.26, 0.26, 0.97, -5.61, 43.39)" fill="#a365c9"/><path d="M154.29,49.39l15.22-4.08a31.87,31.87,0,0,0-4.3-4.31c-2.49-2-3.2-2.59-4.34-.29a24.9,24.9,0,0,0-1.62,4,18.38,18.38,0,0,0-2.17-1.18C156,43.08,154.29,49.39,154.29,49.39Z" fill="#fafafa"/><circle cx="155.66" cy="40.98" r="1.56" fill="#fafafa"/></svg>