<svg id="Layer_1" data-name="Layer 1" xmlns="http://www.w3.org/2000/svg" viewBox="0 0 260 180"><title>Flat Web Illustrations Pack - Scene 38</title><path d="M176.2,102.33c-.52,0-1,0-1.56-.07l.26-2.87a15.28,15.28,0,0,0,2.62,0l.27,2.87C177.26,102.31,176.73,102.33,176.2,102.33Zm-4.66-.64a17.2,17.2,0,0,1-2.94-1.14L169.89,98a13.37,13.37,0,0,0,2.44.94Zm9.34,0-.79-2.77a14.18,14.18,0,0,0,2.44-1l1.29,2.58A17.2,17.2,0,0,1,180.88,101.68Zm-15-2.78a17.29,17.29,0,0,1-2.33-2.12l2.13-2a14.15,14.15,0,0,0,1.94,1.77Zm20.57,0-1.74-2.3a14.15,14.15,0,0,0,1.94-1.77l2.13,1.94A16.78,16.78,0,0,1,186.49,98.88Zm-24.8-4.61a16.5,16.5,0,0,1-1.41-2.82l2.69-1a13.82,13.82,0,0,0,1.17,2.34Zm29,0-2.45-1.52a13.77,13.77,0,0,0,1.16-2.34l2.69,1A16.46,16.46,0,0,1,190.72,94.24Zm-31.31-5.81a17.39,17.39,0,0,1-.29-3.14H162a15.07,15.07,0,0,0,.25,2.6Zm33.57,0-2.83-.53a14.13,14.13,0,0,0,.24-2.6l2.88-.07v.07A16.35,16.35,0,0,1,193,88.39Zm-30.74-5.71-2.84-.52a17.56,17.56,0,0,1,.85-3l2.7,1A12.93,12.93,0,0,0,162.24,82.68Zm27.9-.09a13.62,13.62,0,0,0-.73-2.51L192.1,79a16.9,16.9,0,0,1,.87,3Zm-26-4.78-2.46-1.51a17.15,17.15,0,0,1,1.9-2.52l2.13,1.94A15.21,15.21,0,0,0,164.11,77.81Zm24.13-.07a14.67,14.67,0,0,0-1.59-2.08l2.12-2a16.53,16.53,0,0,1,1.91,2.5ZM167.61,74l-1.74-2.3A17,17,0,0,1,168.54,70l1.29,2.57A15.55,15.55,0,0,0,167.61,74Zm17.1,0a13.49,13.49,0,0,0-2.23-1.37l1.28-2.59a17.53,17.53,0,0,1,2.68,1.65Zm-12.44-2.29-.8-2.77a16.29,16.29,0,0,1,3.1-.58l.27,2.87A13.87,13.87,0,0,0,172.27,71.61Zm7.77,0a14.11,14.11,0,0,0-2.58-.47l.25-2.87a17.08,17.08,0,0,1,3.1.56Z" fill="#e2eaf2"/><circle cx="189.91" cy="74.82" r="9.17" fill="#a365c9"/><path d="M191.28,78.68a1.21,1.21,0,1,1-2.41,0Z" fill="#fafafa"/><path d="M186.54,78h7.07l-.42-.94a1.38,1.38,0,0,1,0-1,4.24,4.24,0,0,0,.21-1.35A3.67,3.67,0,0,0,190.59,71v-.72a.52.52,0,0,0-1,0V71a3.67,3.67,0,0,0-2.79,3.74,4.24,4.24,0,0,0,.22,1.35,1.38,1.38,0,0,1,0,1Z" fill="#fafafa"/><path d="M174.12,79.75,136.24,45.54a2.22,2.22,0,0,0-3,0L95.39,79.75v50.12a1.45,1.45,0,0,0,1.44,1.44h75.85a1.45,1.45,0,0,0,1.44-1.44Z" fill="#a365c9"/><polygon points="99.72 81.68 134.75 50.03 169.79 81.68 134.76 105.25 99.72 81.68" fill="#0d1019"/><path d="M100.93,51.09h53.55a8.1,8.1,0,0,1,8.1,8.1V86.53l-27.82,18.72L106.18,86V60.72H93.25S92,52.62,100.93,51.09Z" fill="#e2eaf2"/><path d="M105.91,60.72V59.19a8.11,8.11,0,0,0-3.82-6.88A3.74,3.74,0,0,0,98.8,52a7.6,7.6,0,0,0-3,2.13c-2.05,2.39-2,6.56-2,6.56Z" fill="#0d1019"/><circle cx="114.93" cy="62.26" r="3.75" fill="#fafafa"/><path d="M133.68,61.22H121.54a1.08,1.08,0,0,1,0-2.16h12.14a1.08,1.08,0,0,1,0,2.16Z" fill="#fafafa"/><path d="M142.56,65.7h-21a.72.72,0,1,1,0-1.44h21a.72.72,0,1,1,0,1.44Z" fill="#fafafa"/><path d="M156.46,74.82H113a.72.72,0,0,1,0-1.44h43.44a.72.72,0,0,1,0,1.44Z" fill="#fafafa"/><path d="M156.46,78.89H113a.72.72,0,0,1,0-1.44h43.44a.72.72,0,0,1,0,1.44Z" fill="#fafafa"/><path d="M156.46,83H113a.72.72,0,0,1,0-1.44h43.44a.72.72,0,0,1,0,1.44Z" fill="#fafafa"/><path d="M131.69,87H113a.72.72,0,1,1,0-1.44h18.67a.72.72,0,0,1,0,1.44Z" fill="#fafafa"/><path d="M74.06,95c-.37,3,2.52,4.55,6.42,4.9s5,.06,6.14-2.45,1.68-5.59.7-8-3.49-1.17-4,1.44-1.39,2.19-1.39.66-1.26-3.08-3.21-2.1-2.24,2.83-.28,4.07.69,1.6-1.12.72S74.2,93.9,74.06,95Z" fill="#0d1019"/><path d="M61,81.94c-.37,3,2.52,4.55,6.43,4.9s5,.06,6.13-2.45,1.68-5.59.7-8-3.49-1.17-4,1.44-1.39,2.19-1.39.66-1.26-3.08-3.21-2.1-2.24,2.83-.28,4.07.7,1.6-1.12.72S61.1,80.8,61,81.94Z" fill="#0d1019"/><path d="M81.69,69.52c-2.44,1.15-2.24,4.06-.64,7.18s2.34,3.82,4.77,3.47,5-1.4,6.34-3.26-.78-3.19-3-2.37-2.32,0-1.16-.74,1.72-2.42.05-3.43-3.2-.33-3.2,1.73-.88,1.29-1.08-.5S82.62,69.08,81.69,69.52Z" fill="#0d1019"/><path d="M83,135c-4.34-4.93-5.81-9.3-3.84-10.68s4.92,2.36,6.3,0-3.35-4.07-7.09-7-5.52-7.49-2.76-10.31,6.31.33,8.47,3.48,2.56,4.73,5.12,4.13-.78-3.15-.78-5.41,3.74-5.22,6.1-1.28,2.56,6,3.75,5.27-.18-3.4,1.38-5c2.85-2.83,4.82,2.49,11.32,9.45s9.65,5.33,7.49,2.11-5.52-8.15-2.37-9.13,6.46,7.84,11.21,13.48,6.33,4.5,4.75,1.36,1.38-5.26,5.52,0,7.06,9.44,7.06,9.44H83Z" fill="#0d1019"/></svg>