<svg id="Layer_1" data-name="Layer 1" xmlns="http://www.w3.org/2000/svg" viewBox="0 0 220 180"><title>Flat Web Illustrations Pack - Scene 39</title><circle cx="102.81" cy="46.27" r="3.23" fill="#e2eaf2"/><path d="M96.56,60.73a3.29,3.29,0,0,1-1.63-.41c-3.71-2.09-1.67-10.39,2.13-17.14s9.83-12.82,13.53-10.73,1.67,10.38-2.13,17.14C105.18,55.42,100.24,60.73,96.56,60.73Zm12.39-27c-2.34,0-6.74,3.77-10.39,10.26-4.12,7.33-4.78,13.68-2.79,14.79s7.07-2.74,11.19-10.07,4.77-13.67,2.79-14.79A1.72,1.72,0,0,0,109,33.76Z" fill="#e2eaf2"/><path d="M94.41,54.52c-3.41,0-6.06-.87-6.77-3-1.38-4,5.67-8.86,13-11.37a32.55,32.55,0,0,1,11-1.94c3.43.1,5.67,1.15,6.28,3,1.38,4-5.67,8.86-13,11.37A33.86,33.86,0,0,1,94.41,54.52ZM111,40a31.3,31.3,0,0,0-9.82,1.86c-8,2.72-12.67,7-11.93,9.17s7.1,2.66,15-.06,12.67-7,11.93-9.18c-.36-1-2.11-1.71-4.7-1.78Z" fill="#e2eaf2"/><path d="M107.49,61.46c-3.74,0-8.21-6.16-10.81-12.65-2.87-7.19-3.8-15.69.14-17.27s9.14,5.22,12,12.41h0a32.22,32.22,0,0,1,2.49,10.85c.08,3.44-.86,5.72-2.62,6.42A3.39,3.39,0,0,1,107.49,61.46ZM98,33a1.69,1.69,0,0,0-.56.1c-2.11.85-2.29,7.23.83,15s7.64,12.3,9.77,11.45c1-.41,1.59-2.2,1.54-4.78a31,31,0,0,0-2.37-10.25h0C104.36,37.42,100.3,33,98,33Z" fill="#e2eaf2"/><path d="M154.59,145.76c2.58-4.27,5.9-12.94,0-20s-10.15-2.76-8.86,1.48,2.3,8-.23,9.54-5.12-1.61-9.37-7.14-7-5.54-9.22-2.77,1.7,7,3.34,10.62-1.5,7.48-6.3,0-9.59-5.39-8.67-1.27.37,5-1.66,5.2-.92-4.78-4.24-5.05-7.94,3.29-2.59,9.35Z" fill="#0d1019"/><path d="M180.54,79.48v38.13a5.28,5.28,0,0,1-5.28,5.28h0a5.27,5.27,0,0,1-5.28-5.28V79.48h-.31a1.14,1.14,0,0,1-1.12-.81,1.12,1.12,0,0,1,1.08-1.43h11.21a1.14,1.14,0,0,1,1.12.82,1.12,1.12,0,0,1-1.08,1.42Z" fill="#a365c9"/><path d="M154.59,92.1,139.73,70.6l0-.07V46h.56a1.83,1.83,0,0,0,0-3.65H122A1.83,1.83,0,0,0,122,46h.56V70.53l0,.07L107.64,92.1c-7,10.11-13.33,24.31-9.07,24.31h65.09C167.91,116.41,161.58,102.21,154.59,92.1Z" fill="#a365c9"/><rect x="123.52" y="30.72" width="14.71" height="2.45" rx="1.22" fill="#0d1019"/><polygon points="136.66 31.94 135.84 42.33 125.73 42.33 124.92 31.94 136.66 31.94" fill="#0d1019"/><rect x="141.12" y="52.49" width="27.39" height="2.96" fill="#0a0d16"/><rect x="162.67" y="82.4" width="18.52" height="2.96" fill="#0d1019"/><rect x="121.11" y="51.35" width="20" height="5.23" fill="#0d1019"/><rect x="161.53" y="52.49" width="2.92" height="91.75" fill="#0d1019"/><path d="M101,144.24h68.31a3,3,0,0,1,3,3v0a0,0,0,0,1,0,0H97.94a0,0,0,0,1,0,0v0A3,3,0,0,1,101,144.24Z" fill="#0d1019"/><path d="M191.8,149.28H68.2a1,1,0,0,1,0-2H191.8a1,1,0,0,1,0,2Z" fill="#e2eaf2"/><path d="M85.11,91.26a1.5,1.5,0,0,1-1-2.59L93,80.22A1.5,1.5,0,1,1,95,82.39l-8.9,8.46A1.51,1.51,0,0,1,85.11,91.26Z" fill="#0d1019"/><circle cx="85.11" cy="89.76" r="2.96" fill="#a365c9"/><path d="M88.77,88.34l-2.63,2.5a1.44,1.44,0,0,1-1,.42,1.5,1.5,0,0,1-1-2.58l2.64-2.51A3.88,3.88,0,0,1,88.77,88.34Z" fill="#a365c9"/><path d="M84.31,88.34v1.21h1.4V88.34h.38v2.9h-.38V89.88h-1.4v1.36h-.38v-2.9Z" fill="#e2eaf2"/><path d="M103.26,91.26a1.51,1.51,0,0,1-1-.41l-8.9-8.46a1.5,1.5,0,0,1,2.07-2.17l8.9,8.45a1.5,1.5,0,0,1-1,2.59Z" fill="#0d1019"/><path d="M104.35,90.79a1.51,1.51,0,0,1-1.09.47,1.44,1.44,0,0,1-1-.42l-2.64-2.51a3.88,3.88,0,0,1,2.07-2.16l2.63,2.51A1.49,1.49,0,0,1,104.35,90.79Z" fill="#a365c9"/><circle cx="103.26" cy="89.76" r="2.96" fill="#a365c9"/><path d="M102.41,88.34v1.21h1.4V88.34h.38v2.9h-.38V89.88h-1.4v1.36H102v-2.9Z" fill="#e2eaf2"/><circle cx="94.37" cy="81.31" r="5.94" fill="#0d1019"/><path d="M95.73,81.07a1.46,1.46,0,0,1-1.44,1.64,1.43,1.43,0,0,1-1.4-1.58,1.47,1.47,0,0,1,1.44-1.63A1.42,1.42,0,0,1,95.73,81.07Zm-2.41.05c0,.66.36,1.26,1,1.26s1-.59,1-1.29-.33-1.27-1-1.27S93.32,80.44,93.32,81.12Z" fill="#e2eaf2"/><path d="M100.45,67.9a1.26,1.26,0,0,1-.94-.26,1.23,1.23,0,0,1-.2-1.74L105.62,58a1.24,1.24,0,1,1,1.94,1.54l-6.31,7.93A1.27,1.27,0,0,1,100.45,67.9Z" fill="#0d1019"/><circle cx="100.28" cy="66.67" r="2.44" fill="#a365c9"/><path d="M103.12,65.1l-1.87,2.34a1.19,1.19,0,0,1-.8.45,1.2,1.2,0,0,1-.94-.25,1.24,1.24,0,0,1-.2-1.74l1.87-2.35A3.19,3.19,0,0,1,103.12,65.1Z" fill="#a365c9"/><path d="M99.47,65.6l.13,1,1.15-.16-.14-1,.31,0,.33,2.37-.31,0-.15-1.11-1.15.16L99.8,68l-.31,0-.33-2.37Z" fill="#e2eaf2"/><path d="M115.3,65.82a1.17,1.17,0,0,1-.89-.22l-8.24-5.89a1.24,1.24,0,1,1,1.44-2l8.24,5.9a1.24,1.24,0,0,1,.29,1.73A1.2,1.2,0,0,1,115.3,65.82Z" fill="#0d1019"/><path d="M116.14,65.32a1.25,1.25,0,0,1-1.73.28L112,63.85a3.21,3.21,0,0,1,1.44-2l2.44,1.75A1.24,1.24,0,0,1,116.14,65.32Z" fill="#a365c9"/><circle cx="115.13" cy="64.6" r="2.44" fill="#a365c9"/><path d="M114.27,63.53l.14,1,1.14-.16-.13-1,.3,0,.33,2.37-.3,0-.16-1.11-1.15.16.16,1.11-.31,0L114,63.57Z" fill="#e2eaf2"/><circle cx="106.89" cy="58.7" r="4.9" fill="#0d1019"/><path d="M108,58.35a1.2,1.2,0,0,1-1,1.5,1.17,1.17,0,0,1-1.32-1.13,1.22,1.22,0,0,1,1-1.5A1.18,1.18,0,0,1,108,58.35Zm-2,.32c.07.54.44,1,1,.91s.74-.59.66-1.17-.41-1-.95-.92S105.93,58.11,106,58.67Z" fill="#e2eaf2"/><path d="M69.19,66.56a1.24,1.24,0,0,1,1.55-1.7l9.49,3.55a1.24,1.24,0,1,1-.87,2.32l-9.49-3.55A1.26,1.26,0,0,1,69.19,66.56Z" fill="#0d1019"/><circle cx="70.31" cy="66.02" r="2.44" fill="#a365c9"/><path d="M72.68,68.23l-2.81-1a1.17,1.17,0,0,1-.67-.62,1.21,1.21,0,0,1-.06-1,1.25,1.25,0,0,1,1.6-.73l2.81,1A3.18,3.18,0,0,1,72.68,68.23Z" fill="#a365c9"/><path d="M71.07,64.91l-.9.44.51,1,.9-.44.14.28-2.16,1L69.43,67l1-.49-.51-1-1,.49-.14-.28,2.16-1.05Z" fill="#e2eaf2"/><path d="M75.75,80a1.24,1.24,0,0,1-.07-.91l3.07-9.66a1.24,1.24,0,1,1,2.36.75l-3.06,9.66a1.24,1.24,0,0,1-1.56.8A1.18,1.18,0,0,1,75.75,80Z" fill="#0d1019"/><path d="M76.49,80.69a1.26,1.26,0,0,1-.74-.65,1.19,1.19,0,0,1-.06-.91l.91-2.87A3.24,3.24,0,0,1,79,77L78,79.88A1.24,1.24,0,0,1,76.49,80.69Z" fill="#a365c9"/><circle cx="76.87" cy="79.5" r="2.44" fill="#a365c9"/><path d="M77.61,78.35l-.9.44.51,1,.9-.43.13.27-2.15,1L76,80.44,77,80l-.5-1-1,.49-.14-.28,2.16-1.05Z" fill="#e2eaf2"/><circle cx="79.93" cy="69.84" r="4.9" fill="#0d1019"/><path d="M80.6,70.77a1.21,1.21,0,0,1-1.74-.48,1.18,1.18,0,0,1,.67-1.61,1.23,1.23,0,0,1,1.73.48A1.18,1.18,0,0,1,80.6,70.77ZM79.69,69a.85.85,0,1,0,1.32.28C80.77,68.77,80.19,68.75,79.69,69Z" fill="#e2eaf2"/></svg>