<svg id="Layer_1" data-name="Layer 1" xmlns="http://www.w3.org/2000/svg" viewBox="0 0 220 180"><title>Flat Web Illustrations Pack - Scene 40</title><path d="M167.88,60H152.37V75.5h0A15.5,15.5,0,0,0,167.88,60Z" fill="#0d1019"/><path d="M167.88,102.88H152.37V87.36h0A15.51,15.51,0,0,1,167.88,102.88Z" fill="#0d1019"/><path d="M172.63,60h15.52V75.5h0A15.51,15.51,0,0,1,172.63,60Z" fill="#0d1019"/><path d="M172.63,102.88h15.52V87.36h0A15.52,15.52,0,0,0,172.63,102.88Z" fill="#0d1019"/><path d="M127.62,60H112.11V75.5h0A15.5,15.5,0,0,0,127.62,60Z" fill="#0d1019"/><path d="M127.62,102.88H112.11V87.36h0A15.51,15.51,0,0,1,127.62,102.88Z" fill="#0d1019"/><path d="M132.38,60h15.51V75.5h0A15.5,15.5,0,0,1,132.38,60Z" fill="#0d1019"/><path d="M132.38,102.88h15.51V87.36h0A15.51,15.51,0,0,0,132.38,102.88Z" fill="#0d1019"/><path d="M87.37,60H71.85V75.5h0A15.51,15.51,0,0,0,87.37,60Z" fill="#0d1019"/><path d="M87.37,102.88H71.85V87.36h0A15.52,15.52,0,0,1,87.37,102.88Z" fill="#0d1019"/><path d="M92.12,60h15.51V75.5h0A15.5,15.5,0,0,1,92.12,60Z" fill="#0d1019"/><path d="M92.12,102.88h15.51V87.36h0A15.51,15.51,0,0,0,92.12,102.88Z" fill="#0d1019"/><rect x="71.85" y="108.33" width="100.78" height="11.68" rx="5.84" fill="#a365c9"/><circle cx="180.43" cy="114.17" r="5.84" fill="#a365c9"/><path d="M182.79,118h0a.6.6,0,0,1-.85-.27l-1.16-2.78c0-.09.07-.24.24-.33h0c.17-.09.35-.09.41,0l1.63,2.54A.61.61,0,0,1,182.79,118Z" fill="#fafafa"/><path d="M180,111.09a1.59,1.59,0,0,1,.74,3,1.59,1.59,0,0,1-1.47-2.81,1.64,1.64,0,0,1,.73-.18m0-.78h0a2.36,2.36,0,0,0-2.25,1.66,2.31,2.31,0,0,0,.16,1.8A2.35,2.35,0,0,0,180,115a2.37,2.37,0,0,0,2.09-3.46,2.36,2.36,0,0,0-2.1-1.27Z" fill="#fafafa"/><rect x="76.63" y="110.6" width="1.49" height="7.14" rx="0.74" fill="#fafafa"/></svg>