<svg id="Layer_1" data-name="Layer 1" xmlns="http://www.w3.org/2000/svg" viewBox="0 0 220 180"><title>Flat Web Illustrations Pack - Scene 41</title><path d="M197.88,102.8a15.41,15.41,0,0,1-8.17-2.11,14.85,14.85,0,0,0-14.5,0,16.87,16.87,0,0,1-16.34,0,14.83,14.83,0,0,0-14.49,0,16.85,16.85,0,0,1-16.33,0,14.83,14.83,0,0,0-14.49,0,16.87,16.87,0,0,1-16.34,0,14.83,14.83,0,0,0-14.49,0,15.41,15.41,0,0,1-8.17,2.11,15.4,15.4,0,0,1-8.16-2.11,13.57,13.57,0,0,0-7.25-1.89,13.56,13.56,0,0,0-7.24,1.89,15.41,15.41,0,0,1-8.17,2.11,1,1,0,1,1,0-2A13.58,13.58,0,0,0,51,98.92a15.39,15.39,0,0,1,8.16-2.12,15.4,15.4,0,0,1,8.17,2.12,14.9,14.9,0,0,0,14.49,0,16.78,16.78,0,0,1,16.33,0,14.9,14.9,0,0,0,14.49,0,16.8,16.8,0,0,1,16.34,0,14.9,14.9,0,0,0,14.49,0,16.8,16.8,0,0,1,16.34,0,14.9,14.9,0,0,0,14.49,0,16.8,16.8,0,0,1,16.34,0,13.58,13.58,0,0,0,7.25,1.88,1,1,0,0,1,0,2Z" fill="#e2eaf2"/><path d="M216.26,115.87a15.5,15.5,0,0,1-8.17-2.11,14.83,14.83,0,0,0-14.49,0,15.5,15.5,0,0,1-8.17,2.11,1,1,0,0,1,0-2,13.53,13.53,0,0,0,7.24-1.89A16.87,16.87,0,0,1,209,112a13.57,13.57,0,0,0,7.25,1.89,1,1,0,0,1,0,2Z" fill="#e2eaf2"/><path d="M189.88,134.49a15.4,15.4,0,0,1-8.16-2.11,14.85,14.85,0,0,0-14.5,0,15.41,15.41,0,0,1-8.17,2.11,1,1,0,0,1,0-2,13.57,13.57,0,0,0,7.25-1.89,16.87,16.87,0,0,1,16.34,0,13.53,13.53,0,0,0,7.24,1.89,1,1,0,0,1,0,2Z" fill="#e2eaf2"/><path d="M165.69,115.87a15.49,15.49,0,0,1-8.16-2.11,14.85,14.85,0,0,0-14.5,0,15.5,15.5,0,0,1-8.17,2.11,1,1,0,0,1,0-2,13.57,13.57,0,0,0,7.25-1.89,16.87,16.87,0,0,1,16.34,0,13.53,13.53,0,0,0,7.24,1.89,1,1,0,0,1,0,2Z" fill="#e2eaf2"/><path d="M71,148.7c-5.58-6.33-7.48-12-4.94-13.74s6.34,3,8.11,0-4.31-5.24-9.12-9-7.1-9.63-3.55-13.27,8.11.42,10.9,4.48,3.29,6.09,6.59,5.32-1-4-1-7,4.81-6.72,7.86-1.65,3.29,7.74,4.81,6.79-.23-4.37,1.78-6.36c3.67-3.65,6.21,3.2,14.57,12.16s12.43,6.85,9.64,2.71-7.1-10.49-3-11.75,8.3,10.09,14.42,17.34,8.14,5.8,6.11,1.75,1.78-6.76,7.1,0,9.09,12.15,9.09,12.15H71Z" fill="#e2eaf2"/><path d="M173.47,150.11H68.15a1,1,0,0,1,0-2H173.47a1,1,0,1,1,0,2Z" fill="#e2eaf2"/><path d="M92.45,137.08a6.52,6.52,0,0,1,5.57.3c2.29,1.1,4.08,2,6.07,2H93S90.68,138.3,92.45,137.08Z" fill="#a365c9"/><path d="M139,138.92c-.38-.78-1.29-2.57-5.16-2s-3.48,2.23-6.92,2.23H93.66c-1.56,0-2-1.33-1.17-1.82s.63-.68-.39,0-1.47,3.15,1.56,3.44h43.49C138.7,140.74,139.34,139.71,139,138.92Z" fill="#0a0d16"/><circle cx="99.28" cy="145.86" r="2.26" fill="#0a0d16"/><circle cx="99.28" cy="145.86" r="1.05" fill="#e2eaf2"/><circle cx="102.59" cy="145.86" r="2.26" fill="#0a0d16"/><circle cx="102.59" cy="145.86" r="1.05" fill="#e2eaf2"/><path d="M101.92,140.35v3.46a1,1,0,0,1-1,1h0a1,1,0,0,1-1-1v-.94l-2.73-2.52Z" fill="#0a0d16"/><circle cx="132.89" cy="145.86" r="2.26" fill="#0a0d16"/><circle cx="132.89" cy="145.86" r="1.05" fill="#e2eaf2"/><circle cx="136.2" cy="145.86" r="2.26" fill="#0a0d16"/><circle cx="136.2" cy="145.86" r="1.05" fill="#e2eaf2"/><path d="M135.53,140.35v3.46a1,1,0,0,1-1,1h0a1,1,0,0,1-1-1v-.94l-2.73-2.52Z" fill="#0a0d16"/><circle cx="166.99" cy="82.7" r="10.45" fill="#e2eaf2"/><path d="M113.08,48.35c-5.56-.36-8.06-1.21-9.48,1.4a37.12,37.12,0,0,0-4,19c.55,8.94,2.81,13.91,9.07,14s17.19.84,18.5-11.22-3.41-19.68-5-21.54C121.34,49,115.37,48.5,113.08,48.35Z" fill="#0a0d16"/><path d="M107.59,81.72c-1,10.82-1.41,22.76-1.41,22.76a80.18,80.18,0,0,0-1.05,12.64c.08,6,1.22,16.46,1.22,16.46s1.52,2.9,4.64,0c0,0,.61-9.48,1.38-13.84s4.26-21.11,4.26-21.11l.78-5.34h1.43s-.3,9.27,0,15c0,0-1.43,2.44-1.24,11.44a83.67,83.67,0,0,0,1.15,13.64s3,1.36,4.88-1.16c0,0-.76-2.13.76-10.06s2-10.07,2.74-15.68,1.27-17.38.23-24.76Z" fill="#eaa88e"/><path d="M128.6,66.81a37.79,37.79,0,0,1,1.51,10c0,3.22-.3,4.22-1.25,4.67s-1.29.36-2.14-2.59S125,73.06,124.05,70s-.27-4.27,1.74-5S128.26,65.67,128.6,66.81Z" fill="#eaa88e"/><path d="M105.94,90.54c-.92,4.52-1.7,8-1.7,8s3.36,2.71,13.68,2.2v-.91A22.33,22.33,0,0,0,129,98.67s0-7.35-.64-12.9a58.46,58.46,0,0,1-13.17,1.11c-7.35-.21-8.19,0-8.19,0Z" fill="#0a0d16"/><path d="M111.11,49a10.42,10.42,0,0,0,2.13-3.2s-3.77-3.58-1.54-10.26,14.22-5,14.71,1.94-.75,11.21-4.29,11.84A9.86,9.86,0,0,1,117.6,49a1.21,1.21,0,0,0,.39,1.74c1.06.87-1.34,2.87-4.46,1C111,50.16,111.11,49,111.11,49Z" fill="#eaa88e"/><path d="M114.63,43.19a7.52,7.52,0,0,1-1.72,3.3,10.14,10.14,0,0,1-3-7.07c.1-4.26,2-7.22,5.81-8.11a5.63,5.63,0,0,1,5-1.28c3.1.68,3.39.87,4.55,1.93s2.42,1.36,2.81,2.81.67,3.83-2.33,3.27a5.39,5.39,0,0,1-3.19,0c-1.55-.56-3.68,1-5.81,0l-.58,3.86h-.58s.45-2.19-1-2.19S112.05,41.74,114.63,43.19Z" fill="#0a0d16"/><path d="M102.7,55.19A110,110,0,0,0,99.41,69c-.49,3.48,1,4.35,3.29,3.58s3.29-3.58,4-9.19.39-8.33-.77-9.68S103,54.05,102.7,55.19Z" fill="#eaa88e"/><path d="M120.41,55.2a112.35,112.35,0,0,0,2.22,14c.88,3.4,2.55,3.66,4.41,2.06s1.68-4.56.17-10-2.81-7.85-4.39-8.66S120.29,54,120.41,55.2Z" fill="#eaa88e"/><path d="M111.11,49c-2.16,1.06-5.58,2.55-7.58,3.5s-4.71,13-4.71,13a27.64,27.64,0,0,0,7.75,1s-.26,9.74-.46,15.22a44.78,44.78,0,0,1-1,8.71s2.57.9,10.83.32,10.52-.32,12.19-1.42,2.13-1,2.13-1-1.61-10.9-2.38-16.45a59.47,59.47,0,0,0-1.36-7.48,8,8,0,0,0,1.88-.33s-1.56-7-2.72-9.42-3.49-4.19-8.26-4.71c0,0-.12.13.59.91s-1,2.33-3.46,1.45A6.41,6.41,0,0,1,111.11,49Z" fill="#a365c9"/><path d="M122.43,64.51l-1.45,8a.27.27,0,0,0,.27.32h4.15a.27.27,0,0,0,.27-.23l1.22-8a.27.27,0,0,0-.27-.31H122.7A.28.28,0,0,0,122.43,64.51Z" fill="#0a0d16"/><path d="M121.76,67.77a12.07,12.07,0,0,0,2.81,0c1.35-.19,1.35-1,1.93-1.06s1.06,1.45,0,3.19-4.72,1.91-7.66,1.58l-2.94.78s-2.66-2,0-3.93l2.41,0a5.49,5.49,0,0,1,1.8-1.12c1.46-.68,1.94-.49,1.94-.49Z" fill="#eaa88e"/><path d="M107.47,64.29A28,28,0,0,0,110,55.51c.42-4.06-.69-5.31-.69-5.31s-.58-1.11-3,0c-1.93.9-1,1.55,0,2.71S108.76,57.45,107.47,64.29Z" fill="#0a0d16"/><path d="M118.84,50c1.08-.13,3.66,3.86,4.76,6.63a39.48,39.48,0,0,1,1.74,6.91,32,32,0,0,0-.77-9.36c-1.16-4.06-1.68-4.39-3.36-4.39A9.23,9.23,0,0,0,118.84,50Z" fill="#0a0d16"/><path d="M101,73.58a47.09,47.09,0,0,0,12.49-.71c3.87-.84,5-1.42,5.31-2.68s.11-1.65-3.67-1.94-7.51-.61-11.42-1-4,.19-4.35,2.8S99.5,73.46,101,73.58Z" fill="#eaa88e"/><path d="M117.66,136.87s-.77,1.55.84,1.55a66.57,66.57,0,0,1,6.71.58c2.84.32,4.2,0,4.71-1a2.72,2.72,0,0,0,.26-1.88l-2.24.9-4.66-.32Z" fill="#a365c9"/><path d="M118.42,131.3h3.11a14.85,14.85,0,0,1,2.41-1.79l.45,3.23a12.06,12.06,0,0,0,3.55,2.13c1.59.45,2.5.84,2.17,1.74s-.71,1.93-4.71,1.16a56.53,56.53,0,0,0-7.74-.9s-.36-2.59,1-4.08Z" fill="#0a0d16"/><path d="M104.73,134.87s-1.26,2-.24,2.83a8.53,8.53,0,0,0,5.61,1.15c2.13-.29,2.16-1.26,2-3.53a2,2,0,0,1-2,1.57,16.84,16.84,0,0,1-3.63-.31l-1-1.07Z" fill="#a365c9"/><path d="M106,132.39,108,130h1.16l1.93,1.94a1.79,1.79,0,0,1,.59,1.15c.24,1.53,1.35,4.26-1.46,4.55s-5.51-.58-5.51-2.13S105.08,134.14,106,132.39Z" fill="#0a0d16"/><path d="M130.08,78.16c0,2.9,1,5.49-.35,6.55s-1.23.67-1-.68-.16-1.33-.16-1.33l-.22,1.07s-.63-.23,0-2.07a9.09,9.09,0,0,0,.35-3.81Z" fill="#eaa88e"/></svg>