<svg id="Layer_1" data-name="Layer 1" xmlns="http://www.w3.org/2000/svg" viewBox="0 0 260 180"><title>Flat Web Illustrations Pack - Scene 42</title><path d="M163.45,60.67h-15.6a.63.63,0,0,0-.63.63v6.12a.64.64,0,0,0,.63.64h.49a2.14,2.14,0,0,1,0,.57,2,2,0,0,1-.33.89,1.9,1.9,0,0,1-.34.42,5.39,5.39,0,0,1-.43.39h0a.1.1,0,0,0,0,.13.11.11,0,0,0,.07,0c.2,0,.42,0,.63,0a3.85,3.85,0,0,0,.67-.09,3.53,3.53,0,0,0,1.34-.62A4.29,4.29,0,0,0,151,68.63q.11-.16.21-.36a2,2,0,0,1,.1-.21h12.1a.64.64,0,0,0,.63-.64V61.3A.63.63,0,0,0,163.45,60.67Z" fill="#a365c9"/><path d="M149.44,63.22h7.37a.65.65,0,0,0,.65-.65.66.66,0,0,0-.65-.66h-7.37a.67.67,0,0,0-.66.66A.66.66,0,0,0,149.44,63.22Z" fill="#fafafa"/><path d="M149.22,65.94H162a.44.44,0,0,0,0-.87H149.22a.44.44,0,1,0,0,.87Z" fill="#fafafa"/><path d="M174.16,152.77a12.22,12.22,0,0,1-.86,4.54H86.94a9.76,9.76,0,0,1-1.1-4.54,10,10,0,0,1,10-10c.23,0,.47,0,.7,0a13.55,13.55,0,0,1,12-7.21h.31a5.66,5.66,0,0,1,9.42-4.24c4.17-14.93,7.55-48.23,8.93-50.57a2.39,2.39,0,0,1,3.72,0c1.38,2.34,4.77,35.78,9,50.66h.26a5.64,5.64,0,0,1,5.15,3.31A8.1,8.1,0,0,1,157.1,141a12.57,12.57,0,0,1,17.06,11.73Z" fill="#a365c9"/><path d="M152.8,143.55a7.81,7.81,0,0,0-2.27,2.09,6.76,6.76,0,0,0-2.48-4.53,7,7,0,0,0-3.07-1.47,7.64,7.64,0,0,0-3.43.12,7.22,7.22,0,0,0-4.85,4.55,7.13,7.13,0,0,0-.32,3.33,6.66,6.66,0,0,0,1.27,3,7.26,7.26,0,0,1-.12-6,6.71,6.71,0,0,1,10-2.82,7.15,7.15,0,0,1,2.82,4.1,1.25,1.25,0,0,0-.08.12,7.74,7.74,0,0,0-1.18,3.35,6.65,6.65,0,0,0,.5,3.43,13.46,13.46,0,0,1,.37-3.28,10,10,0,0,1,1.27-2.89,10.81,10.81,0,0,1,4.91-4.07A6.61,6.61,0,0,0,152.8,143.55Z" fill="#fafafa"/><path d="M128.65,132.32a4.64,4.64,0,0,0-3.64,1.07,4.14,4.14,0,0,0-1.45,3,6.1,6.1,0,0,0-7.73,3.42,5.6,5.6,0,0,0,0,4.31,7.42,7.42,0,0,0-2.74,0A7,7,0,0,0,110,145.6a6.78,6.78,0,0,0-2.45,4.23,7.19,7.19,0,0,0-.29-1.3,7.76,7.76,0,0,0-4.89-4.89,6.7,6.7,0,0,0-3.46-.25,11,11,0,0,1,5.68,2.92,10,10,0,0,1,1.85,2.56,12.81,12.81,0,0,1,1.06,3.11,5.76,5.76,0,0,0,.12-1.18,7.17,7.17,0,0,1,2.91-4.5,6.72,6.72,0,0,1,10,2.82,7.23,7.23,0,0,1-.12,6,6.57,6.57,0,0,0,1.27-3,7.12,7.12,0,0,0-5.17-7.88,4.69,4.69,0,0,0-.54-.11,6.45,6.45,0,0,1,.65-4,5.84,5.84,0,0,1,7.32-2.65,6.51,6.51,0,0,1,3.26,2.95,5.57,5.57,0,0,0-2.89-3.76c-.21-.11-.42-.2-.64-.29a4.93,4.93,0,0,1,1.87-2.32,4.36,4.36,0,0,1,5.61.77,5,5,0,0,1,1.22,3,4.06,4.06,0,0,0-.51-3.56A4.6,4.6,0,0,0,128.65,132.32Z" fill="#fafafa"/><path d="M147.38,100.51l-1.82-5.41V75.24c0-9.25-9.12-25.67-16.75-29.24h0c-7.63,3.57-16.75,20-16.75,29.24V94.17l-2.13,6.34Z" fill="#e2eaf2"/><circle cx="128.81" cy="69.32" r="7.82" fill="#fafafa"/><path d="M112.5,94.7h-7s-2.38-11,6.63-17.56h1.3Z" fill="#e2eaf2"/><path d="M145.56,94.7h7.05S155,83.7,146,77.14h-1.31Z" fill="#e2eaf2"/><circle cx="121.01" cy="31.73" r="9.05" fill="#e2eaf2"/><polygon points="122.81 29.39 127.93 32.39 122.81 35.66 122.81 33.54 124.49 32.53 122.81 31.6 122.81 29.39" fill="#a365c9"/><polygon points="119.02 27.8 113.9 30.8 119.02 34.07 119.02 31.95 117.34 30.94 119.02 30.01 119.02 27.8" fill="#a365c9"/><polygon points="121.22 27.8 119.46 35.66 120.69 35.66 122.59 27.8 121.22 27.8" fill="#a365c9"/><path d="M165.27,36.35h-17a6.64,6.64,0,0,0-2,13,1.43,1.43,0,0,1,.08.22,3.13,3.13,0,0,1,.14,1.3,3.2,3.2,0,0,1-.52,1.41,4.17,4.17,0,0,1-.54.67c-.21.22-.45.4-.69.61l0,0a.16.16,0,0,0,0,.21.16.16,0,0,0,.11.05c.32,0,.66,0,1,0a5.67,5.67,0,0,0,3.18-1.12,7,7,0,0,0,1.74-1.89l.33-.57c.09-.2.2-.4.28-.61v0h14a6.65,6.65,0,0,0,0-13.29Z" fill="#0a0d16"/><circle cx="166.62" cy="42.59" r="2.53" fill="#a365c9"/><circle cx="149" cy="42.59" r="2.53" fill="#fafafa"/><circle cx="157.81" cy="42.59" r="2.53" fill="#a365c9"/><path d="M111.27,57.13h0c-.19-.07-.37-.12-.54-.2a2.43,2.43,0,0,1-.47-.28,1.81,1.81,0,0,1-.62-.71,2,2,0,0,1-.22-.79v-.27a5.11,5.11,0,0,0,1-4.85h0a5.13,5.13,0,0,0-6.39-3.41L91.5,50.42a5.12,5.12,0,0,0-3.42,6.38h0a5.12,5.12,0,0,0,6.39,3.42l12.22-3.71.11.11.32.27a4.17,4.17,0,0,0,1.45.71,3.38,3.38,0,0,0,1.47.1,4.13,4.13,0,0,0,.65-.15,6.31,6.31,0,0,0,.58-.25s0,0,0-.06A.09.09,0,0,0,111.27,57.13Z" fill="#e2eaf2"/><circle cx="92.67" cy="55.09" r="1.95" fill="#a365c9"/><circle cx="105.68" cy="51.15" r="1.95" fill="#fafafa"/><circle cx="99.18" cy="53.12" r="1.95" fill="#a365c9"/></svg>