<svg id="Layer_1" data-name="Layer 1" xmlns="http://www.w3.org/2000/svg" viewBox="0 0 260 180"><title>Flat Web Illustrations Pack - Scene 44</title><path d="M177.61,85c-.5,0-1,0-1.51-.07l.25-2.8a14.48,14.48,0,0,0,2.55,0l.26,2.8C178.66,85,178.13,85,177.61,85Zm-4.54-.63a17.06,17.06,0,0,1-2.86-1.1l1.25-2.52a14.29,14.29,0,0,0,2.38.92Zm9.12,0-.78-2.7a14.32,14.32,0,0,0,2.38-.93l1.26,2.52A16.59,16.59,0,0,1,182.19,84.4Zm-14.6-2.71a16.45,16.45,0,0,1-2.27-2.07l2.08-1.89a14,14,0,0,0,1.89,1.71Zm20.07,0L186,79.43a14.75,14.75,0,0,0,1.89-1.73l2.08,1.9A17.1,17.1,0,0,1,187.66,81.67Zm-24.2-4.49a16.79,16.79,0,0,1-1.37-2.75l2.62-1a13.87,13.87,0,0,0,1.14,2.28Zm28.32,0-2.39-1.48a13.92,13.92,0,0,0,1.13-2.29l2.63,1A16.79,16.79,0,0,1,191.78,77.15Zm-30.54-5.67a17.42,17.42,0,0,1-.28-3.06h2.81A13.6,13.6,0,0,0,164,71Zm32.75,0-2.77-.51a13.51,13.51,0,0,0,.23-2.55l2.82-.06v.06A17.33,17.33,0,0,1,194,71.44Zm-30-5.57-2.77-.51a17.81,17.81,0,0,1,.83-3l2.63,1A13.23,13.23,0,0,0,164,65.87Zm27.21-.09a14,14,0,0,0-.71-2.45l2.62-1a17,17,0,0,1,.86,3Zm-25.39-4.65-2.39-1.48a17,17,0,0,1,1.85-2.46l2.08,1.9A14,14,0,0,0,165.82,61.13Zm23.54-.08a13.8,13.8,0,0,0-1.55-2l2.07-1.9a16.91,16.91,0,0,1,1.86,2.44Zm-20.12-3.69-1.7-2.24a16.67,16.67,0,0,1,2.6-1.63L171.41,56A13.54,13.54,0,0,0,169.24,57.36Zm16.67,0A13.48,13.48,0,0,0,183.74,56L185,53.45a16.37,16.37,0,0,1,2.61,1.61Zm-12.13-2.23L173,52.37a17,17,0,0,1,3-.57l.26,2.8A14.26,14.26,0,0,0,173.78,55.08Zm7.58,0a14.37,14.37,0,0,0-2.51-.45l.24-2.81a17.36,17.36,0,0,1,3,.55Z" fill="#e2eaf2"/><path d="M118.14,39.1h56.61a0,0,0,0,1,0,0V90.2A3.81,3.81,0,0,1,170.93,94h-49a3.81,3.81,0,0,1-3.81-3.81V39.1A0,0,0,0,1,118.14,39.1Z" fill="#e2eaf2"/><path d="M118.14,32.39h56.61a0,0,0,0,1,0,0v3.85A3.81,3.81,0,0,1,170.93,40h-49a3.81,3.81,0,0,1-3.81-3.81V32.39A0,0,0,0,1,118.14,32.39Z" transform="translate(292.88 72.43) rotate(180)" fill="#a365c9"/><circle cx="122.84" cy="36.22" r="1.44" fill="#fafafa"/><circle cx="127.81" cy="36.22" r="1.44" fill="#fafafa"/><circle cx="132.78" cy="36.22" r="1.44" fill="#fafafa"/><rect x="121.97" y="45.6" width="48.99" height="15.33" rx="1.72" fill="#fafafa"/><rect x="121.97" y="64.03" width="48.99" height="15.33" rx="1.72" fill="#fafafa"/><path d="M171,84.18v10H122v-10a1.73,1.73,0,0,1,1.73-1.72h45.54A1.72,1.72,0,0,1,171,84.18Z" fill="#fafafa"/><polygon points="58.02 147.61 58.02 139.34 89.05 139.34 89.05 127.83 119.02 127.83 119.02 115.77 140.29 115.77 140.29 127.83 171.05 127.83 171.05 139.34 201.98 139.34 201.98 147.61 58.02 147.61" fill="#a365c9"/><path d="M74.7,136.34h0a1.75,1.75,0,0,1-1.39-1.93l.48-5.88c.14-1.76,1.35-3.2,2.67-3h0c1.32.21,2,2,1.58,3.68L76.62,135A1.75,1.75,0,0,1,74.7,136.34Z" fill="#eaa88e"/><path d="M71.46,134.81h11a0,0,0,0,1,0,0v2a2.86,2.86,0,0,1-2.86,2.86H76.36a4.9,4.9,0,0,1-4.9-4.9v0a0,0,0,0,1,0,0Z" transform="translate(153.95 274.51) rotate(-180)" fill="#0a0d16"/><path d="M84.55,84.55C81.46,90.78,78,102.4,76.92,108.3c0,0-1.81,6.63-3,12.62a68.58,68.58,0,0,0-1.18,11.71h4.72s3.81-9.44,6.26-14.43S90,103,91.9,98.68s2-13.73,2-13.73Z" fill="#0a0d16"/><path d="M100,124.47h0a1.76,1.76,0,0,1-1.39-1.93l.48-5.88c.15-1.76,1.35-3.2,2.67-3h0c1.32.21,2,2,1.58,3.68l-1.41,5.72A1.76,1.76,0,0,1,100,124.47Z" fill="#eaa88e"/><path d="M96.58,123.1h11a0,0,0,0,1,0,0v2a2.86,2.86,0,0,1-2.86,2.86h-3.27a4.9,4.9,0,0,1-4.9-4.9v0A0,0,0,0,1,96.58,123.1Z" transform="translate(204.19 251.1) rotate(-180)" fill="#0a0d16"/><path d="M86.91,89.79c1.54,5.17,11.6,17,11.6,17a31.32,31.32,0,0,0-.44,6.62c.09,4.18.44,8.17.44,8.17h4.1s5.81-11.7,4.9-15.88S96.89,86.61,96.89,86.61L95.71,85H89Z" fill="#0a0d16"/><path d="M86.42,60.06c-2.6,1.13-5.77,4.49-5.68,13.57s.51,14.74.51,14.74,2.59,1.23,9.75.42S98.51,87,98.51,87a83.45,83.45,0,0,1-1.71-12.4c-.09-4.93-4.72-10.56-6.26-12.83C90.54,61.74,86.56,62.47,86.42,60.06Z" fill="#a365c9"/><path d="M96.8,46.76c.18,4.18.37,7.54-.63,10.08s-5.63,1.63-5.63,1.63v3.27s-3.67.86-4.12-1.68,0-3.22-.87-6.85-.91-7.45,3.17-9.35S96.89,44.58,96.8,46.76Z" fill="#eaa88e"/><path d="M94.53,41.5c1,1.66,3.36,1.18,3.82,2.9s.09,4-2.55,4.63-3.81.73-4,1.91-.27,1.45-1.45,1.36c0,0-.37-1.36-1.18-1.36A1.25,1.25,0,0,0,88.27,53c.91.9,1.63.09,2.09.9s-.91,4.54-5,4.54S79.83,55.11,80,51.21s-.54-6.08,2.63-8.35,4-.82,6.08-2.27A4.58,4.58,0,0,1,94.53,41.5Z" fill="#0a0d16"/><circle cx="80" cy="42.36" r="3.83" fill="#0a0d16"/><rect x="73.66" y="73.19" width="38.3" height="14.48" rx="1.41" transform="translate(-16.92 25.28) rotate(-14.23)" fill="#e2eaf2"/><rect x="76.56" y="78.46" width="9.71" height="9.71" rx="1.41" transform="translate(-17.98 22.57) rotate(-14.23)" fill="#a365c9"/><path d="M100.25,77.38,88.77,80.29a1.06,1.06,0,0,1-.52-2.05l11.48-2.91a1.06,1.06,0,0,1,.52,2Z" fill="#fafafa"/><path d="M109.72,79.49l-19.87,5a.7.7,0,1,1-.35-1.36l19.88-5a.71.71,0,0,1,.34,1.37Z" fill="#fafafa"/><polyline points="83.28 81.68 81.34 84.95 79.22 83.69" fill="none" stroke="#fafafa" stroke-linecap="round" stroke-linejoin="round" stroke-width="0.96"/><path d="M88.53,63.28c-2.46.89-2.71,4.45-1.8,7.26a56.2,56.2,0,0,0,3.17,8.35c1.09,2,4.27,1.64,4-.72s-1.18-9.26-2.09-11.71S89.69,62.86,88.53,63.28Z" fill="#eaa88e"/><path d="M91.9,77.8c-1.09.79-1.91,1.91,0,3.73a32.36,32.36,0,0,0,7.26,4.9c1.45.54,3.09-.18,1.73-1.82s-4.81-4.08-5.9-5.26S92.53,77.35,91.9,77.8Z" fill="#eaa88e"/><path d="M100.16,85.25c1.27-.91,2.59-.46,4,0s1.09.68.5.81a6.28,6.28,0,0,1-1.68,0s.36.41,2,.55.27,1.22-1,1.36a5.61,5.61,0,0,1-3.32-.86,16,16,0,0,0-2.11-.94Z" fill="#eaa88e"/><circle cx="192.24" cy="68.41" r="7.48" fill="#a365c9"/><path d="M196.75,68.41h0a.77.77,0,0,1-.49.7,5.72,5.72,0,0,0-3.32,3.32.77.77,0,0,1-.7.49h0a.76.76,0,0,1-.7-.49,5.72,5.72,0,0,0-3.32-3.32.77.77,0,0,1-.49-.7h0a.77.77,0,0,1,.49-.7,5.72,5.72,0,0,0,3.32-3.32.76.76,0,0,1,.7-.49h0a.77.77,0,0,1,.7.49,5.72,5.72,0,0,0,3.32,3.32A.77.77,0,0,1,196.75,68.41Z" fill="#fafafa"/></svg>