<svg id="Layer_1" data-name="Layer 1" xmlns="http://www.w3.org/2000/svg" viewBox="0 0 220 180"><title>Flat Web Illustrations Pack - Scene 45</title><path d="M126.05,59.44H84.68a7.71,7.71,0,0,1-1.51-4.61A7.81,7.81,0,0,1,91,47h.27A8.74,8.74,0,0,1,91,44.85a9.06,9.06,0,0,1,16.38-5.34,10.59,10.59,0,0,1,21.11,1.13,10.48,10.48,0,0,1-1.06,4.61,7.81,7.81,0,0,1,6.33,14.19Z" fill="#a365c9"/><path d="M137.64,130.81a6.83,6.83,0,0,1-6.82-6.83V119.6l.12-5V103.24l-9.61.78v3.32a16.14,16.14,0,1,1-32.28,0v-.67l-9.65.79v7.41a8.62,8.62,0,1,1-17.23,0v-7.08a1,1,0,0,1,.91-1l14.32-1.17v-6.7a6.83,6.83,0,0,1,13.65,0v5.58l28.28-2.32,0-2.1a6.83,6.83,0,1,1,13.65,0v1l9.49-.77,0-2.51a16.15,16.15,0,0,1,32.29-.14l9.61-.79V90.53l-.12-5v-4.4a6.82,6.82,0,1,1,13.64,0V96.83a1,1,0,0,1-.91,1l-10.61.87v6.36a6.83,6.83,0,1,1-13.65,0l0-2.08V99.81l-28.26,2.32,0,6.16V124A6.83,6.83,0,0,1,137.64,130.81Zm-4.7-27.74v11.52l-.12,5V124a4.83,4.83,0,1,0,9.65,0l0-21.69Zm-41.89,3.44v.83a14.14,14.14,0,1,0,28.28,0v-3.15Zm-26.88,2.2v6.16a6.62,6.62,0,1,0,13.23,0v-7.24ZM174.7,99.65l0,5.42a4.83,4.83,0,0,0,9.65,0V98.86ZM84.22,94.1a4.82,4.82,0,0,0-4.82,4.82v6.54l9.65-.79V98.92A4.83,4.83,0,0,0,84.22,94.1Zm41.9,1.14a4.83,4.83,0,0,0-4.83,4.82l0,2,9.61-.79v-1.17A4.82,4.82,0,0,0,126.12,95.24Zm32.44-11.61a14.17,14.17,0,0,0-14.15,14.15l0,2.34,28.27-2.34A14.16,14.16,0,0,0,158.56,83.63ZM191,76.31a4.83,4.83,0,0,0-4.82,4.83v4.38l.12,5v6.19l9.52-.78V81.14A4.83,4.83,0,0,0,191,76.31Z" fill="#e2eaf2"/><path d="M92.22,130.93h-4v-4a1.42,1.42,0,0,0-1.42-1.42H79.59a1.43,1.43,0,0,0-1.43,1.42v4h-4a1.43,1.43,0,0,0-1.42,1.43v7.17A1.42,1.42,0,0,0,74.12,141h4v4a1.42,1.42,0,0,0,1.43,1.42h7.17A1.41,1.41,0,0,0,88.18,145v-4h4a1.41,1.41,0,0,0,1.42-1.42v-7.17A1.42,1.42,0,0,0,92.22,130.93Z" fill="#e2eaf2"/><path d="M156.68,144.35a5.6,5.6,0,0,1-5.59,5.59H108.91a5.6,5.6,0,0,1-5.59-5.59V53.64a5.59,5.59,0,0,1,5.59-5.58h5.21l2,2.71A5.41,5.41,0,0,0,120.49,53h19.84a5.39,5.39,0,0,0,4.33-2.18l2-2.71h4.4a5.59,5.59,0,0,1,5.59,5.58Z" fill="#0d1019"/><rect x="119.93" y="64.29" width="10.02" height="10.02" rx="1.42" fill="#a365c9"/><rect x="108.3" y="83.45" width="10.02" height="19.55" rx="1.42" fill="#e2eaf2"/><path d="M152,85.2a1.43,1.43,0,0,0-1.43-1.42H143.4A1.43,1.43,0,0,0,142,85.2v7.86a2,2,0,0,1-2,2h-8.55A1.43,1.43,0,0,0,130,96.48v18.1a1.42,1.42,0,0,0,1.42,1.42h7.18a1.42,1.42,0,0,0,1.42-1.42v-7.5a2,2,0,0,1,2-2h8.55a1.43,1.43,0,0,0,1.43-1.42V96.48a1.54,1.54,0,0,0,0-.3,1.65,1.65,0,0,0,0-.31Z" fill="#a365c9"/><rect x="141.97" y="107.59" width="10.02" height="20.94" rx="1.42" fill="#a365c9"/><rect x="136.29" y="125.24" width="10.02" height="21.39" rx="1.42" transform="translate(277.24 -5.36) rotate(90)" fill="#a365c9"/><path d="M127,130.93h-6.48a2,2,0,0,1-2-2V122.2a1.43,1.43,0,0,0-1.43-1.43h-7.17a1.42,1.42,0,0,0-1.42,1.43v17.33a1.42,1.42,0,0,0,1.42,1.42H127a1.43,1.43,0,0,0,1.43-1.42v-7.17A1.43,1.43,0,0,0,127,130.93Z" fill="#a365c9"/><circle cx="184.73" cy="135.94" r="5.72" fill="#e2eaf2"/><circle cx="169.85" cy="135.94" r="5.72" fill="#e2eaf2"/><path d="M169.67,71.72H144.78a4.7,4.7,0,0,1,3.79-7.48h.16a5.17,5.17,0,0,1-.16-1.31,5.44,5.44,0,0,1,9.85-3.21,6.37,6.37,0,1,1,12.07,3.45,4.59,4.59,0,0,1,1.48-.24,4.7,4.7,0,0,1,2.32,8.78Z" fill="#a365c9"/></svg>