<svg id="Layer_1" data-name="Layer 1" xmlns="http://www.w3.org/2000/svg" viewBox="0 0 260 180"><title>Flat Web Illustrations Pack - Scene 48</title><path d="M210.44,139.36H48.15a1,1,0,0,1,0-2H210.44a1,1,0,0,1,0,2Z" fill="#e2eaf2"/><path d="M87.86,61.18h0a1.12,1.12,0,0,1-.73,1,8.5,8.5,0,0,0-4.9,4.91,1.14,1.14,0,0,1-1,.73h0a1.12,1.12,0,0,1-1-.73,8.5,8.5,0,0,0-4.9-4.91,1.11,1.11,0,0,1-.72-1h0a1.11,1.11,0,0,1,.72-1,8.48,8.48,0,0,0,4.9-4.9,1.12,1.12,0,0,1,1-.73h0a1.14,1.14,0,0,1,1,.73,8.48,8.48,0,0,0,4.9,4.9A1.12,1.12,0,0,1,87.86,61.18Z" fill="#0d1019"/><path d="M98,49.69h0a.88.88,0,0,1-.56.81,6.61,6.61,0,0,0-3.84,3.84.88.88,0,0,1-.81.56h0a.87.87,0,0,1-.8-.56,6.62,6.62,0,0,0-3.83-3.84.87.87,0,0,1-.57-.81h0a.86.86,0,0,1,.57-.8A6.63,6.63,0,0,0,92,45.06a.86.86,0,0,1,.8-.57h0a.87.87,0,0,1,.81.57,6.62,6.62,0,0,0,3.84,3.83A.87.87,0,0,1,98,49.69Z" fill="#0d1019"/><path d="M82.23,44.49h0a.65.65,0,0,1-.41.59A4.94,4.94,0,0,0,79,47.92a.65.65,0,0,1-.6.42h0a.65.65,0,0,1-.59-.42A4.94,4.94,0,0,0,75,45.08a.65.65,0,0,1-.41-.59h0a.65.65,0,0,1,.41-.6,4.92,4.92,0,0,0,2.84-2.83.65.65,0,0,1,.59-.42h0a.65.65,0,0,1,.6.42,4.92,4.92,0,0,0,2.84,2.83A.65.65,0,0,1,82.23,44.49Z" fill="#0d1019"/><path d="M175.08,63.36a2.68,2.68,0,0,0-.8,1.93A2.73,2.73,0,0,0,177,68h14.42v0h13.64A8.91,8.91,0,0,1,196.16,77H177a2.73,2.73,0,0,0-2.73,2.73A2.73,2.73,0,0,0,177,82.42h22.2a8.89,8.89,0,0,1-7.78,8.82v37.07h-6.09s.76-17.19-15.36-17.19c-15.8,0-16.55,17.19-16.55,17.19H96.8V55.17a2.51,2.51,0,0,1,2.5-2.5H212.85A9.9,9.9,0,0,1,203,62.56H177A2.72,2.72,0,0,0,175.08,63.36Z" fill="#a365c9"/><path d="M140.86,65.83A15.21,15.21,0,1,1,125.66,81a15.22,15.22,0,0,1,15.2-15.21m0-1.66A16.87,16.87,0,1,0,157.73,81a16.87,16.87,0,0,0-16.87-16.87Z" fill="#fff"/><path d="M150.46,73.81h0c2.68,0,4.13.65,4.39,1.3s-.41,2.2-2.5,4.08a37.06,37.06,0,0,1-21.09,8.16c-2.68,0-4.13-.65-4.39-1.3s.41-2.2,2.5-4.08a37.06,37.06,0,0,1,21.09-8.16m0-1.67a34.32,34.32,0,0,0-11.89,2.59c-8.58,3.35-14.51,8.69-13.25,11.92.62,1.58,2.83,2.37,5.94,2.37a34.32,34.32,0,0,0,11.89-2.59c8.58-3.35,14.51-8.69,13.25-11.92-.62-1.58-2.83-2.37-5.94-2.37Z" fill="#fff"/><path d="M137.34,65.05v1.67c4.18,0,9.06,4.75,11.62,11.29,3,7.61,1.89,15.44-2.37,17.11a4.73,4.73,0,0,1-1.72.31c-4.18,0-9.07-4.74-11.62-11.28a21.64,21.64,0,0,1-1.47-11.22c.53-3,1.89-5.13,3.83-5.89a4.75,4.75,0,0,1,1.73-.32V65.05m0,0a6.18,6.18,0,0,0-2.33.44c-5.2,2-6.68,10.65-3.32,19.26,2.89,7.38,8.39,12.35,13.18,12.35a6.41,6.41,0,0,0,2.33-.43c5.19-2,6.68-10.66,3.31-19.27-2.88-7.38-8.39-12.35-13.17-12.35Z" fill="#fff"/><rect x="139.93" y="64.51" width="1.67" height="33.15" transform="translate(-20.5 61.54) rotate(-23.03)" fill="#fff"/><path d="M55.17,117.62v-8.25s-.8-6.09,6.45-9.32,13.54-5.64,13.54-5.64L85.63,75.88H82.57s.43-11,14.23-11v59.63H93.53s-.86-13-16.14-13-16.09,13-16.09,13H56.62Z" fill="#a365c9"/><polygon points="77.39 94.74 95.14 94.74 95.14 76.04 87.73 76.04 77.39 94.74" fill="#fafafa"/><circle cx="77.39" cy="127.27" r="11.09" fill="#0d1019"/><path d="M192.39,122.94v4.4a1,1,0,0,1-1,1h-8.29c0-.34,0-.69,0-1a13.73,13.73,0,0,0-.69-4.33,13.91,13.91,0,0,0-26.45,0,13.73,13.73,0,0,0-.69,4.33c0,.35,0,.7,0,1H91.26c0-.34,0-.69,0-1a13.73,13.73,0,0,0-.69-4.33,13.91,13.91,0,0,0-26.45,0,13.73,13.73,0,0,0-.69,4.33c0,.35,0,.7,0,1H55.23a1,1,0,0,1-1-1V117.13a1,1,0,0,1,1-1h2L60,122.94h0a17.88,17.88,0,0,1,34.71,0h57.17a17.88,17.88,0,0,1,34.71,0Z" fill="#0d1019"/><circle cx="168.82" cy="127.27" r="11.09" fill="#0d1019"/></svg>