<svg id="Layer_1" data-name="Layer 1" xmlns="http://www.w3.org/2000/svg" viewBox="0 0 220 180"><title>Flat Web Illustrations Pack - Scene 49</title><path d="M128.82,138.3l-1-.06c2-33.85,2.08-55.15,2.08-55.36h1C130.9,83.09,130.84,104.41,128.82,138.3Z" fill="#0d1019"/><path d="M125.56,78.05a4,4,0,0,0,.88,2.67l8.15.3a4.1,4.1,0,0,0,.94-3.82.45.45,0,0,0,0-.11,8.15,8.15,0,0,0-.82-2.09c-.41-.78-.92-1.61-1.43-2.39l-.15-.23c-1.11-1.67-2.16-3-2.16-3s-1.17,1.3-2.38,2.89l-.2.27h0c-.56.72-1.1,1.5-1.57,2.24a8.57,8.57,0,0,0-1,2,.7.7,0,0,0,0,.14A3.92,3.92,0,0,0,125.56,78.05Z" fill="#a365c9"/><path d="M127.58,78.13a4,4,0,0,0,.87,2.66l8.51.31a3.53,3.53,0,0,0,.36-.94,6.34,6.34,0,0,0,.26-1.82c0-.16,0-.33,0-.51a26.46,26.46,0,0,0-.14-2.79c-.19-2.11-.51-4-.51-4s-1.62.61-3.45,1.44l-.24.11c-.88.41-1.77.86-2.55,1.31a7.44,7.44,0,0,0-1.77,1.33s0,0-.06,0a4,4,0,0,0-1.29,2.83Z" fill="#a365c9"/><path d="M129.32,79.18a4.16,4.16,0,0,0,.29,1.66l7.35.26a3.53,3.53,0,0,0,.36-.94,6.34,6.34,0,0,0,.26-1.82c0-.16,0-.33,0-.51a26.46,26.46,0,0,0-.14-2.79l-.65,0c-.71,0-1.44,0-2.12,0a7.81,7.81,0,0,0-2.3.37h-.06a4.19,4.19,0,0,0-1.71.94,4.06,4.06,0,0,0-1.08,1.74A3.53,3.53,0,0,0,129.32,79.18Z" fill="#a365c9"/><path d="M130.37,80.86l6.59.24a3.53,3.53,0,0,0,.36-.94,6.34,6.34,0,0,0,.26-1.82c0-.16,0-.33,0-.51a8.55,8.55,0,0,0-2.09-.74.76.76,0,0,0-.16,0,3.2,3.2,0,0,0-.75-.09,3.72,3.72,0,0,0-1.21.14,4,4,0,0,0-1.79,1,4.07,4.07,0,0,0-1.11,1.9A4.85,4.85,0,0,0,130.37,80.86Z" fill="#a365c9"/><path d="M123.52,77.83a6.27,6.27,0,0,0,.13,1.83,3.77,3.77,0,0,0,.29,1l8.51.31a4.05,4.05,0,0,0,1.07-2.59,4.72,4.72,0,0,0-.14-1.24,4,4,0,0,0-.95-1.68s0-.05-.05-.06a7.51,7.51,0,0,0-1.68-1.45,24.27,24.27,0,0,0-2.34-1.43h0L128,72.3c-1.76-1-3.34-1.68-3.34-1.68s-.46,1.84-.8,3.93c-.15.91-.28,1.88-.34,2.77C123.53,77.49,123.53,77.67,123.52,77.83Z" fill="#a365c9"/><path d="M123.52,77.83a6.27,6.27,0,0,0,.13,1.83,3.77,3.77,0,0,0,.29,1l7.36.27a4,4,0,0,0,.42-1.64,3.93,3.93,0,0,0-.13-1.13A4.06,4.06,0,0,0,129,75.26h0a7.35,7.35,0,0,0-2.15-.52c-.7-.09-1.47-.15-2.24-.18h-.65c-.15.91-.28,1.88-.34,2.77C123.53,77.49,123.53,77.67,123.52,77.83Z" fill="#a365c9"/><path d="M123.55,77.32c0,.17,0,.35,0,.51a6.27,6.27,0,0,0,.13,1.83,3.77,3.77,0,0,0,.29,1l6.6.24a3.33,3.33,0,0,0-.06-.84,4,4,0,0,0-2.67-3.12,3.75,3.75,0,0,0-1.19-.23,3.4,3.4,0,0,0-.78,0h0A7.75,7.75,0,0,0,123.55,77.32Z" fill="#a365c9"/><path d="M128.46,80.09c-.07,2.08,1.93,3.84,1.93,3.84s2.12-1.61,2.19-3.69-1.92-3.84-1.92-3.84S128.54,78,128.46,80.09Z" fill="#0d1019"/><path d="M126.09,84c1.84,1,4.3,0,4.3,0s-.51-2.61-2.35-3.6-4.29,0-4.29,0S124.26,83,126.09,84Z" fill="#0d1019"/><path d="M134.67,84.28c-1.9.84-4.28-.35-4.28-.35s.7-2.57,2.59-3.42,4.28.35,4.28.35S136.56,83.43,134.67,84.28Z" fill="#0d1019"/><path d="M130,98.72a.48.48,0,0,1-.45-.28,13.72,13.72,0,0,0-8.31-6.56.51.51,0,0,1-.36-.61.5.5,0,0,1,.61-.36,14.48,14.48,0,0,1,9,7.09.51.51,0,0,1-.23.67A.59.59,0,0,1,130,98.72Z" fill="#0d1019"/><path d="M115.05,90.62s3-2.85,6.22-1.09.58,3.92-1.85,3.19A17,17,0,0,1,115.05,90.62Z" fill="#0d1019"/><path d="M118.3,96.66s1.26-3.41,4.53-3.25,2,2.89-.25,3.25A14.92,14.92,0,0,1,118.3,96.66Z" fill="#0d1019"/><path d="M121.3,86s3.61-.39,4.92,2.6-1.71,3-3,1.23A15,15,0,0,1,121.3,86Z" fill="#0d1019"/><path d="M122.76,95.61a.51.51,0,0,1-.46-.31.5.5,0,0,1,.27-.65l3.13-1.29a8.36,8.36,0,0,0-.87-3.8.5.5,0,0,1,.27-.66.49.49,0,0,1,.65.27c1.3,3,.91,4.61.89,4.67a.5.5,0,0,1-.29.34L123,95.57A.48.48,0,0,1,122.76,95.61Zm3.4-1.9h0Z" fill="#0d1019"/><circle cx="98.24" cy="69.33" r="21.64" fill="#e2eaf2"/><circle cx="154.14" cy="69.33" r="8.98" fill="#e2eaf2"/><circle cx="129.77" cy="45.57" r="9.18" fill="#e2eaf2"/><path d="M144.16,123.87c-7.13-6-10.88-3.17-8.53-9.38s3.5-9.36,3.5-9.36H122s1.15,3.15,3.5,9.36-1.4,3.35-8.53,9.38,6.13,18.74,6.13,18.74h15S151.29,129.9,144.16,123.87Z" fill="#a365c9"/><path d="M159.45,138.28l-1,0c.81-33.84,2.07-55.19,2.08-55.4l1,.06C161.51,83.12,160.26,104.45,159.45,138.28Z" fill="#0d1019"/><path d="M156.19,78.05a4,4,0,0,0,.88,2.67l8.15.3a4.07,4.07,0,0,0,.93-3.82s0-.07,0-.11A8.23,8.23,0,0,0,165.3,75a27.25,27.25,0,0,0-1.42-2.39l-.15-.23c-1.11-1.67-2.16-3-2.16-3s-1.17,1.3-2.38,2.89l-.2.27h0c-.56.72-1.1,1.5-1.57,2.24a8.57,8.57,0,0,0-1,2,.7.7,0,0,0,0,.14A3.92,3.92,0,0,0,156.19,78.05Z" fill="#a365c9"/><path d="M158.2,78.13a4.06,4.06,0,0,0,.88,2.66l8.51.31a3.53,3.53,0,0,0,.36-.94,6.34,6.34,0,0,0,.26-1.82c0-.16,0-.33,0-.51,0-.89-.05-1.87-.14-2.79-.19-2.11-.51-4-.51-4s-1.62.61-3.45,1.44l-.24.11c-.88.41-1.78.86-2.55,1.31a7.44,7.44,0,0,0-1.77,1.33s0,0-.06,0a4.07,4.07,0,0,0-1.07,1.61A4.62,4.62,0,0,0,158.2,78.13Z" fill="#a365c9"/><path d="M160,79.18a4,4,0,0,0,.29,1.66l7.35.26a3.53,3.53,0,0,0,.36-.94,6.34,6.34,0,0,0,.26-1.82c0-.16,0-.33,0-.51,0-.89-.05-1.87-.14-2.79l-.65,0c-.72,0-1.45,0-2.12,0a7.81,7.81,0,0,0-2.3.37H163a4.19,4.19,0,0,0-1.71.94,4.06,4.06,0,0,0-1.08,1.74A3.53,3.53,0,0,0,160,79.18Z" fill="#a365c9"/><path d="M161,80.86l6.59.24a3.53,3.53,0,0,0,.36-.94,6.34,6.34,0,0,0,.26-1.82c0-.16,0-.33,0-.51a8.55,8.55,0,0,0-2.09-.74.76.76,0,0,0-.16,0,3.2,3.2,0,0,0-.75-.09,3.72,3.72,0,0,0-1.21.14,4,4,0,0,0-1.79,1,4.07,4.07,0,0,0-1.11,1.9A4.85,4.85,0,0,0,161,80.86Z" fill="#a365c9"/><path d="M154.15,77.83a6.27,6.27,0,0,0,.13,1.83,3.77,3.77,0,0,0,.29,1l8.51.31a4.05,4.05,0,0,0,1.07-2.59,4.72,4.72,0,0,0-.14-1.24,4,4,0,0,0-.95-1.68s0-.05-.05-.06a7.75,7.75,0,0,0-1.68-1.45A24.27,24.27,0,0,0,159,72.49h0l-.32-.19c-1.76-1-3.34-1.68-3.34-1.68s-.46,1.84-.8,3.93c-.15.91-.28,1.88-.34,2.77A4.49,4.49,0,0,0,154.15,77.83Z" fill="#a365c9"/><path d="M154.15,77.83a6.27,6.27,0,0,0,.13,1.83,3.77,3.77,0,0,0,.29,1l7.36.27a4,4,0,0,0,.42-1.64,3.93,3.93,0,0,0-.13-1.13,3.88,3.88,0,0,0-1-1.81,4,4,0,0,0-1.63-1.06h-.05a7.35,7.35,0,0,0-2.15-.52c-.7-.09-1.47-.15-2.24-.18h-.65c-.15.91-.28,1.88-.34,2.77A4.49,4.49,0,0,0,154.15,77.83Z" fill="#a365c9"/><path d="M154.18,77.32a4.49,4.49,0,0,0,0,.51,6.27,6.27,0,0,0,.13,1.83,3.77,3.77,0,0,0,.29,1l6.6.24a3.33,3.33,0,0,0-.06-.84,4,4,0,0,0-1-2,4,4,0,0,0-1.73-1.15,3.64,3.64,0,0,0-1.18-.23,3.4,3.4,0,0,0-.78,0h0A7.75,7.75,0,0,0,154.18,77.32Z" fill="#a365c9"/><path d="M159.09,80.09C159,82.17,161,83.93,161,83.93s2.12-1.61,2.19-3.69-1.92-3.84-1.92-3.84S159.17,78,159.09,80.09Z" fill="#0d1019"/><path d="M156.72,84c1.84,1,4.3,0,4.3,0s-.51-2.61-2.35-3.6-4.29,0-4.29,0S154.89,83,156.72,84Z" fill="#0d1019"/><path d="M165.3,84.28c-1.9.84-4.28-.35-4.28-.35s.7-2.57,2.59-3.42,4.28.35,4.28.35S167.19,83.43,165.3,84.28Z" fill="#0d1019"/><path d="M107.63,123.49c-4.13-12.81-7.54-18.71-7.54-18.71H94.32s-3.42,5.9-7.55,18.71a16.24,16.24,0,0,0,6.32,19.12h8.22A16.24,16.24,0,0,0,107.63,123.49Z" fill="#0d1019"/><path d="M166.45,121.33c-1.55-2.32-4.39-5.68-4.9-8.26s3.1-8.29,3.1-8.29h-9.76s3.61,5.71,3.09,8.29-3.35,5.94-4.9,8.26,2.07,21.28,2.07,21.28h9.24S168,123.65,166.45,121.33Z" fill="#a365c9"/><path d="M160.27,98.72a.54.54,0,0,1-.21,0,.5.5,0,0,1-.24-.67,14.48,14.48,0,0,1,9-7.09.5.5,0,0,1,.61.36.51.51,0,0,1-.36.61,13.72,13.72,0,0,0-8.31,6.56A.48.48,0,0,1,160.27,98.72Z" fill="#0d1019"/><path d="M175.26,90.62s-3-2.85-6.22-1.09-.58,3.92,1.85,3.19A17,17,0,0,0,175.26,90.62Z" fill="#0d1019"/><path d="M172,96.66s-1.26-3.41-4.53-3.25-2,2.89.25,3.25A14.92,14.92,0,0,0,172,96.66Z" fill="#0d1019"/><path d="M169,86s-3.61-.39-4.92,2.6,1.71,3,3,1.23A15,15,0,0,0,169,86Z" fill="#0d1019"/><path d="M167.55,95.61a.41.41,0,0,1-.19,0L164,94.18a.52.52,0,0,1-.29-.34c0-.06-.41-1.62.89-4.67a.49.49,0,0,1,.65-.27.5.5,0,0,1,.27.66,8.34,8.34,0,0,0-.87,3.8l3.13,1.29a.5.5,0,0,1,.27.65A.51.51,0,0,1,167.55,95.61Z" fill="#0d1019"/><path d="M96.45,138.3l-1-.06c2-33.85,2.07-55.15,2.07-55.36h1C98.52,83.09,98.47,104.41,96.45,138.3Z" fill="#0d1019"/><path d="M93.18,78.05a4,4,0,0,0,.89,2.67l8.15.3a4.12,4.12,0,0,0,.93-3.82.43.43,0,0,0,0-.11A8.23,8.23,0,0,0,102.3,75a27.4,27.4,0,0,0-1.43-2.39l-.15-.23c-1.11-1.67-2.16-3-2.16-3s-1.16,1.3-2.37,2.89l-.2.27h0a26.73,26.73,0,0,0-1.57,2.24,8.57,8.57,0,0,0-1,2s0,.1,0,.14A4.63,4.63,0,0,0,93.18,78.05Z" fill="#a365c9"/><path d="M95.2,78.13a4.11,4.11,0,0,0,.87,2.66l8.52.31a3.51,3.51,0,0,0,.35-.94,6.31,6.31,0,0,0,.27-1.82c0-.16,0-.33,0-.51,0-.89-.06-1.87-.15-2.79-.18-2.11-.5-4-.5-4s-1.63.61-3.45,1.44l-.25.11c-.87.41-1.77.86-2.54,1.31a7.74,7.74,0,0,0-1.78,1.33l0,0a4,4,0,0,0-1.07,1.61A4.62,4.62,0,0,0,95.2,78.13Z" fill="#a365c9"/><path d="M96.94,79.18a4,4,0,0,0,.3,1.66l7.35.26a3.51,3.51,0,0,0,.35-.94,6.31,6.31,0,0,0,.27-1.82c0-.16,0-.33,0-.51,0-.89-.06-1.87-.15-2.79l-.64,0c-.72,0-1.45,0-2.13,0a7.93,7.93,0,0,0-2.3.37h0a4.19,4.19,0,0,0-1.71.94,3.88,3.88,0,0,0-1.08,1.74A3.54,3.54,0,0,0,96.94,79.18Z" fill="#a365c9"/><path d="M98,80.86l6.59.24a3.51,3.51,0,0,0,.35-.94,6.31,6.31,0,0,0,.27-1.82c0-.16,0-.33,0-.51a8.55,8.55,0,0,0-2.09-.74l-.16,0a3.33,3.33,0,0,0-.75-.09,3.78,3.78,0,0,0-1.22.14,4.11,4.11,0,0,0-1.79,1A3.9,3.9,0,0,0,98,80.86Z" fill="#a365c9"/><path d="M91.15,77.83a6.27,6.27,0,0,0,.13,1.83,3.76,3.76,0,0,0,.28,1l8.52.31a4.06,4.06,0,0,0,0-5.51s0-.05-.06-.06a7.43,7.43,0,0,0-1.67-1.45A24.27,24.27,0,0,0,96,72.49h0l-.33-.19c-1.76-1-3.34-1.68-3.34-1.68s-.45,1.84-.79,3.93a26.83,26.83,0,0,0-.34,2.77A4.49,4.49,0,0,0,91.15,77.83Z" fill="#a365c9"/><path d="M91.15,77.83a6.27,6.27,0,0,0,.13,1.83,3.76,3.76,0,0,0,.28,1l7.37.27a4.13,4.13,0,0,0,.41-1.64,3.33,3.33,0,0,0-.13-1.13,3.86,3.86,0,0,0-1-1.81,4,4,0,0,0-1.63-1.06h-.06a7.19,7.19,0,0,0-2.14-.52c-.7-.09-1.47-.15-2.24-.18h-.65a26.83,26.83,0,0,0-.34,2.77A4.49,4.49,0,0,0,91.15,77.83Z" fill="#a365c9"/><path d="M91.18,77.32a4.49,4.49,0,0,0,0,.51,6.27,6.27,0,0,0,.13,1.83,3.76,3.76,0,0,0,.28,1l6.61.24a3.87,3.87,0,0,0-.06-.84,4.13,4.13,0,0,0-1-2,4,4,0,0,0-1.73-1.15,3.65,3.65,0,0,0-1.19-.23,3.35,3.35,0,0,0-.77,0h0A7.7,7.7,0,0,0,91.18,77.32Z" fill="#a365c9"/><path d="M96.09,80.09C96,82.17,98,83.93,98,83.93s2.12-1.61,2.2-3.69-1.92-3.84-1.92-3.84S96.17,78,96.09,80.09Z" fill="#0d1019"/><path d="M93.72,84c1.83,1,4.29,0,4.29,0s-.51-2.61-2.34-3.6-4.29,0-4.29,0S91.89,83,93.72,84Z" fill="#0d1019"/><path d="M102.29,84.28c-1.9.84-4.28-.35-4.28-.35s.7-2.57,2.6-3.42,4.28.35,4.28.35S104.19,83.43,102.29,84.28Z" fill="#0d1019"/><path d="M97.54,98.72a.5.5,0,0,1-.45-.28,13.64,13.64,0,0,0-8.3-6.56.5.5,0,0,1,.25-1A14.45,14.45,0,0,1,98,98a.5.5,0,0,1-.23.67A.54.54,0,0,1,97.54,98.72Z" fill="#0d1019"/><path d="M82.56,90.62s3-2.85,6.21-1.09.59,3.92-1.84,3.19A17,17,0,0,1,82.56,90.62Z" fill="#0d1019"/><path d="M85.81,96.66s1.26-3.41,4.52-3.25,2,2.89-.24,3.25A14.89,14.89,0,0,1,85.81,96.66Z" fill="#0d1019"/><path d="M88.8,86s3.62-.39,4.93,2.6-1.71,3-3,1.23A14.88,14.88,0,0,1,88.8,86Z" fill="#0d1019"/><path d="M90.27,95.61a.5.5,0,0,1-.46-.31.49.49,0,0,1,.27-.65l3.13-1.29a8.67,8.67,0,0,0-.87-3.8.5.5,0,1,1,.92-.39c1.3,3,.91,4.61.89,4.67a.52.52,0,0,1-.29.34l-3.4,1.39A.43.43,0,0,1,90.27,95.61Zm3.4-1.9h0Z" fill="#0d1019"/><path d="M182.66,143.61H77.34a1,1,0,0,1,0-2H182.66a1,1,0,0,1,0,2Z" fill="#e2eaf2"/></svg>