<svg id="Layer_1" data-name="Layer 1" xmlns="http://www.w3.org/2000/svg" viewBox="0 0 260 180"><title>Flat Web Illustrations Pack - Scene 50</title><path d="M173.57,86.6h-.73s-2,9.8-.36,19l.73-.51S171.86,97.9,173.57,86.6Z" fill="#0a0d16"/><path d="M173.21,81.46a3.07,3.07,0,0,1-.63-1.13,3.69,3.69,0,0,1-.17-1.13,3.41,3.41,0,0,1,.17-1.13,2.93,2.93,0,0,1,.63-1.13,3,3,0,0,1,.62,1.13A3.41,3.41,0,0,1,174,79.2a3.69,3.69,0,0,1-.17,1.13A3.18,3.18,0,0,1,173.21,81.46Z" fill="#a365c9"/><path d="M177,82.94a2.39,2.39,0,0,1,.2-1.09,2.67,2.67,0,0,1,.51-.76,2.54,2.54,0,0,1,.76-.51,2.32,2.32,0,0,1,1.08-.2,2.39,2.39,0,0,1-.19,1.09,2.34,2.34,0,0,1-.52.75,2.28,2.28,0,0,1-.76.52A2.45,2.45,0,0,1,177,82.94Z" fill="#a365c9"/><path d="M178.5,87a2.35,2.35,0,0,1,.91-.62,2.51,2.51,0,0,1,.92-.18,2.71,2.71,0,0,1,.91.17,2.5,2.5,0,0,1,.91.63,2.38,2.38,0,0,1-.91.63,2.55,2.55,0,0,1-1.83,0A2.38,2.38,0,0,1,178.5,87Z" fill="#a365c9"/><path d="M177,91.29a2.15,2.15,0,0,1,1,.1,2,2,0,0,1,.67.43,1.8,1.8,0,0,1,.43.67,2.07,2.07,0,0,1,.11,1,2.07,2.07,0,0,1-1-.11,1.88,1.88,0,0,1-.67-.43,1.82,1.82,0,0,1-.42-.67A2,2,0,0,1,177,91.29Z" fill="#a365c9"/><path d="M168.67,90.27a2.7,2.7,0,0,1-.24,1.13,2.9,2.9,0,0,1-.57.8,2.76,2.76,0,0,1-.8.57,2.55,2.55,0,0,1-1.13.24,2.52,2.52,0,0,1,.24-1.13,2.74,2.74,0,0,1,1.37-1.37A2.52,2.52,0,0,1,168.67,90.27Z" fill="#a365c9"/><path d="M167.19,86.24a2.69,2.69,0,0,1-1,.63,3.14,3.14,0,0,1-1,.17,3,3,0,0,1-1-.17,2.72,2.72,0,0,1-1-.63,2.86,2.86,0,0,1,1-.63,3,3,0,0,1,1-.17,3.14,3.14,0,0,1,1,.17A2.69,2.69,0,0,1,167.19,86.24Z" fill="#a365c9"/><path d="M169,82.2a2.34,2.34,0,0,1-1-.17,2.23,2.23,0,0,1-1.23-1.23,2.21,2.21,0,0,1-.17-1,2.15,2.15,0,0,1,1.06.17,2.18,2.18,0,0,1,.73.49,2.34,2.34,0,0,1,.49.73A2.27,2.27,0,0,1,169,82.2Z" fill="#a365c9"/><path d="M168.58,70a3.11,3.11,0,0,1-1.27-.83,2.88,2.88,0,0,1-.62-1,2.85,2.85,0,0,1-.14-1.21,3.1,3.1,0,0,1,.52-1.42,3.11,3.11,0,0,1,1.27.83,2.8,2.8,0,0,1,.62,1,2.86,2.86,0,0,1,.13,1.21A3.19,3.19,0,0,1,168.58,70Z" fill="#a365c9"/><path d="M181.26,72.42a3.53,3.53,0,0,1-.23-1.63,3.71,3.71,0,0,1,.37-1.33,3.61,3.61,0,0,1,2.28-1.88,3.57,3.57,0,0,1-.14,3,3.63,3.63,0,0,1-.83,1.1A3.56,3.56,0,0,1,181.26,72.42Z" fill="#a365c9"/><path d="M191,81.8a3.45,3.45,0,0,1,1-1,4.25,4.25,0,0,1,1.13-.56,4.2,4.2,0,0,1,1.24-.24,3.67,3.67,0,0,1,1.38.2,3.63,3.63,0,0,1-1,1,4.38,4.38,0,0,1-1.13.55,5,5,0,0,1-1.24.24A3.67,3.67,0,0,1,191,81.8Z" fill="#a365c9"/><path d="M190.91,97a2.05,2.05,0,0,1,1-.2,1.93,1.93,0,0,1,.8.2,1.89,1.89,0,0,1,.63.51,2,2,0,0,1,.44.92,2.07,2.07,0,0,1-1,.2,1.88,1.88,0,0,1-.79-.2,2.06,2.06,0,0,1-.64-.51A2.19,2.19,0,0,1,190.91,97Z" fill="#a365c9"/><path d="M163.56,102.52a3.89,3.89,0,0,1,.52,1.77,2.92,2.92,0,0,1-.3,1.36,2.79,2.79,0,0,1-.9,1,3.67,3.67,0,0,1-1.73.64,3.74,3.74,0,0,1-.52-1.77,2.85,2.85,0,0,1,.29-1.35,2.92,2.92,0,0,1,.91-1A3.82,3.82,0,0,1,163.56,102.52Z" fill="#a365c9"/><path d="M156,76.84a3,3,0,0,1-1.39.36A2.68,2.68,0,0,1,153.5,77a2.41,2.41,0,0,1-.85-.72,2.74,2.74,0,0,1-.54-1.32,2.78,2.78,0,0,1,1.38-.36,2.39,2.39,0,0,1,1.08.25,2.49,2.49,0,0,1,.85.71A2.93,2.93,0,0,1,156,76.84Z" fill="#a365c9"/><path d="M173.68,73.73a3.07,3.07,0,0,1-.94-1.19,2.88,2.88,0,0,1,0-2.39,3.14,3.14,0,0,1,.94-1.19,3.14,3.14,0,0,1,.94,1.19,2.89,2.89,0,0,1,.26,1.2,3,3,0,0,1-.26,1.19A3.27,3.27,0,0,1,173.68,73.73Z" fill="#a365c9"/><path d="M181.12,79.51a3.37,3.37,0,0,1,.41-1.3,4.22,4.22,0,0,1,1.71-1.71,3.26,3.26,0,0,1,1.3-.41,3.55,3.55,0,0,1-.41,1.3,4.22,4.22,0,0,1-.74,1,4,4,0,0,1-1,.74A3.44,3.44,0,0,1,181.12,79.51Z" fill="#a365c9"/><path d="M184.12,87.44a3,3,0,0,1,1.12-.94,2.58,2.58,0,0,1,1.12-.26,2.64,2.64,0,0,1,1.12.25,3.05,3.05,0,0,1,1.12,1,3,3,0,0,1-1.12.94,2.5,2.5,0,0,1-1.12.25,2.71,2.71,0,0,1-1.12-.25A3.2,3.2,0,0,1,184.12,87.44Z" fill="#a365c9"/><path d="M182.49,97.43a2.06,2.06,0,0,1,1.69.55,2,2,0,0,1,.43.68,2.06,2.06,0,0,1,.12,1,2,2,0,0,1-1-.11,1.82,1.82,0,0,1-.67-.44,1.78,1.78,0,0,1-.44-.68A2,2,0,0,1,182.49,97.43Z" fill="#a365c9"/><path d="M163.19,95.07a2.57,2.57,0,0,1,.08,1.26,1.51,1.51,0,0,1-.41.77,1.47,1.47,0,0,1-.77.41,2.57,2.57,0,0,1-1.26-.08,2.55,2.55,0,0,1-.07-1.26,1.51,1.51,0,0,1,.41-.77,1.54,1.54,0,0,1,.77-.4A2.51,2.51,0,0,1,163.19,95.07Z" fill="#a365c9"/><path d="M165.21,77.79a3.27,3.27,0,0,1-1.5-.17,3,3,0,0,1-1-.66,2.71,2.71,0,0,1-.65-1,3,3,0,0,1-.17-1.5,3.15,3.15,0,0,1,1.5.16A2.85,2.85,0,0,1,165,76.29,3.14,3.14,0,0,1,165.21,77.79Z" fill="#a365c9"/><path d="M170.28,79a3.18,3.18,0,0,1-1.29-.65,2.52,2.52,0,0,1-.85-2,3,3,0,0,1,.44-1.38,2.83,2.83,0,0,1,1.3.65,2.53,2.53,0,0,1,.66.92,2.5,2.5,0,0,1,.19,1.11A3,3,0,0,1,170.28,79Z" fill="#a365c9"/><path d="M177,78.13a3.38,3.38,0,0,1-.4-1.51,3.43,3.43,0,0,1,.23-1.25,3.2,3.2,0,0,1,2.06-1.84,3.37,3.37,0,0,1,.4,1.5,3.2,3.2,0,0,1-1,2.31A3.24,3.24,0,0,1,177,78.13Z" fill="#a365c9"/><path d="M180.16,84.18a3.09,3.09,0,0,1,.73-1.33,3.15,3.15,0,0,1,1-.7,3,3,0,0,1,1.2-.22,3.16,3.16,0,0,1,1.46.41,3.2,3.2,0,0,1-.73,1.33,2.9,2.9,0,0,1-1,.69,2.75,2.75,0,0,1-1.19.22A3.1,3.1,0,0,1,180.16,84.18Z" fill="#a365c9"/><path d="M180.24,90.27a2.71,2.71,0,0,1,1.33-.47,2.23,2.23,0,0,1,1.07.15,2.28,2.28,0,0,1,.87.64,2.79,2.79,0,0,1,.61,1.27,2.82,2.82,0,0,1-1.32.47,2.25,2.25,0,0,1-1.94-.8A2.8,2.8,0,0,1,180.24,90.27Z" fill="#a365c9"/><path d="M168.88,94.73a2.44,2.44,0,0,1,.26,1,2.19,2.19,0,0,1-.17.85,2.23,2.23,0,0,1-1.38,1.27,2.26,2.26,0,0,1-.26-1,2.43,2.43,0,0,1,.16-.86,2.25,2.25,0,0,1,.49-.72A2.27,2.27,0,0,1,168.88,94.73Z" fill="#a365c9"/><path d="M164.13,89.62a2.58,2.58,0,0,1-.38,1.17,1.41,1.41,0,0,1-.65.55,1.37,1.37,0,0,1-.84.08,2.5,2.5,0,0,1-1.11-.56,2.63,2.63,0,0,1,.38-1.18,1.41,1.41,0,0,1,.65-.55,1.45,1.45,0,0,1,.84-.07A2.5,2.5,0,0,1,164.13,89.62Z" fill="#a365c9"/><path d="M178.24,65.35A4.07,4.07,0,0,1,177,63.79a2.08,2.08,0,0,1-.13-1.28,2.13,2.13,0,0,1,.71-1.08,4.21,4.21,0,0,1,1.81-.8,4,4,0,0,1,1.24,1.56,1.93,1.93,0,0,1-.59,2.35A4.14,4.14,0,0,1,178.24,65.35Z" fill="#a365c9"/><path d="M193.77,75.56a4.83,4.83,0,0,1,.7-2.26,3.87,3.87,0,0,1,3-1.83,4.76,4.76,0,0,1,2.32.44,4.75,4.75,0,0,1-.69,2.25,3.91,3.91,0,0,1-3,1.83A5,5,0,0,1,193.77,75.56Z" fill="#a365c9"/><path d="M191.22,93.78a5,5,0,0,1,2.14-1.09,4.35,4.35,0,0,1,1.87,0,4,4,0,0,1,1.66.85,4.89,4.89,0,0,1,1.39,2,4.77,4.77,0,0,1-2.14,1.09,4.06,4.06,0,0,1-1.87,0,4.11,4.11,0,0,1-1.66-.85A5,5,0,0,1,191.22,93.78Z" fill="#a365c9"/><path d="M182.15,107.89a3.81,3.81,0,0,1,1.86.35,2.22,2.22,0,0,1,1.3,2.14,3.86,3.86,0,0,1-.56,1.81,3.83,3.83,0,0,1-1.86-.34,2.25,2.25,0,0,1-1.3-2.15A4,4,0,0,1,182.15,107.89Z" fill="#a365c9"/><path d="M151.57,81.25a4.94,4.94,0,0,1-2.14,1.09,4.07,4.07,0,0,1-3.53-.87,4.92,4.92,0,0,1-1.39-2,4.86,4.86,0,0,1,2.15-1.09,4,4,0,0,1,1.86,0,4.13,4.13,0,0,1,1.66.86A4.85,4.85,0,0,1,151.57,81.25Z" fill="#a365c9"/><path d="M151.57,68.66a3.91,3.91,0,0,1-1.94,1.59,4,4,0,0,1-2.15.18,3.92,3.92,0,0,1-2-1.06,3,3,0,0,1-.93-2.45c1-.17,1.62-.35,2.18-.43a4.41,4.41,0,0,1,1.54,0,4.7,4.7,0,0,1,1.55.62A7.41,7.41,0,0,1,151.57,68.66Z" fill="#a365c9"/><path d="M148.73,57.09a3.93,3.93,0,0,1-4.43.51A3.91,3.91,0,0,1,142.66,56a2.94,2.94,0,0,1-.18-2.62c1,.13,1.65.13,2.21.22a4.2,4.2,0,0,1,1.47.45,5.18,5.18,0,0,1,1.31,1A7.53,7.53,0,0,1,148.73,57.09Z" fill="#a365c9"/><path d="M164.07,58.24a9.12,9.12,0,0,1-2-1.11,4.1,4.1,0,0,1-1.13-1.27,4.27,4.27,0,0,1-.53-1.66,5.77,5.77,0,0,1,.24-2.36,4.22,4.22,0,0,1,2.37.61,3.94,3.94,0,0,1,1.4,1.44,4,4,0,0,1,.52,2A3.5,3.5,0,0,1,164.07,58.24Z" fill="#a365c9"/><path d="M161.4,68.4a4.66,4.66,0,0,1-2.18-.58,3.34,3.34,0,0,1-1.68-2.77,4.6,4.6,0,0,1,.51-2.2,4.52,4.52,0,0,1,2.18.57,3.32,3.32,0,0,1,1.21,1.17,3.23,3.23,0,0,1,.46,1.61A4.48,4.48,0,0,1,161.4,68.4Z" fill="#a365c9"/><path d="M176.08,87.06c-.07.42-1.24.35-1.49.66s0,1.45-.34,1.6-.9-.89-1.32-1-1.25.75-1.56.5.32-1.24.17-1.62-1.28-.67-1.21-1.09,1.24-.36,1.49-.67,0-1.45.34-1.6.9.89,1.32,1,1.25-.75,1.56-.5-.32,1.24-.17,1.62S176.15,86.64,176.08,87.06Z" fill="#a365c9"/><path d="M131.48,78.85c-.15-10.92.13-28.85-15.94-29.44C98.37,48.77,93.1,59,94.08,72.18s7.62,19,13.83,20.4C128.64,97.12,131.63,89.77,131.48,78.85Z" fill="#a365c9"/><path d="M171.35,101.25c.62-4.18,0-5.57-.85-6.34s-1,2.16-1.63,3.17-2.63,3.79-2.63,7.35v7.11s-6.7,6.66-15.11,14.7a44.27,44.27,0,0,0-11.19,18h20.89s9-19.31,11.29-25.2,1.55-5.74,3.87-8.22,4-3.71,3.71-7.12-3.59-8.34-5.45-9.58-1.28,1-1.28,1l1.32,2.68Z" fill="#eaa88e"/><path d="M143.7,145.19h-79s.41-20.22,6-28.67,8.67-7.22,18.16-9.91,17.53-4.54,17.74-15.47H120.9s.52,12.38,8.16,15.06,13.2,7,16.3,14.62,5.77,24.37,5.77,24.37Z" fill="#eaa88e"/><path d="M144.42,106.82c2.94-1.08-.78-2.79-2.68-2.48s-2.59,1.09-.42-1.54-4.49-2-8.51,0-2.95,3-2.95,3c2.93,10,2.95,32.84,2.95,32.84H88.57s0-22.82,3-32.84c0,0,1.07-1-3-3s-10.68-2.63-8.51,0,1.47,1.85-.43,1.54S74,105.74,77,106.82s4.31,1.33,2.14,2.27-3.53,2.68-1.52,2.68,4.49.62,2.32,1.55-3.71,4-.77,3.25,3.56,0,1.7,1.6-2.32,3.19.47,3.35c0,0-1.09,5.88-2,23.67h62.81c-.92-17.79-2-23.67-2-23.67,2.79-.16,2.32-1.7.47-3.35s-1.24-2.38,1.7-1.6,1.39-2.32-.77-3.25.3-1.55,2.32-1.55.64-1.73-1.52-2.68S141.48,107.9,144.42,106.82Z" fill="#e2eaf2"/><path d="M94,50.91s-.82-10.66,12.38-14.72,26.41,1.11,30.54,11.32,0,16,0,20.32,2.88,7.73,5.36,15.32.82,12-1.24,15.77-.41,6.22,4.54,9.53,6.6,8.22,5.36,14-1.23,7,3.72,10.34,4.54,12.38,4.54,12.38H139a15,15,0,0,1-7.84-4.95c-3.51-4.12-1.86-4.74-8.87-5.36s-6.6-3.92-7-8.87-4.54-8.26-10.11-9.91-8.25-1.85-8.87-10.11S95.22,93.4,88,90s-5.78-9.79-3.71-14.13.62-6.39,1-13.41S88.41,51.53,94,50.91Z" fill="#0d1019"/><path d="M67,116.38a5.43,5.43,0,0,1-.82,2.56,3.84,3.84,0,0,1-3.39,1.79,5.33,5.33,0,0,1-2.57-.78,5.4,5.4,0,0,1,.81-2.56A4,4,0,0,1,62.46,116a4.08,4.08,0,0,1,1.94-.43A5.41,5.41,0,0,1,67,116.38Z" fill="#a365c9"/><path d="M79.16,70a5.31,5.31,0,0,1-2.45.92,3.5,3.5,0,0,1-3.29-1.54,5.25,5.25,0,0,1-.84-2.49A5.24,5.24,0,0,1,75,65.92a3.43,3.43,0,0,1,1.86.31,3.65,3.65,0,0,1,1.43,1.24A5.48,5.48,0,0,1,79.16,70Z" fill="#a365c9"/><path d="M97.31,45.71a4.1,4.1,0,0,1-2.23,1.56,3.68,3.68,0,0,1-2.23-.09A3.84,3.84,0,0,1,91,45.7a3.07,3.07,0,0,1-.36-2.84c1.18-.1,1.82-.28,2.39-.34a3.16,3.16,0,0,1,1.49.15,3.85,3.85,0,0,1,1.36.92A8.38,8.38,0,0,1,97.31,45.71Z" fill="#a365c9"/><path d="M77,91.43a4.07,4.07,0,0,1,1.47-2.3,3.66,3.66,0,0,1,2.09-.76,3.81,3.81,0,0,1,2.29.65,3.08,3.08,0,0,1,1.41,2.49c-1,.55-1.56,1-2.08,1.23a3.14,3.14,0,0,1-1.42.43,3.89,3.89,0,0,1-1.61-.34A8,8,0,0,1,77,91.43Z" fill="#a365c9"/></svg>